<svg width="177" height="76" viewBox="0 0 177 76" fill="none" xmlns="http://www.w3.org/2000/svg">
<path d="M26.1979 29.439C26.1979 27.5202 25.3997 25.9682 23.8033 24.783C22.2069 23.5977 20.2742 23.0063 18.0052 23.0089C14.7286 23.0089 12.2502 23.9353 10.57 25.788C8.88984 27.6408 8.04912 30.2645 8.04785 33.6591V37.9439C8.04785 41.3385 8.88857 43.9622 10.57 45.815C12.2515 47.6678 14.7299 48.5941 18.0052 48.5941C20.2742 48.5941 22.2069 48.0231 23.8033 46.881C25.3997 45.7389 26.1979 44.2763 26.1979 42.4934H16.3605V33.1223H39.4884V52.9494L65.3763 37.9972L37.9351 22.1504C38.9719 24.2785 39.4915 26.7081 39.4941 29.439H26.1979Z" fill="url(#paint0_linear_99_19715)"/>
<path d="M15.4225 59.6453C8.73347 59.6453 3.59395 57.9131 0.00390625 54.4487V75.751L30.9286 57.896V54.2793C26.9768 57.8579 21.8081 59.6466 15.4225 59.6453Z" fill="url(#paint1_linear_99_19715)"/>
<path d="M20.5029 12.0862L0 0.251953V17.9719C4.09385 13.963 9.90657 11.958 17.4382 11.9567C18.4877 11.9567 19.5092 11.9999 20.5029 12.0862Z" fill="url(#paint2_linear_99_19715)"/>
<path d="M37.9145 22.0985L20.5715 12.0879H20.5029L37.9354 22.1518C37.9294 22.1337 37.9224 22.1159 37.9145 22.0985Z" fill="black"/>
<path d="M30.9233 57.8965V57.9878L39.4949 53.0387V52.9492L30.9233 57.8965Z" fill="black"/>
<path d="M39.4943 33.1223H16.3608V42.4991H26.1925C26.1925 44.2859 25.3943 45.7484 23.7979 46.8867C22.2014 48.025 20.2687 48.5961 17.9997 48.5999C14.7231 48.5999 12.2447 47.6735 10.5646 45.8207C8.88438 43.968 8.04366 41.3443 8.04239 37.9496V33.6591C8.04239 30.2645 8.88311 27.6408 10.5646 25.788C12.246 23.9353 14.7244 23.0089 17.9997 23.0089C20.2687 23.0089 22.2014 23.6003 23.7979 24.783C25.3943 25.9657 26.1925 27.5177 26.1925 29.439H39.4886C39.4886 26.7055 38.9689 24.276 37.9296 22.1504L20.5029 12.0865C19.5067 12.0002 18.4851 11.957 17.4382 11.957C9.90657 11.957 4.09385 13.9621 0 17.9722V54.4589C3.59385 57.9233 8.73337 59.6555 15.4185 59.6555C21.803 59.6555 26.9704 57.8694 30.9208 54.2971V57.9138L39.4867 52.9646L39.4943 33.1223Z" fill="white"/>
<path d="M121.969 39.4347L121.928 39.4808C121.775 39.6573 121.621 39.8364 121.465 40.0078C120.999 40.5195 120.511 41.0312 120.002 41.4917C119.078 42.3488 117.576 43.8302 116.2 43.7944C115.36 43.7765 114.943 42.9578 114.79 42.029C116.45 41.0261 118.177 40.0053 119.61 38.703C120.378 38.0096 121.289 36.9453 120.352 36.0012C118.676 34.3075 115.747 35.6558 114.345 37.0246C113.709 37.6613 113.225 38.4336 112.93 39.2838C112.869 39.3233 112.814 39.3726 112.769 39.4296L112.728 39.4756C112.574 39.6522 112.421 39.8313 112.265 40.0027C111.797 40.5144 111.31 41.0261 110.801 41.4866C109.875 42.3437 108.376 43.8251 106.999 43.7893C106.16 43.7714 105.741 42.9527 105.59 42.0239C107.25 41.021 108.977 40.0001 110.41 38.6979C111.177 38.0045 112.086 36.9402 111.152 35.9961C109.473 34.3024 106.546 35.6507 105.144 37.0195C104.08 38.0729 103.464 39.4961 103.423 40.9928C103.356 41.0077 103.294 41.0388 103.243 41.0835C103.192 41.1282 103.152 41.1849 103.128 41.2487C102.591 43.3134 102.036 45.4165 101.235 47.3891C101.15 47.5853 101.049 47.7744 100.933 47.9545C100.69 47.6007 100.497 47.2149 100.36 46.8083C99.659 44.5057 99.5464 41.983 99.4824 39.5882C99.4059 36.4745 99.5359 33.3591 99.8713 30.2625C100.181 27.3919 100.593 24.4112 101.662 21.712C101.767 21.4561 99.792 21.0928 99.5617 21.6685C98.4897 24.3677 98.0778 27.3484 97.7708 30.219C97.5593 32.1839 97.4288 34.1582 97.3794 36.1419C96.9183 36.1164 96.4584 36.2098 96.0438 36.4131C95.3806 36.7684 94.7397 37.164 94.1249 37.5977C94.0182 36.9843 93.8467 36.384 93.6132 35.8068C92.7843 33.8111 90.3281 34.6043 89.3073 36.0626C87.5163 38.6211 86.5748 41.6913 84.702 44.2038C84.5063 44.4744 84.2917 44.7309 84.0598 44.9713C83.9649 45.0527 83.8649 45.1279 83.7605 45.1965C83.4918 44.9943 83.2001 44.8383 82.9468 44.6106C81.9618 43.7176 81.4424 42.4486 81.202 41.1643C80.5674 37.7845 81.5729 34.0235 83.2974 31.1042C84.0649 29.8045 85.0576 28.5099 86.3829 27.7372C87.5649 27.0439 88.6856 27.5658 89.7371 28.3385C90.0467 28.5688 90.7093 28.4076 91.0445 28.3206C91.1443 28.295 91.9732 28.0443 91.7097 27.8498C89.5094 26.2175 86.5083 26.4247 84.2773 27.924C81.926 29.5052 80.4932 32.3042 79.6899 34.942C78.8865 37.5798 78.472 40.8547 79.7513 43.4439C80.8566 45.6902 83.3511 46.9286 85.5616 45.2579C86.6336 44.4443 87.3526 43.1599 87.9999 42.0111C88.8058 40.5835 89.512 39.1021 90.2872 37.6617C90.5958 37.069 90.9375 36.4942 91.3106 35.9398C91.3362 35.9014 91.3669 35.8656 91.395 35.8272C91.395 35.8477 91.4232 35.8656 91.4334 35.8861C91.6449 36.3225 91.7964 36.7855 91.8837 37.2625C92.0192 37.9034 92.1158 38.5519 92.1728 39.2044C90.4485 40.7966 88.9744 42.6398 87.8003 44.672C86.9701 46.0607 86.3185 47.5488 85.861 49.1007C85.5821 50.0857 85.2546 51.4034 85.6691 52.391C86.5313 54.4659 90.0185 52.9385 91.1187 51.8511C93.1118 49.8606 93.7437 46.5653 94.0712 43.884C94.3071 42.233 94.3842 40.5631 94.3015 38.8974C95.2427 38.0579 96.2721 37.3227 97.3717 36.7048C97.3512 37.9909 97.3691 39.2761 97.4254 40.5605C97.5277 42.9296 97.6122 45.6774 98.6714 47.8547C99.334 49.2235 101.596 49.9374 102.739 48.6684C103.098 48.2692 103.292 47.5989 103.476 47.1102C103.776 46.3171 104.031 45.5086 104.277 44.7027C104.344 44.4826 104.405 44.2626 104.472 44.0426C104.518 44.0989 104.561 44.1603 104.61 44.2166C106.262 46.0484 108.767 45.2886 110.54 44.0989C111.337 43.5607 112.085 42.9537 112.776 42.2849C112.953 43.0032 113.305 43.6667 113.8 44.2166C115.453 46.0484 117.955 45.2886 119.728 44.0989C121.305 43.0033 122.712 41.6798 123.901 40.1716C124.561 39.3452 122.573 38.6902 121.969 39.4347ZM105.725 39.7494C106.193 38.4702 107.795 36.6587 109.33 36.7636C109.382 36.7622 109.434 36.7727 109.481 36.7943C109.481 37.1449 108.765 37.6463 108.54 37.8408C107.637 38.5921 106.681 39.2762 105.679 39.8876C105.697 39.8338 105.725 39.7929 105.725 39.7494ZM91.7327 45.854C91.4863 47.3538 91.0289 48.8113 90.3742 50.183C89.9392 51.0401 89.2331 52.2298 88.2634 52.6289L88.2404 52.611C88.0894 52.4575 87.9334 52.3858 87.8182 52.1888C87.5624 51.7795 87.5624 51.2243 87.5624 50.7612C87.6136 49.1749 88.2378 47.5938 88.9082 46.1789C89.7887 44.3133 90.9066 42.5693 92.2342 40.9903C92.2129 42.6231 92.046 44.2508 91.7353 45.854H91.7327ZM100.537 48.5839C100.556 48.5811 100.576 48.5811 100.595 48.5839C100.587 48.588 100.577 48.5902 100.567 48.5902C100.558 48.5902 100.548 48.588 100.539 48.5839H100.537ZM101.304 48.5839C101.34 48.5839 101.363 48.5993 101.363 48.6121C101.363 48.6248 101.34 48.6274 101.309 48.5916L101.304 48.5839ZM114.936 39.7494C115.404 38.4702 117.006 36.6587 118.541 36.7636C118.593 36.7631 118.646 36.7735 118.694 36.7943C118.694 37.1449 117.978 37.6463 117.75 37.8408C116.848 38.5915 115.893 39.2756 114.892 39.8876C114.892 39.8338 114.908 39.7929 114.936 39.7494Z" fill="black"/>
<path d="M174.431 39.4347L174.39 39.4808C174.237 39.6573 174.083 39.8364 173.927 40.0078C173.462 40.5195 172.973 41.0312 172.464 41.4917C171.538 42.3488 170.038 43.8302 168.662 43.7944C167.823 43.7765 167.406 42.9578 167.252 42.029C168.913 41.0261 170.639 40.0053 172.072 38.703C172.84 38.0096 173.751 36.9453 172.814 36.0012C171.138 34.3075 168.209 35.6558 166.807 37.0246C166.171 37.6613 165.687 38.4336 165.392 39.2838C165.33 39.3239 165.275 39.3731 165.228 39.4296L165.187 39.4756C165.034 39.6522 164.88 39.8313 164.722 40.0027C164.256 40.5144 163.77 41.0261 163.261 41.4866C162.335 42.3437 160.833 43.8251 159.459 43.7893C158.62 43.7714 158.2 42.9527 158.049 42.0239C159.71 41.021 161.437 40.0001 162.867 38.6979C163.634 38.0045 164.545 36.9402 163.611 35.9961C161.933 34.3024 159.006 35.6507 157.604 37.0195C156.543 38.0746 155.928 39.4972 155.887 40.9928C155.821 41.008 155.76 41.0394 155.709 41.084C155.658 41.1287 155.619 41.1853 155.596 41.2487C155.058 43.3134 154.503 45.4165 153.702 47.3891C153.617 47.5853 153.516 47.7744 153.4 47.9545C153.157 47.6007 152.965 47.2149 152.827 46.8083C152.126 44.5057 152.014 41.983 151.95 39.5882C151.872 36.4745 152.002 33.359 152.339 30.2625C152.648 27.3919 153.06 24.4112 154.129 21.712C154.234 21.4561 152.257 21.0928 152.029 21.6685C150.957 24.3677 150.545 27.3484 150.238 30.219C150.027 32.1839 149.896 34.1582 149.847 36.1419C149.385 36.1164 148.926 36.2098 148.511 36.4131C147.848 36.7684 147.207 37.164 146.592 37.5977C146.485 36.9843 146.314 36.384 146.08 35.8068C145.251 33.8111 142.793 34.6043 141.774 36.0626C139.984 38.6211 139.042 41.6913 137.169 44.2038C136.973 44.4751 136.758 44.7316 136.524 44.9713C136.431 45.0534 136.332 45.1286 136.228 45.1965C135.972 44.9943 135.667 44.8383 135.414 44.6106C134.429 43.7176 133.907 42.4486 133.669 41.1643C133.035 37.7845 134.04 34.0235 135.765 31.1042C136.532 29.8045 137.525 28.5099 138.85 27.7372C140.032 27.0439 141.153 27.5658 142.204 28.3385C142.514 28.5688 143.177 28.4076 143.512 28.3206C143.611 28.295 144.438 28.0443 144.177 27.8498C141.977 26.2175 138.975 26.4247 136.744 27.924C134.393 29.5052 132.96 32.3042 132.157 34.942C131.354 37.5798 130.939 40.8547 132.216 43.4439C133.324 45.6902 135.818 46.9286 138.026 45.2579C139.101 44.4443 139.817 43.1599 140.467 42.0111C141.273 40.5835 141.979 39.1021 142.754 37.6617C143.063 37.069 143.405 36.4941 143.778 35.9398L143.865 35.8272C143.878 35.8477 143.89 35.8656 143.901 35.8861C144.115 36.3215 144.266 36.7849 144.351 37.2625C144.489 37.903 144.585 38.5516 144.64 39.2044C142.917 40.7973 141.444 42.6405 140.27 44.672C139.44 46.0607 138.788 47.5488 138.331 49.1007C138.052 50.0857 137.724 51.4034 138.139 52.391C139.001 54.4659 142.488 52.9385 143.588 51.8511C145.582 49.8606 146.213 46.5653 146.541 43.884C146.777 42.233 146.854 40.5631 146.771 38.8974C147.712 38.0573 148.741 37.3221 149.841 36.7048C149.821 37.9909 149.838 39.2761 149.893 40.5605C149.998 42.9296 150.082 45.6774 151.139 47.8547C151.804 49.2235 154.066 49.9374 155.209 48.6684C155.567 48.2692 155.762 47.5989 155.946 47.1102C156.245 46.3171 156.499 45.5086 156.747 44.7027C156.813 44.4826 156.875 44.2626 156.939 44.0426C156.987 44.0989 157.028 44.1603 157.079 44.2166C158.732 46.0484 161.237 45.2886 163.01 44.0989C163.806 43.5594 164.554 42.9525 165.246 42.2849C165.423 43.0032 165.775 43.6667 166.27 44.2166C167.922 46.0484 170.425 45.2886 172.198 44.0989C173.774 43.0019 175.18 41.6786 176.371 40.1716C177.023 39.3452 175.035 38.6902 174.431 39.4347ZM158.19 39.7494C158.658 38.4702 160.26 36.6587 161.792 36.7636C161.845 36.7621 161.898 36.7726 161.946 36.7943C161.946 37.1449 161.229 37.6463 161.004 37.8408C160.102 38.5915 159.146 39.2756 158.144 39.8876C158.159 39.8338 158.172 39.7929 158.19 39.7494ZM144.197 45.854C143.95 47.3536 143.493 48.8109 142.839 50.183C142.404 51.0401 141.698 52.2298 140.728 52.6289L140.702 52.611C140.554 52.4575 140.398 52.3858 140.28 52.1888C140.065 51.7456 139.977 51.2516 140.024 50.7612C140.076 49.1749 140.7 47.5938 141.37 46.1789C142.25 44.3128 143.368 42.5687 144.696 40.9903C144.675 42.6231 144.508 44.2508 144.197 45.854ZM152.999 48.5839C153.019 48.5814 153.04 48.5814 153.06 48.5839C153.05 48.5885 153.04 48.5908 153.029 48.5908C153.019 48.5908 153.008 48.5885 152.999 48.5839ZM153.766 48.5839C153.802 48.5839 153.825 48.5993 153.825 48.6121C153.825 48.6248 153.802 48.6274 153.771 48.5916L153.766 48.5839ZM167.38 39.7417C167.848 38.4625 169.45 36.6511 170.985 36.756C171.038 36.7554 171.09 36.7659 171.138 36.7867C171.138 37.1372 170.419 37.6386 170.194 37.8331C169.293 38.5838 168.337 39.2679 167.336 39.8799C167.354 39.8338 167.37 39.7929 167.385 39.7494L167.38 39.7417Z" fill="black"/>
<defs>
<linearGradient id="paint0_linear_99_19715" x1="-0.000246914" y1="37.5499" x2="65.3896" y2="37.5499" gradientUnits="userSpaceOnUse">
<stop stop-color="#881A1C"/>
<stop offset="0.77" stop-color="#E81F3F"/>
<stop offset="1" stop-color="#E7262B"/>
</linearGradient>
<linearGradient id="paint1_linear_99_19715" x1="9.92014e-05" y1="65.019" x2="65.39" y2="65.019" gradientUnits="userSpaceOnUse">
<stop stop-color="#881A1C"/>
<stop offset="0.77" stop-color="#E81F3F"/>
<stop offset="1" stop-color="#E7262B"/>
</linearGradient>
<linearGradient id="paint2_linear_99_19715" x1="0" y1="9.11096" x2="65.3899" y2="9.11096" gradientUnits="userSpaceOnUse">
<stop stop-color="#881A1C"/>
<stop offset="0.77" stop-color="#E81F3F"/>
<stop offset="1" stop-color="#E7262B"/>
</linearGradient>
</defs>
</svg>
