<svg width="24" height="22" viewBox="0 0 24 22" fill="none" xmlns="http://www.w3.org/2000/svg">
<path fill-rule="evenodd" clip-rule="evenodd" d="M0 8C0 7.60218 0.158035 7.22064 0.43934 6.93934C0.720644 6.65804 1.10218 6.5 1.5 6.5H16.962C17.3598 6.5 17.7414 6.65804 18.0227 6.93934C18.304 7.22064 18.462 7.60218 18.462 8C18.462 8.39782 18.304 8.77936 18.0227 9.06066C17.7414 9.34196 17.3598 9.5 16.962 9.5H1.5C1.10218 9.5 0.720644 9.34196 0.43934 9.06066C0.158035 8.77936 0 8.39782 0 8ZM0 2C0 1.60218 0.158035 1.22064 0.43934 0.93934C0.720644 0.658035 1.10218 0.5 1.5 0.5H22.5C22.8978 0.5 23.2794 0.658035 23.5607 0.93934C23.842 1.22064 24 1.60218 24 2C24 2.39782 23.842 2.77936 23.5607 3.06066C23.2794 3.34196 22.8978 3.5 22.5 3.5H1.5C1.10218 3.5 0.720644 3.34196 0.43934 3.06066C0.158035 2.77936 0 2.39782 0 2ZM0 14C0 13.6022 0.158035 13.2206 0.43934 12.9393C0.720644 12.658 1.10218 12.5 1.5 12.5H22.5C22.8978 12.5 23.2794 12.658 23.5607 12.9393C23.842 13.2206 24 13.6022 24 14C24 14.3978 23.842 14.7794 23.5607 15.0607C23.2794 15.342 22.8978 15.5 22.5 15.5H1.5C1.10218 15.5 0.720644 15.342 0.43934 15.0607C0.158035 14.7794 0 14.3978 0 14ZM0 20C0 19.6022 0.158035 19.2206 0.43934 18.9393C0.720644 18.658 1.10218 18.5 1.5 18.5H16.962C17.3598 18.5 17.7414 18.658 18.0227 18.9393C18.304 19.2206 18.462 19.6022 18.462 20C18.462 20.3978 18.304 20.7794 18.0227 21.0607C17.7414 21.342 17.3598 21.5 16.962 21.5H1.5C1.10218 21.5 0.720644 21.342 0.43934 21.0607C0.158035 20.7794 0 20.3978 0 20Z" fill="white"/>
</svg>
