<svg width="19" height="10" viewBox="0 0 19 10" fill="none" xmlns="http://www.w3.org/2000/svg">
<path fill-rule="evenodd" clip-rule="evenodd" d="M4.91784 2.26025C4.18639 2.26025 3.4849 2.55082 2.96769 3.06803C2.45047 3.58524 2.15991 4.28673 2.15991 5.01818C2.15991 5.74963 2.45047 6.45112 2.96769 6.96833C3.4849 7.48554 4.18639 7.77611 4.91784 7.77611H8.00748V9.61473H4.91784C3.69876 9.61473 2.52961 9.13045 1.66759 8.26843C0.805567 7.40641 0.321289 6.23726 0.321289 5.01818C0.321289 3.7991 0.805567 2.62995 1.66759 1.76793C2.52961 0.905909 3.69876 0.421631 4.91784 0.421631H7.9596V2.26025H4.91784Z" fill="#333333"/>
<path fill-rule="evenodd" clip-rule="evenodd" d="M10.4563 0.421631H13.4981C14.7171 0.421631 15.8863 0.905909 16.7483 1.76793C17.6103 2.62995 18.0946 3.7991 18.0946 5.01818C18.0946 6.23726 17.6103 7.40641 16.7483 8.26843C15.8863 9.13045 14.7171 9.61473 13.4981 9.61473H10.4084V7.77611H13.4981C14.2295 7.77611 14.931 7.48554 15.4482 6.96833C15.9654 6.45112 16.256 5.74963 16.256 5.01818C16.256 4.28673 15.9654 3.58524 15.4482 3.06803C14.931 2.55082 14.2295 2.26025 13.4981 2.26025H10.4563V0.421631Z" fill="#333333"/>
<path fill-rule="evenodd" clip-rule="evenodd" d="M4.95882 4.09887H13.5337V5.93749H4.95882V4.09887Z" fill="#333333"/>
</svg>
