<svg width="18" height="19" viewBox="0 0 18 19" fill="none" xmlns="http://www.w3.org/2000/svg">
<path d="M14.1931 13.0455C13.8198 13.0469 13.4507 13.1238 13.1079 13.2714C12.765 13.419 12.4556 13.6343 12.198 13.9045L5.4425 10.524C5.60868 10.0201 5.60868 9.47616 5.4425 8.97227L12.2091 5.53079C12.6938 6.04154 13.351 6.35384 14.0531 6.40699C14.7552 6.46013 15.452 6.25033 16.0081 5.81835C16.5641 5.38638 16.9397 4.76309 17.0617 4.06964C17.1838 3.37619 17.0437 2.66212 16.6687 2.06622C16.2936 1.47031 15.7104 1.03515 15.0323 0.845313C14.3543 0.655473 13.6299 0.724517 12.9999 1.03903C12.3699 1.35354 11.8794 1.89104 11.6237 2.54707C11.3679 3.2031 11.3652 3.93078 11.6161 4.58868L4.91603 7.99691C4.55417 7.55436 4.0643 7.23457 3.51356 7.08135C2.96283 6.92814 2.37818 6.94902 1.83977 7.14112C1.30137 7.33322 0.835548 7.68714 0.506176 8.15436C0.176804 8.62159 0 9.17925 0 9.7509C0 10.3226 0.176804 10.8802 0.506176 11.3474C0.835548 11.8147 1.30137 12.1686 1.83977 12.3607C2.37818 12.5528 2.96283 12.5737 3.51356 12.4204C4.0643 12.2672 4.55417 11.9474 4.91603 11.5049L11.5995 14.8688C11.4866 15.172 11.4284 15.4929 11.4277 15.8164C11.4277 16.3645 11.5902 16.9002 11.8947 17.3559C12.1991 17.8116 12.6319 18.1667 13.1382 18.3764C13.6445 18.5862 14.2017 18.641 14.7392 18.5341C15.2767 18.4272 15.7704 18.1633 16.1579 17.7758C16.5455 17.3883 16.8094 16.8945 16.9163 16.357C17.0232 15.8195 16.9683 15.2624 16.7586 14.7561C16.5489 14.2497 16.1937 13.817 15.738 13.5125C15.2824 13.208 14.7466 13.0455 14.1986 13.0455H14.1931ZM14.1931 1.96185C14.5219 1.96185 14.8433 2.05935 15.1167 2.24204C15.3901 2.42472 15.6032 2.68438 15.7291 2.98817C15.8549 3.29196 15.8878 3.62624 15.8237 3.94875C15.7595 4.27125 15.6012 4.56749 15.3687 4.8C15.1362 5.03251 14.8399 5.19085 14.5174 5.255C14.1949 5.31915 13.8606 5.28623 13.5568 5.1604C13.253 5.03456 12.9934 4.82147 12.8107 4.54806C12.628 4.27466 12.5305 3.95322 12.5305 3.6244C12.5305 3.18346 12.7057 2.76059 13.0175 2.4488C13.3293 2.13701 13.7521 1.96185 14.1931 1.96185ZM2.81567 11.383C2.48685 11.383 2.16542 11.2855 1.89201 11.1028C1.6186 10.9201 1.40551 10.6604 1.27968 10.3566C1.15384 10.0529 1.12092 9.71857 1.18507 9.39607C1.24922 9.07357 1.40756 8.77733 1.64007 8.54482C1.87258 8.31231 2.16882 8.15396 2.49133 8.08981C2.81383 8.02566 3.14811 8.05859 3.4519 8.18442C3.7557 8.31026 4.01535 8.52335 4.19803 8.79676C4.38072 9.07016 4.47823 9.3916 4.47823 9.72042C4.47823 10.1614 4.30306 10.5842 3.99128 10.896C3.67949 11.2078 3.25661 11.383 2.81567 11.383ZM14.1931 17.479C13.8642 17.479 13.5428 17.3815 13.2694 17.1988C12.996 17.0161 12.7829 16.7565 12.6571 16.4527C12.5312 16.1489 12.4983 15.8146 12.5625 15.4921C12.6266 15.1696 12.785 14.8734 13.0175 14.6408C13.25 14.4083 13.5462 14.25 13.8687 14.1858C14.1912 14.1217 14.5255 14.1546 14.8293 14.2804C15.1331 14.4063 15.3927 14.6194 15.5754 14.8928C15.7581 15.1662 15.8556 15.4876 15.8556 15.8164C15.8556 16.2574 15.6805 16.6803 15.3687 16.992C15.0569 17.3038 14.634 17.479 14.1931 17.479Z" fill="#808080"/>
</svg>
