<svg width="18" height="19" viewBox="0 0 18 19" fill="none" xmlns="http://www.w3.org/2000/svg">
<path opacity="0.9" d="M9.16127 0.351964C10.2262 0.336426 11.2831 0.344195 12.3399 0.336426C12.4049 1.52507 12.852 2.73703 13.7625 3.57607C14.673 4.43843 15.9575 4.83464 17.2094 4.96671V8.0976C16.0388 8.05875 14.86 7.82569 13.7951 7.34401C13.3317 7.14202 12.9008 6.88564 12.4781 6.6215C12.47 8.89003 12.4862 11.1586 12.4618 13.4193C12.3968 14.507 12.0228 15.5869 11.3643 16.4803C10.2994 17.9719 8.45401 18.943 6.55984 18.9741C5.39733 19.0363 4.23482 18.7333 3.24303 18.1739C1.60088 17.2494 0.446499 15.5558 0.275781 13.7378C0.259522 13.3494 0.251393 12.961 0.267652 12.5803C0.413982 11.1042 1.17815 9.69023 2.36505 8.72688C3.71454 7.60815 5.60057 7.0721 7.36466 7.39062C7.38092 8.54043 7.33214 9.69023 7.33214 10.84C6.52733 10.5914 5.58431 10.6613 4.87705 11.1275C4.36489 11.446 3.97468 11.9355 3.77144 12.4871C3.60073 12.8833 3.6495 13.3183 3.65763 13.7378C3.85274 15.012 5.13719 16.0841 6.50294 15.9675C7.41344 15.9598 8.28329 15.4548 8.7548 14.7167C8.90925 14.4604 9.07997 14.1962 9.0881 13.8932C9.1694 12.5026 9.13688 11.1197 9.14501 9.72908C9.15314 6.59819 9.13688 3.47508 9.16127 0.351964Z" fill="white"/>
</svg>
