<svg width="11" height="8" viewBox="0 0 11 8" fill="none" xmlns="http://www.w3.org/2000/svg">
<path d="M5.4319 5.43178C6.23191 5.43178 6.88044 4.78324 6.88044 3.98324C6.88044 3.18323 6.23191 2.5347 5.4319 2.5347C4.63189 2.5347 3.98336 3.18323 3.98336 3.98324C3.98336 4.78324 4.63189 5.43178 5.4319 5.43178Z" fill="#808080"/>
<path d="M10.8422 3.86036C10.4162 2.75862 9.67682 1.80583 8.71528 1.11975C7.75374 0.433677 6.61225 0.044388 5.43187 0C4.2515 0.044388 3.11 0.433677 2.14847 1.11975C1.18693 1.80583 0.447503 2.75862 0.021574 3.86036C-0.00719135 3.93992 -0.00719135 4.02705 0.021574 4.10661C0.447503 5.20835 1.18693 6.16114 2.14847 6.84722C3.11 7.5333 4.2515 7.92259 5.43187 7.96697C6.61225 7.92259 7.75374 7.5333 8.71528 6.84722C9.67682 6.16114 10.4162 5.20835 10.8422 4.10661C10.8709 4.02705 10.8709 3.93992 10.8422 3.86036ZM5.43187 6.33736C4.96632 6.33736 4.51122 6.19931 4.12413 5.94066C3.73704 5.68202 3.43533 5.31439 3.25717 4.88428C3.07901 4.45416 3.0324 3.98088 3.12322 3.52427C3.21405 3.06766 3.43823 2.64824 3.76743 2.31904C4.09663 1.98985 4.51605 1.76566 4.97265 1.67484C5.42926 1.58401 5.90255 1.63063 6.33266 1.80879C6.76278 1.98695 7.1304 2.28865 7.38905 2.67574C7.6477 3.06284 7.78575 3.51793 7.78575 3.98349C7.78479 4.60748 7.53649 5.20564 7.09526 5.64687C6.65403 6.0881 6.05587 6.33641 5.43187 6.33736Z" fill="#808080"/>
</svg>
