<svg width="20" height="22" viewBox="0 0 20 22" fill="none" xmlns="http://www.w3.org/2000/svg">
<path d="M16.4612 15.0526C16.0283 15.0542 15.6002 15.143 15.2025 15.3136C14.8049 15.4843 14.446 15.7332 14.1473 16.0456L6.31223 12.1376C6.50497 11.5551 6.50497 10.9263 6.31223 10.3438L14.1601 6.36537C14.7223 6.95581 15.4846 7.31683 16.2989 7.37827C17.1132 7.43971 17.9213 7.19717 18.5662 6.6978C19.2111 6.19843 19.6467 5.4779 19.7883 4.67626C19.9299 3.87461 19.7674 3.04913 19.3324 2.36026C18.8974 1.67138 18.2209 1.16832 17.4345 0.948865C16.6481 0.729406 15.808 0.809223 15.0773 1.1728C14.3467 1.53638 13.7778 2.15775 13.4812 2.91613C13.1845 3.67451 13.1814 4.51573 13.4724 5.27627L5.70163 9.21626C5.28195 8.70466 4.71379 8.33497 4.07504 8.15786C3.4363 7.98074 2.75822 8.00487 2.13378 8.22694C1.50933 8.44901 0.969072 8.85815 0.587065 9.39828C0.205058 9.9384 0 10.5831 0 11.2439C0 11.9047 0.205058 12.5494 0.587065 13.0895C0.969072 13.6297 1.50933 14.0388 2.13378 14.2609C2.75822 14.4829 3.4363 14.5071 4.07504 14.33C4.71379 14.1528 5.28195 13.7831 5.70163 13.2716L13.4531 17.1603C13.3221 17.5108 13.2547 17.8817 13.2539 18.2558C13.2539 18.8893 13.4424 19.5086 13.7955 20.0354C14.1486 20.5622 14.6505 20.9728 15.2378 21.2152C15.825 21.4576 16.4712 21.5211 17.0946 21.3975C17.718 21.2739 18.2906 20.9688 18.74 20.5208C19.1895 20.0728 19.4956 19.5021 19.6196 18.8807C19.7436 18.2593 19.6799 17.6153 19.4367 17.03C19.1934 16.4447 18.7815 15.9444 18.253 15.5924C17.7245 15.2404 17.1032 15.0526 16.4676 15.0526H16.4612ZM16.4612 2.2396C16.8425 2.2396 17.2153 2.35232 17.5324 2.56351C17.8495 2.77469 18.0967 3.07486 18.2426 3.42605C18.3886 3.77724 18.4267 4.16368 18.3523 4.5365C18.2779 4.90932 18.0943 5.25178 17.8246 5.52056C17.555 5.78935 17.2114 5.9724 16.8373 6.04656C16.4633 6.12072 16.0756 6.08266 15.7233 5.93719C15.3709 5.79172 15.0698 5.54538 14.8579 5.22932C14.646 4.91326 14.5329 4.54167 14.5329 4.16154C14.5329 3.65181 14.7361 3.16296 15.0977 2.80253C15.4593 2.44209 15.9498 2.2396 16.4612 2.2396ZM3.26563 13.1306C2.88426 13.1306 2.51146 13.0179 2.19436 12.8067C1.87726 12.5955 1.63012 12.2954 1.48417 11.9442C1.33823 11.593 1.30004 11.2065 1.37445 10.8337C1.44885 10.4609 1.63249 10.1184 1.90216 9.84965C2.17183 9.58086 2.51541 9.39781 2.88945 9.32366C3.26349 9.2495 3.65119 9.28756 4.00353 9.43303C4.35587 9.57849 4.65702 9.82483 4.86889 10.1409C5.08077 10.457 5.19386 10.8285 5.19386 11.2087C5.19386 11.7184 4.99071 12.2073 4.62909 12.5677C4.26748 12.9281 3.77703 13.1306 3.26563 13.1306ZM16.4612 20.1777C16.0798 20.1777 15.707 20.065 15.3899 19.8538C15.0728 19.6426 14.8257 19.3425 14.6797 18.9913C14.5338 18.6401 14.4956 18.2537 14.57 17.8808C14.6444 17.508 14.828 17.1656 15.0977 16.8968C15.3674 16.628 15.7109 16.4449 16.085 16.3708C16.459 16.2966 16.8467 16.3347 17.1991 16.4802C17.5514 16.6256 17.8526 16.872 18.0644 17.188C18.2763 17.5041 18.3894 17.8757 18.3894 18.2558C18.3894 18.7655 18.1862 19.2544 17.8246 19.6148C17.463 19.9752 16.9726 20.1777 16.4612 20.1777Z" fill="#808080"/>
</svg>
