<svg width="255" height="71" viewBox="0 0 255 71" fill="none" xmlns="http://www.w3.org/2000/svg">
<rect x="0.105469" y="0.0935059" width="254" height="70" rx="5" fill="white"/>
<path d="M93.2564 28.2388L96.7551 19.3823H98.3689L101.88 28.2388H100.551L99.6857 26.044H95.3737L94.5216 28.2388H93.2564ZM95.7739 24.9983H99.2726L98.201 22.2226C98.1752 22.1451 98.1365 22.0375 98.0848 21.8998C98.0332 21.7621 97.9772 21.6115 97.917 21.448C97.8567 21.2758 97.7965 21.1037 97.7363 20.9316C97.676 20.7508 97.6201 20.5873 97.5684 20.441H97.491C97.4307 20.6131 97.3619 20.8111 97.2844 21.0348C97.2069 21.2586 97.1295 21.4781 97.052 21.6933C96.9745 21.8998 96.91 22.0763 96.8584 22.2226L95.7739 24.9983ZM104.462 28.2388L101.945 21.448H103.133L104.372 24.8434C104.432 25.0069 104.501 25.2135 104.579 25.4631C104.656 25.7041 104.734 25.9537 104.811 26.2119C104.897 26.4615 104.966 26.6852 105.018 26.8832H105.082C105.142 26.6938 105.211 26.4744 105.289 26.2248C105.366 25.9666 105.444 25.717 105.521 25.476C105.607 25.2264 105.68 25.0155 105.741 24.8434L106.967 21.448H108.116L105.599 28.2388H104.462ZM110.752 28.3937C110.502 28.3937 110.252 28.3636 110.003 28.3033C109.753 28.2431 109.521 28.1441 109.306 28.0064C109.09 27.8687 108.918 27.6793 108.789 27.4383C108.66 27.1887 108.596 26.8789 108.596 26.5088C108.596 26.044 108.707 25.661 108.931 25.3598C109.155 25.0585 109.465 24.8262 109.861 24.6626C110.265 24.4905 110.743 24.3743 111.294 24.314C111.845 24.2452 112.443 24.2108 113.088 24.2108V23.4361C113.088 23.1865 113.045 22.9714 112.959 22.7906C112.873 22.6099 112.718 22.4722 112.494 22.3775C112.279 22.2742 111.969 22.2226 111.565 22.2226C111.178 22.2226 110.868 22.2742 110.635 22.3775C110.412 22.4722 110.252 22.597 110.158 22.7519C110.072 22.9068 110.029 23.079 110.029 23.2683V23.462H108.931C108.923 23.4189 108.918 23.3759 108.918 23.3329C108.918 23.2898 108.918 23.2382 108.918 23.1779C108.918 22.7648 109.03 22.4205 109.254 22.1451C109.486 21.8611 109.809 21.6502 110.222 21.5125C110.635 21.3662 111.109 21.293 111.642 21.293C112.21 21.293 112.684 21.3748 113.062 21.5383C113.45 21.7019 113.738 21.9343 113.927 22.2355C114.125 22.5367 114.224 22.8982 114.224 23.32V26.9994C114.224 27.1629 114.263 27.2791 114.341 27.348C114.418 27.4082 114.513 27.4383 114.625 27.4383H115.128V28.1871C115.008 28.2388 114.874 28.2818 114.728 28.3162C114.582 28.3593 114.414 28.3808 114.224 28.3808C114.001 28.3808 113.816 28.3334 113.669 28.2388C113.523 28.1527 113.411 28.0322 113.334 27.8773C113.256 27.7138 113.204 27.533 113.179 27.3351H113.088C112.933 27.5502 112.735 27.7396 112.494 27.9031C112.262 28.058 112 28.1785 111.707 28.2646C111.414 28.3507 111.096 28.3937 110.752 28.3937ZM111.036 27.4383C111.311 27.4383 111.569 27.3953 111.81 27.3092C112.06 27.2232 112.279 27.1027 112.469 26.9477C112.658 26.7842 112.809 26.5906 112.92 26.3668C113.032 26.143 113.088 25.8977 113.088 25.6309V25.0628C112.391 25.0628 111.797 25.1016 111.307 25.179C110.816 25.2565 110.437 25.3942 110.171 25.5922C109.912 25.7901 109.783 26.0698 109.783 26.4313C109.783 26.6637 109.835 26.8531 109.938 26.9994C110.041 27.1457 110.188 27.2576 110.377 27.3351C110.566 27.4039 110.786 27.4383 111.036 27.4383ZM116.082 20.1698V18.9046H117.219V20.1698H116.082ZM116.082 28.2388V21.448H117.219V28.2388H116.082ZM118.982 28.2388V18.9046H120.118V28.2388H118.982ZM123.586 28.3937C123.337 28.3937 123.087 28.3636 122.837 28.3033C122.588 28.2431 122.355 28.1441 122.14 28.0064C121.925 27.8687 121.753 27.6793 121.624 27.4383C121.495 27.1887 121.43 26.8789 121.43 26.5088C121.43 26.044 121.542 25.661 121.766 25.3598C121.99 25.0585 122.299 24.8262 122.695 24.6626C123.1 24.4905 123.578 24.3743 124.128 24.314C124.679 24.2452 125.277 24.2108 125.923 24.2108V23.4361C125.923 23.1865 125.88 22.9714 125.794 22.7906C125.708 22.6099 125.553 22.4722 125.329 22.3775C125.114 22.2742 124.804 22.2226 124.399 22.2226C124.012 22.2226 123.702 22.2742 123.47 22.3775C123.246 22.4722 123.087 22.597 122.992 22.7519C122.906 22.9068 122.863 23.079 122.863 23.2683V23.462H121.766C121.757 23.4189 121.753 23.3759 121.753 23.3329C121.753 23.2898 121.753 23.2382 121.753 23.1779C121.753 22.7648 121.865 22.4205 122.089 22.1451C122.321 21.8611 122.644 21.6502 123.057 21.5125C123.47 21.3662 123.943 21.293 124.477 21.293C125.045 21.293 125.518 21.3748 125.897 21.5383C126.284 21.7019 126.573 21.9343 126.762 22.2355C126.96 22.5367 127.059 22.8982 127.059 23.32V26.9994C127.059 27.1629 127.098 27.2791 127.175 27.348C127.253 27.4082 127.347 27.4383 127.459 27.4383H127.963V28.1871C127.842 28.2388 127.709 28.2818 127.563 28.3162C127.416 28.3593 127.248 28.3808 127.059 28.3808C126.835 28.3808 126.65 28.3334 126.504 28.2388C126.358 28.1527 126.246 28.0322 126.168 27.8773C126.091 27.7138 126.039 27.533 126.013 27.3351H125.923C125.768 27.5502 125.57 27.7396 125.329 27.9031C125.097 28.058 124.834 28.1785 124.542 28.2646C124.249 28.3507 123.93 28.3937 123.586 28.3937ZM123.87 27.4383C124.146 27.4383 124.404 27.3953 124.645 27.3092C124.894 27.2232 125.114 27.1027 125.303 26.9477C125.493 26.7842 125.643 26.5906 125.755 26.3668C125.867 26.143 125.923 25.8977 125.923 25.6309V25.0628C125.226 25.0628 124.632 25.1016 124.141 25.179C123.651 25.2565 123.272 25.3942 123.005 25.5922C122.747 25.7901 122.618 26.0698 122.618 26.4313C122.618 26.6637 122.67 26.8531 122.773 26.9994C122.876 27.1457 123.022 27.2576 123.212 27.3351C123.401 27.4039 123.621 27.4383 123.87 27.4383ZM132.145 28.3937C131.688 28.3937 131.28 28.3033 130.918 28.1226C130.557 27.9332 130.26 27.6492 130.027 27.2705H129.937L129.821 28.2388H128.917V18.9046H130.053V22.3H130.131C130.286 22.0591 130.466 21.8654 130.673 21.7191C130.879 21.5728 131.112 21.4652 131.37 21.3963C131.628 21.3275 131.904 21.293 132.196 21.293C132.721 21.293 133.182 21.4178 133.578 21.6674C133.974 21.917 134.279 22.3 134.494 22.8165C134.718 23.3329 134.83 23.9913 134.83 24.7917C134.83 25.6352 134.722 26.3237 134.507 26.8574C134.292 27.3824 133.987 27.7697 133.591 28.0193C133.195 28.2689 132.713 28.3937 132.145 28.3937ZM131.874 27.3996C132.261 27.3996 132.584 27.3221 132.842 27.1672C133.109 27.0123 133.311 26.7584 133.449 26.4055C133.586 26.044 133.655 25.5706 133.655 24.9854V24.7143C133.655 24.1462 133.591 23.6857 133.461 23.3329C133.332 22.9714 133.134 22.7089 132.868 22.5453C132.601 22.3732 132.257 22.2871 131.835 22.2871C131.594 22.2871 131.366 22.3259 131.151 22.4033C130.935 22.4808 130.742 22.6142 130.57 22.8035C130.406 22.9929 130.277 23.2468 130.182 23.5653C130.096 23.8837 130.053 24.2753 130.053 24.7401V24.9466C130.053 25.4803 130.113 25.9278 130.234 26.2893C130.363 26.6508 130.561 26.9262 130.828 27.1156C131.103 27.3049 131.452 27.3996 131.874 27.3996ZM136.242 28.2388V18.9046H137.378V28.2388H136.242ZM141.853 28.3937C141.182 28.3937 140.614 28.2689 140.149 28.0193C139.693 27.7611 139.344 27.3695 139.103 26.8445C138.871 26.3194 138.755 25.6524 138.755 24.8434C138.755 24.0257 138.871 23.3587 139.103 22.8423C139.344 22.3173 139.697 21.9299 140.162 21.6804C140.627 21.4221 141.208 21.293 141.905 21.293C142.542 21.293 143.075 21.4178 143.506 21.6674C143.936 21.9084 144.259 22.2742 144.474 22.7648C144.698 23.2468 144.81 23.8536 144.81 24.5852V25.1274H139.929C139.947 25.6696 140.024 26.1172 140.162 26.4701C140.308 26.8143 140.523 27.0682 140.807 27.2318C141.091 27.3867 141.449 27.4642 141.879 27.4642C142.172 27.4642 142.425 27.4297 142.641 27.3609C142.864 27.2834 143.049 27.1758 143.196 27.0381C143.351 26.9004 143.467 26.7369 143.544 26.5475C143.622 26.3582 143.665 26.1516 143.673 25.9278H144.784C144.775 26.2893 144.706 26.625 144.577 26.9348C144.448 27.2361 144.259 27.4943 144.009 27.7094C143.759 27.9246 143.454 28.0925 143.092 28.2129C142.731 28.3334 142.318 28.3937 141.853 28.3937ZM139.955 24.2753H143.635C143.635 23.8966 143.592 23.5782 143.506 23.32C143.42 23.0618 143.295 22.8509 143.131 22.6874C142.976 22.5238 142.791 22.4076 142.576 22.3388C142.369 22.2613 142.133 22.2226 141.866 22.2226C141.47 22.2226 141.134 22.2957 140.859 22.4421C140.584 22.5884 140.373 22.8122 140.226 23.1134C140.08 23.4146 139.99 23.8019 139.955 24.2753ZM151.701 28.3937C151.013 28.3937 150.432 28.2689 149.959 28.0193C149.494 27.7611 149.137 27.3695 148.887 26.8445C148.646 26.3194 148.526 25.6524 148.526 24.8434C148.526 24.0257 148.646 23.3587 148.887 22.8423C149.137 22.3173 149.494 21.9299 149.959 21.6804C150.432 21.4221 151.013 21.293 151.701 21.293C152.39 21.293 152.967 21.4221 153.431 21.6804C153.905 21.9299 154.262 22.3173 154.503 22.8423C154.744 23.3587 154.865 24.0257 154.865 24.8434C154.865 25.6524 154.744 26.3194 154.503 26.8445C154.262 27.3695 153.905 27.7611 153.431 28.0193C152.967 28.2689 152.39 28.3937 151.701 28.3937ZM151.701 27.4383C152.14 27.4383 152.506 27.3523 152.799 27.1801C153.091 27.008 153.311 26.7412 153.457 26.3797C153.612 26.0096 153.69 25.5448 153.69 24.9854V24.7014C153.69 24.1333 153.612 23.6685 153.457 23.307C153.311 22.9456 153.091 22.6787 152.799 22.5066C152.506 22.3345 152.14 22.2484 151.701 22.2484C151.263 22.2484 150.892 22.3345 150.591 22.5066C150.299 22.6787 150.079 22.9456 149.933 23.307C149.786 23.6685 149.713 24.1333 149.713 24.7014V24.9854C149.713 25.5448 149.786 26.0096 149.933 26.3797C150.079 26.7412 150.299 27.008 150.591 27.1801C150.892 27.3523 151.263 27.4383 151.701 27.4383ZM156.276 28.2388V21.448H157.192L157.296 22.4679H157.386C157.567 22.1925 157.769 21.9687 157.993 21.7965C158.225 21.6244 158.479 21.4996 158.755 21.4221C159.039 21.3361 159.34 21.293 159.658 21.293C160.089 21.293 160.463 21.3662 160.781 21.5125C161.109 21.6588 161.362 21.8955 161.543 22.2226C161.733 22.5496 161.827 22.9929 161.827 23.5523V28.2388H160.691V23.7073C160.691 23.4232 160.652 23.1909 160.575 23.0101C160.506 22.8294 160.407 22.6874 160.278 22.5841C160.157 22.4808 160.007 22.4076 159.826 22.3646C159.654 22.3216 159.46 22.3 159.245 22.3C158.927 22.3 158.625 22.3775 158.341 22.5324C158.057 22.6874 157.829 22.9111 157.657 23.2038C157.494 23.4964 157.412 23.845 157.412 24.2495V28.2388H156.276ZM167.836 28.3937C167.484 28.3937 167.208 28.3291 167.01 28.2C166.812 28.0623 166.67 27.8859 166.584 27.6707C166.498 27.4469 166.455 27.2103 166.455 26.9607V22.4033H165.577V21.448H166.481L166.687 19.5502H167.591V21.448H168.869V22.4033H167.591V26.7928C167.591 27.008 167.63 27.1715 167.707 27.2834C167.785 27.3867 167.931 27.4383 168.146 27.4383H168.869V28.1871C168.783 28.2302 168.68 28.2646 168.559 28.2904C168.439 28.3162 168.314 28.3377 168.185 28.355C168.064 28.3808 167.948 28.3937 167.836 28.3937ZM170.081 28.2388V18.9046H171.217V22.3H171.308C171.48 22.0677 171.673 21.8783 171.889 21.732C172.104 21.5857 172.34 21.4781 172.599 21.4092C172.865 21.3318 173.154 21.293 173.464 21.293C173.894 21.293 174.268 21.3662 174.587 21.5125C174.914 21.6588 175.168 21.8955 175.349 22.2226C175.538 22.5496 175.633 22.9929 175.633 23.5523V28.2388H174.496V23.7073C174.496 23.4232 174.458 23.1909 174.38 23.0101C174.311 22.8294 174.212 22.6874 174.083 22.5841C173.963 22.4808 173.812 22.4076 173.632 22.3646C173.459 22.3216 173.266 22.3 173.051 22.3C172.732 22.3 172.431 22.3775 172.147 22.5324C171.863 22.6787 171.635 22.8982 171.463 23.1909C171.299 23.4749 171.217 23.8278 171.217 24.2495V28.2388H170.081ZM180.067 28.3937C179.396 28.3937 178.828 28.2689 178.363 28.0193C177.907 27.7611 177.558 27.3695 177.317 26.8445C177.085 26.3194 176.969 25.6524 176.969 24.8434C176.969 24.0257 177.085 23.3587 177.317 22.8423C177.558 22.3173 177.911 21.9299 178.376 21.6804C178.84 21.4221 179.421 21.293 180.119 21.293C180.756 21.293 181.289 21.4178 181.719 21.6674C182.15 21.9084 182.473 22.2742 182.688 22.7648C182.912 23.2468 183.023 23.8536 183.023 24.5852V25.1274H178.143C178.161 25.6696 178.238 26.1172 178.376 26.4701C178.522 26.8143 178.737 27.0682 179.021 27.2318C179.305 27.3867 179.662 27.4642 180.093 27.4642C180.385 27.4642 180.639 27.4297 180.854 27.3609C181.078 27.2834 181.263 27.1758 181.41 27.0381C181.565 26.9004 181.681 26.7369 181.758 26.5475C181.836 26.3582 181.879 26.1516 181.887 25.9278H182.998C182.989 26.2893 182.92 26.625 182.791 26.9348C182.662 27.2361 182.473 27.4943 182.223 27.7094C181.973 27.9246 181.668 28.0925 181.306 28.2129C180.945 28.3334 180.532 28.3937 180.067 28.3937ZM178.169 24.2753H181.849C181.849 23.8966 181.806 23.5782 181.719 23.32C181.633 23.0618 181.509 22.8509 181.345 22.6874C181.19 22.5238 181.005 22.4076 180.79 22.3388C180.583 22.2613 180.347 22.2226 180.08 22.2226C179.684 22.2226 179.348 22.2957 179.073 22.4421C178.797 22.5884 178.587 22.8122 178.44 23.1134C178.294 23.4146 178.204 23.8019 178.169 24.2753Z" fill="#040001"/>
<path d="M93.2589 52.0935L98.2209 39.3448H101.269L106.249 52.0935H103.629L102.607 49.3802H96.7713L95.7492 52.0935H93.2589ZM97.5333 47.336H101.826L100.544 43.8793C100.494 43.7555 100.432 43.6006 100.358 43.4147C100.296 43.2165 100.228 43.0059 100.154 42.7829C100.079 42.5475 100.005 42.3121 99.9306 42.0767C99.8563 41.8413 99.7881 41.6307 99.7262 41.4448H99.6333C99.5589 41.6926 99.466 41.9776 99.3545 42.2997C99.2554 42.6218 99.1563 42.9254 99.0572 43.2103C98.9581 43.4953 98.8775 43.7183 98.8156 43.8793L97.5333 47.336ZM107.754 52.0935V39.3448H114.147C115.089 39.3448 115.863 39.5121 116.47 39.8466C117.09 40.1811 117.554 40.6519 117.864 41.259C118.174 41.8661 118.329 42.5908 118.329 43.4333C118.329 44.2634 118.167 44.9882 117.845 45.6077C117.523 46.2271 117.04 46.7103 116.396 47.0572C115.764 47.3917 114.971 47.559 114.017 47.559H110.17V52.0935H107.754ZM110.17 45.4962H113.943C114.562 45.4962 115.039 45.3165 115.374 44.9572C115.721 44.5855 115.894 44.0776 115.894 43.4333C115.894 42.9997 115.82 42.6342 115.671 42.3369C115.522 42.0395 115.306 41.8103 115.021 41.6493C114.736 41.4882 114.376 41.4077 113.943 41.4077H110.17V45.4962ZM120.204 52.0935V39.3448H126.597C127.539 39.3448 128.313 39.5121 128.92 39.8466C129.539 40.1811 130.004 40.6519 130.314 41.259C130.624 41.8661 130.778 42.5908 130.778 43.4333C130.778 44.2634 130.617 44.9882 130.295 45.6077C129.973 46.2271 129.49 46.7103 128.846 47.0572C128.214 47.3917 127.421 47.559 126.467 47.559H122.62V52.0935H120.204ZM122.62 45.4962H126.393C127.012 45.4962 127.489 45.3165 127.824 44.9572C128.17 44.5855 128.344 44.0776 128.344 43.4333C128.344 42.9997 128.27 42.6342 128.121 42.3369C127.972 42.0395 127.755 41.8103 127.47 41.6493C127.186 41.4882 126.826 41.4077 126.393 41.4077H122.62V45.4962ZM143.927 52.3165C143.221 52.3165 142.545 52.2422 141.901 52.0935C141.257 51.9324 140.687 51.6909 140.191 51.3687C139.696 51.0342 139.306 50.6254 139.021 50.1422C138.736 49.6466 138.593 49.0643 138.593 48.3953C138.593 48.3209 138.593 48.2466 138.593 48.1723C138.606 48.0979 138.612 48.0422 138.612 48.005H141.046C141.046 48.0298 141.04 48.0793 141.028 48.1537C141.028 48.2156 141.028 48.2714 141.028 48.3209C141.028 48.7298 141.145 49.0829 141.381 49.3802C141.616 49.6652 141.957 49.8882 142.403 50.0493C142.849 50.1979 143.375 50.2723 143.983 50.2723C144.391 50.2723 144.751 50.2475 145.06 50.1979C145.383 50.1484 145.655 50.0802 145.878 49.9935C146.114 49.8944 146.306 49.7829 146.454 49.659C146.603 49.5227 146.708 49.374 146.77 49.213C146.845 49.0519 146.882 48.8785 146.882 48.6926C146.882 48.3333 146.77 48.036 146.547 47.8006C146.324 47.5652 146.021 47.367 145.637 47.2059C145.265 47.0448 144.837 46.9024 144.354 46.7785C143.883 46.6422 143.394 46.5059 142.886 46.3696C142.391 46.2333 141.901 46.0723 141.418 45.8864C140.947 45.6882 140.52 45.4528 140.136 45.1802C139.764 44.9077 139.467 44.567 139.244 44.1581C139.021 43.7369 138.909 43.2351 138.909 42.6528C138.909 42.0581 139.033 41.5378 139.281 41.0917C139.541 40.6457 139.9 40.2802 140.359 39.9953C140.829 39.6979 141.375 39.4811 141.994 39.3448C142.614 39.1962 143.289 39.1218 144.02 39.1218C144.701 39.1218 145.339 39.1962 145.934 39.3448C146.541 39.4811 147.074 39.7041 147.532 40.0139C147.991 40.3112 148.35 40.6953 148.61 41.1661C148.87 41.6245 149 42.1758 149 42.8201V43.0431H146.603V42.8572C146.603 42.4979 146.491 42.1944 146.268 41.9466C146.058 41.6988 145.754 41.5068 145.358 41.3705C144.974 41.2342 144.522 41.1661 144.001 41.1661C143.444 41.1661 142.967 41.2218 142.57 41.3333C142.174 41.4324 141.87 41.5873 141.66 41.7979C141.449 41.9962 141.344 42.2439 141.344 42.5413C141.344 42.851 141.455 43.1112 141.678 43.3218C141.901 43.5324 142.198 43.7121 142.57 43.8608C142.954 44.0094 143.382 44.1457 143.852 44.2696C144.336 44.3935 144.825 44.5298 145.321 44.6785C145.829 44.8147 146.318 44.9758 146.789 45.1616C147.272 45.3475 147.699 45.5829 148.071 45.8678C148.455 46.1404 148.759 46.4811 148.982 46.89C149.205 47.2988 149.316 47.7882 149.316 48.3581C149.316 49.3121 149.081 50.0802 148.61 50.6625C148.152 51.2448 147.514 51.6661 146.696 51.9262C145.891 52.1864 144.968 52.3165 143.927 52.3165ZM154.687 52.0935V41.4262H150.617V39.3448H161.191V41.4262H157.103V52.0935H154.687ZM168.453 52.3165C167.127 52.3165 165.981 52.0811 165.015 51.6103C164.049 51.1271 163.305 50.3962 162.785 49.4174C162.277 48.4386 162.023 47.2059 162.023 45.7192C162.023 44.2201 162.277 42.9873 162.785 42.0209C163.305 41.0422 164.049 40.3174 165.015 39.8466C165.981 39.3634 167.127 39.1218 168.453 39.1218C169.791 39.1218 170.937 39.3634 171.891 39.8466C172.857 40.3174 173.595 41.0422 174.103 42.0209C174.623 42.9873 174.883 44.2201 174.883 45.7192C174.883 47.2059 174.623 48.4386 174.103 49.4174C173.595 50.3962 172.857 51.1271 171.891 51.6103C170.937 52.0811 169.791 52.3165 168.453 52.3165ZM168.453 50.2723C169.097 50.2723 169.661 50.1793 170.144 49.9935C170.64 49.8077 171.055 49.5351 171.389 49.1758C171.724 48.8041 171.978 48.3519 172.151 47.8192C172.325 47.274 172.411 46.6484 172.411 45.9422V45.5333C172.411 44.8147 172.325 44.1829 172.151 43.6378C171.978 43.0926 171.724 42.6404 171.389 42.2811C171.055 41.9094 170.64 41.6307 170.144 41.4448C169.661 41.259 169.097 41.1661 168.453 41.1661C167.809 41.1661 167.239 41.259 166.743 41.4448C166.26 41.6307 165.851 41.9094 165.517 42.2811C165.182 42.6404 164.928 43.0926 164.755 43.6378C164.594 44.1829 164.513 44.8147 164.513 45.5333V45.9422C164.513 46.6484 164.594 47.274 164.755 47.8192C164.928 48.3519 165.182 48.8041 165.517 49.1758C165.851 49.5351 166.26 49.8077 166.743 49.9935C167.239 50.1793 167.809 50.2723 168.453 50.2723ZM177.136 52.0935V39.3448H183.845C184.786 39.3448 185.567 39.5059 186.186 39.828C186.806 40.1501 187.27 40.6085 187.58 41.2032C187.89 41.7979 188.045 42.4979 188.045 43.3032C188.045 44.1333 187.859 44.8705 187.487 45.5147C187.116 46.1466 186.57 46.6236 185.852 46.9457L188.491 52.0935H185.852L183.51 47.3546H179.552V52.0935H177.136ZM179.552 45.3289H183.659C184.278 45.3289 184.755 45.1493 185.09 44.79C185.424 44.4307 185.592 43.9351 185.592 43.3032C185.592 42.8944 185.517 42.5537 185.369 42.2811C185.22 41.9962 185.003 41.7793 184.718 41.6307C184.433 41.482 184.08 41.4077 183.659 41.4077H179.552V45.3289ZM190.457 52.0935V39.3448H200.399V41.4077H192.873V44.5484H199.582V46.6112H192.873V50.0307H200.511V52.0935H190.457Z" fill="#040001"/>
<path d="M73.0036 16.1421C72.9267 16.0565 70.156 16.1758 67.745 18.7821C65.334 21.3861 65.7049 24.3731 65.7592 24.4497C65.8135 24.5263 69.197 24.6457 71.357 21.6159C73.517 18.5861 73.0805 16.2299 73.0036 16.1421ZM80.499 42.572C80.3904 42.3557 75.2404 39.7922 75.7199 34.8635C76.1994 29.9326 79.5084 28.581 79.5604 28.4346C79.6124 28.2881 78.2101 26.655 76.7241 25.8283C75.6331 25.2454 74.4256 24.9115 73.189 24.8507C72.9448 24.8439 72.0966 24.6367 70.3528 25.112C69.2038 25.4251 66.6141 26.4388 65.9017 26.4793C65.187 26.5198 63.0609 25.3034 60.7743 24.9813C59.3109 24.6997 57.7594 25.2764 56.6488 25.7202C55.5406 26.1617 53.4326 27.4186 51.958 30.7593C50.4833 34.0976 51.2546 39.3868 51.8064 41.0312C52.3583 42.6733 53.22 45.3652 54.6857 47.3295C55.9884 49.5461 57.7164 51.0846 58.4379 51.6072C59.1594 52.1298 61.195 52.4767 62.6063 51.7581C63.7417 51.0643 65.7908 50.6656 66.6005 50.6949C67.408 50.7242 69.0003 51.0418 70.631 51.909C71.9224 52.3528 73.1438 52.1681 74.3674 51.6725C75.591 51.1747 77.3619 49.287 79.4292 45.4598C80.214 43.6802 80.5714 42.7184 80.499 42.572Z" fill="#040001"/>
<path d="M73.0036 16.1421C72.9267 16.0565 70.156 16.1758 67.745 18.7821C65.334 21.3861 65.7049 24.3731 65.7592 24.4497C65.8135 24.5263 69.197 24.6457 71.357 21.6159C73.517 18.5861 73.0805 16.2299 73.0036 16.1421ZM80.499 42.572C80.3904 42.3557 75.2404 39.7922 75.7199 34.8635C76.1994 29.9326 79.5084 28.581 79.5604 28.4346C79.6124 28.2881 78.2101 26.655 76.7241 25.8283C75.6331 25.2454 74.4256 24.9115 73.189 24.8507C72.9448 24.8439 72.0966 24.6367 70.3528 25.112C69.2038 25.4251 66.6141 26.4388 65.9017 26.4793C65.187 26.5198 63.0609 25.3034 60.7743 24.9813C59.3109 24.6997 57.7594 25.2764 56.6488 25.7202C55.5406 26.1617 53.4326 27.4186 51.958 30.7593C50.4833 34.0976 51.2546 39.3868 51.8064 41.0312C52.3583 42.6733 53.22 45.3652 54.6857 47.3295C55.9884 49.5461 57.7164 51.0846 58.4379 51.6072C59.1594 52.1298 61.195 52.4767 62.6063 51.7581C63.7417 51.0643 65.7908 50.6656 66.6005 50.6949C67.408 50.7242 69.0003 51.0418 70.631 51.909C71.9224 52.3528 73.1438 52.1681 74.3674 51.6725C75.591 51.1747 77.3619 49.287 79.4292 45.4598C80.214 43.6802 80.5714 42.7184 80.499 42.572Z" fill="#040001"/>
</svg>
