<svg width="185" height="250" viewBox="0 0 185 250" fill="none" xmlns="http://www.w3.org/2000/svg">
<rect x="0.556641" y="199" width="183.999" height="50.7084" rx="3.62203" fill="#222222"/>
<path d="M68.0371 219.421L70.5716 213.005H71.7406L74.2845 219.421H73.3212L72.6946 217.831H69.5709L68.9537 219.421H68.0371ZM69.8608 217.073H72.3953L71.6191 215.063C71.6004 215.006 71.5723 214.929 71.5349 214.829C71.4975 214.729 71.457 214.62 71.4133 214.501C71.3697 214.377 71.326 214.252 71.2824 214.127C71.2387 213.996 71.1982 213.878 71.1608 213.772H71.1047C71.0611 213.897 71.0112 214.04 70.9551 214.202C70.8989 214.364 70.8428 214.523 70.7867 214.679C70.7306 214.829 70.6838 214.957 70.6464 215.063L69.8608 217.073ZM76.1549 219.421L74.3312 214.501H75.1916L76.0894 216.961C76.133 217.08 76.1829 217.229 76.239 217.41C76.2951 217.585 76.3513 217.765 76.4074 217.952C76.4697 218.133 76.5196 218.295 76.557 218.439H76.6038C76.6474 218.302 76.6973 218.143 76.7534 217.962C76.8095 217.775 76.8656 217.594 76.9217 217.419C76.9841 217.239 77.0371 217.086 77.0807 216.961L77.9692 214.501H78.8015L76.9779 219.421H76.1549ZM80.7107 219.533C80.5299 219.533 80.3491 219.511 80.1683 219.468C79.9875 219.424 79.8191 219.352 79.6633 219.252C79.5074 219.153 79.3827 219.016 79.2892 218.841C79.1957 218.66 79.1489 218.436 79.1489 218.168C79.1489 217.831 79.23 217.553 79.3921 217.335C79.5542 217.117 79.7786 216.949 80.0654 216.83C80.3585 216.705 80.7045 216.621 81.1035 216.578C81.5026 216.528 81.9359 216.503 82.4035 216.503V215.942C82.4035 215.761 82.3723 215.605 82.31 215.474C82.2476 215.343 82.1354 215.243 81.9733 215.175C81.8174 215.1 81.593 215.063 81.2999 215.063C81.0194 215.063 80.7949 215.1 80.6266 215.175C80.4645 215.243 80.3491 215.334 80.2805 215.446C80.2182 215.558 80.187 215.683 80.187 215.82V215.96H79.3921C79.3858 215.929 79.3827 215.898 79.3827 215.867C79.3827 215.836 79.3827 215.798 79.3827 215.755C79.3827 215.455 79.4638 215.206 79.6259 215.006C79.7942 214.801 80.028 214.648 80.3273 214.548C80.6266 214.442 80.9695 214.389 81.356 214.389C81.7675 214.389 82.1105 214.448 82.3848 214.567C82.6654 214.685 82.8742 214.854 83.0114 215.072C83.1548 215.29 83.2265 215.552 83.2265 215.858V218.523C83.2265 218.641 83.2546 218.726 83.3107 218.775C83.3668 218.819 83.4354 218.841 83.5164 218.841H83.8812V219.383C83.7939 219.421 83.6972 219.452 83.5912 219.477C83.4852 219.508 83.3637 219.524 83.2265 219.524C83.0644 219.524 82.9303 219.489 82.8243 219.421C82.7184 219.358 82.6373 219.271 82.5812 219.159C82.5251 219.04 82.4877 218.91 82.469 218.766H82.4035C82.2913 218.922 82.1479 219.059 81.9733 219.178C81.8049 219.29 81.6148 219.377 81.4028 219.439C81.1908 219.502 80.9601 219.533 80.7107 219.533ZM80.9165 218.841C81.116 218.841 81.303 218.81 81.4776 218.747C81.6584 218.685 81.8174 218.598 81.9546 218.486C82.0918 218.367 82.2009 218.227 82.2819 218.065C82.363 217.903 82.4035 217.725 82.4035 217.532V217.12C81.8985 217.12 81.4683 217.148 81.1129 217.204C80.7575 217.26 80.4832 217.36 80.2899 217.504C80.1028 217.647 80.0093 217.85 80.0093 218.111C80.0093 218.28 80.0467 218.417 80.1215 218.523C80.1964 218.629 80.3023 218.71 80.4395 218.766C80.5767 218.816 80.7357 218.841 80.9165 218.841ZM84.5725 213.576V212.659H85.3955V213.576H84.5725ZM84.5725 219.421V214.501H85.3955V219.421H84.5725ZM86.6731 219.421V212.659H87.4961V219.421H86.6731ZM90.0082 219.533C89.8274 219.533 89.6466 219.511 89.4658 219.468C89.285 219.424 89.1166 219.352 88.9608 219.252C88.8049 219.153 88.6802 219.016 88.5867 218.841C88.4931 218.66 88.4464 218.436 88.4464 218.168C88.4464 217.831 88.5274 217.553 88.6895 217.335C88.8516 217.117 89.0761 216.949 89.3629 216.83C89.6559 216.705 90.002 216.621 90.401 216.578C90.8 216.528 91.2334 216.503 91.701 216.503V215.942C91.701 215.761 91.6698 215.605 91.6075 215.474C91.5451 215.343 91.4329 215.243 91.2708 215.175C91.1149 215.1 90.8904 215.063 90.5974 215.063C90.3168 215.063 90.0924 215.1 89.924 215.175C89.7619 215.243 89.6466 215.334 89.578 215.446C89.5157 215.558 89.4845 215.683 89.4845 215.82V215.96H88.6895C88.6833 215.929 88.6802 215.898 88.6802 215.867C88.6802 215.836 88.6802 215.798 88.6802 215.755C88.6802 215.455 88.7612 215.206 88.9233 215.006C89.0917 214.801 89.3255 214.648 89.6248 214.548C89.924 214.442 90.267 214.389 90.6535 214.389C91.065 214.389 91.4079 214.448 91.6823 214.567C91.9628 214.685 92.1717 214.854 92.3089 215.072C92.4523 215.29 92.524 215.552 92.524 215.858V218.523C92.524 218.641 92.552 218.726 92.6081 218.775C92.6643 218.819 92.7328 218.841 92.8139 218.841H93.1786V219.383C93.0913 219.421 92.9947 219.452 92.8887 219.477C92.7827 219.508 92.6611 219.524 92.524 219.524C92.3619 219.524 92.2278 219.489 92.1218 219.421C92.0158 219.358 91.9348 219.271 91.8787 219.159C91.8226 219.04 91.7851 218.91 91.7664 218.766H91.701C91.5887 218.922 91.4453 219.059 91.2708 219.178C91.1024 219.29 90.9123 219.377 90.7003 219.439C90.4883 219.502 90.2576 219.533 90.0082 219.533ZM90.214 218.841C90.4135 218.841 90.6005 218.81 90.7751 218.747C90.9559 218.685 91.1149 218.598 91.2521 218.486C91.3892 218.367 91.4983 218.227 91.5794 218.065C91.6604 217.903 91.701 217.725 91.701 217.532V217.12C91.196 217.12 90.7657 217.148 90.4104 217.204C90.055 217.26 89.7806 217.36 89.5874 217.504C89.4003 217.647 89.3068 217.85 89.3068 218.111C89.3068 218.28 89.3442 218.417 89.419 218.523C89.4938 218.629 89.5998 218.71 89.737 218.766C89.8742 218.816 90.0332 218.841 90.214 218.841ZM96.208 219.533C95.8776 219.533 95.5814 219.468 95.3196 219.337C95.0577 219.199 94.8426 218.994 94.6743 218.719H94.6088L94.5246 219.421H93.87V212.659H94.693V215.119H94.7491C94.8613 214.944 94.9922 214.804 95.1419 214.698C95.2915 214.592 95.4599 214.514 95.6469 214.464C95.834 214.414 96.0335 214.389 96.2455 214.389C96.6258 214.389 96.9593 214.48 97.2461 214.66C97.533 214.841 97.7543 215.119 97.9102 215.493C98.0723 215.867 98.1533 216.344 98.1533 216.924C98.1533 217.535 98.0754 218.034 97.9195 218.42C97.7636 218.8 97.5423 219.081 97.2555 219.262C96.9687 219.443 96.6195 219.533 96.208 219.533ZM96.0116 218.813C96.2922 218.813 96.526 218.757 96.7131 218.645C96.9063 218.532 97.0529 218.348 97.1526 218.093C97.2524 217.831 97.3023 217.488 97.3023 217.064V216.868C97.3023 216.456 97.2555 216.123 97.162 215.867C97.0685 215.605 96.9251 215.415 96.7318 215.296C96.5385 215.172 96.2891 215.109 95.9836 215.109C95.809 215.109 95.6438 215.137 95.4879 215.194C95.332 215.25 95.1918 215.346 95.0671 215.483C94.9486 215.621 94.8551 215.805 94.7865 216.035C94.7241 216.266 94.693 216.55 94.693 216.886V217.036C94.693 217.423 94.7366 217.747 94.8239 218.009C94.9174 218.27 95.0608 218.47 95.2541 218.607C95.4536 218.744 95.7061 218.813 96.0116 218.813ZM99.1763 219.421V212.659H99.9993V219.421H99.1763ZM103.241 219.533C102.755 219.533 102.343 219.443 102.006 219.262C101.676 219.075 101.423 218.791 101.249 218.411C101.081 218.03 100.996 217.547 100.996 216.961C100.996 216.369 101.081 215.886 101.249 215.512C101.423 215.131 101.679 214.851 102.016 214.67C102.352 214.483 102.773 214.389 103.278 214.389C103.74 214.389 104.126 214.48 104.438 214.66C104.75 214.835 104.984 215.1 105.139 215.455C105.302 215.805 105.383 216.244 105.383 216.774V217.167H101.847C101.86 217.56 101.916 217.884 102.016 218.14C102.122 218.389 102.278 218.573 102.483 218.691C102.689 218.804 102.948 218.86 103.26 218.86C103.472 218.86 103.656 218.835 103.811 218.785C103.973 218.729 104.108 218.651 104.214 218.551C104.326 218.451 104.41 218.333 104.466 218.196C104.522 218.058 104.553 217.909 104.56 217.747H105.364C105.358 218.009 105.308 218.252 105.214 218.476C105.121 218.694 104.984 218.881 104.803 219.037C104.622 219.193 104.401 219.315 104.139 219.402C103.877 219.489 103.578 219.533 103.241 219.533ZM101.866 216.55H104.532C104.532 216.275 104.5 216.045 104.438 215.858C104.376 215.671 104.285 215.518 104.167 215.399C104.055 215.281 103.92 215.197 103.765 215.147C103.615 215.091 103.444 215.063 103.25 215.063C102.963 215.063 102.72 215.116 102.521 215.222C102.321 215.328 102.168 215.49 102.062 215.708C101.957 215.926 101.891 216.207 101.866 216.55ZM110.375 219.533C109.876 219.533 109.456 219.443 109.113 219.262C108.776 219.075 108.517 218.791 108.336 218.411C108.162 218.03 108.074 217.547 108.074 216.961C108.074 216.369 108.162 215.886 108.336 215.512C108.517 215.131 108.776 214.851 109.113 214.67C109.456 214.483 109.876 214.389 110.375 214.389C110.874 214.389 111.292 214.483 111.628 214.67C111.971 214.851 112.23 215.131 112.405 215.512C112.579 215.886 112.666 216.369 112.666 216.961C112.666 217.547 112.579 218.03 112.405 218.411C112.23 218.791 111.971 219.075 111.628 219.262C111.292 219.443 110.874 219.533 110.375 219.533ZM110.375 218.841C110.693 218.841 110.958 218.779 111.17 218.654C111.382 218.529 111.541 218.336 111.647 218.074C111.759 217.806 111.815 217.469 111.815 217.064V216.858C111.815 216.447 111.759 216.11 111.647 215.848C111.541 215.586 111.382 215.393 111.17 215.268C110.958 215.144 110.693 215.081 110.375 215.081C110.057 215.081 109.789 215.144 109.571 215.268C109.359 215.393 109.2 215.586 109.094 215.848C108.988 216.11 108.935 216.447 108.935 216.858V217.064C108.935 217.469 108.988 217.806 109.094 218.074C109.2 218.336 109.359 218.529 109.571 218.654C109.789 218.779 110.057 218.841 110.375 218.841ZM113.689 219.421V214.501H114.353L114.428 215.24H114.493C114.624 215.041 114.771 214.879 114.933 214.754C115.101 214.629 115.285 214.539 115.484 214.483C115.69 214.42 115.908 214.389 116.139 214.389C116.451 214.389 116.722 214.442 116.953 214.548C117.19 214.654 117.374 214.826 117.505 215.063C117.642 215.3 117.71 215.621 117.71 216.026V219.421H116.887V216.138C116.887 215.932 116.859 215.764 116.803 215.633C116.753 215.502 116.682 215.399 116.588 215.324C116.501 215.25 116.392 215.197 116.261 215.165C116.136 215.134 115.996 215.119 115.84 215.119C115.609 215.119 115.391 215.175 115.185 215.287C114.979 215.399 114.814 215.561 114.689 215.773C114.571 215.985 114.512 216.238 114.512 216.531V219.421H113.689ZM122.063 219.533C121.808 219.533 121.608 219.486 121.465 219.393C121.321 219.293 121.219 219.165 121.156 219.009C121.094 218.847 121.063 218.676 121.063 218.495V215.194H120.427V214.501H121.081L121.231 213.127H121.886V214.501H122.812V215.194H121.886V218.373C121.886 218.529 121.914 218.648 121.97 218.729C122.026 218.804 122.132 218.841 122.288 218.841H122.812V219.383C122.749 219.415 122.674 219.439 122.587 219.458C122.5 219.477 122.409 219.492 122.316 219.505C122.229 219.524 122.144 219.533 122.063 219.533ZM123.69 219.421V212.659H124.513V215.119H124.578C124.703 214.95 124.843 214.813 124.999 214.707C125.155 214.601 125.326 214.523 125.513 214.473C125.706 214.417 125.915 214.389 126.14 214.389C126.452 214.389 126.723 214.442 126.953 214.548C127.19 214.654 127.374 214.826 127.505 215.063C127.642 215.3 127.711 215.621 127.711 216.026V219.421H126.888V216.138C126.888 215.932 126.86 215.764 126.804 215.633C126.754 215.502 126.682 215.399 126.589 215.324C126.501 215.25 126.392 215.197 126.261 215.165C126.137 215.134 125.996 215.119 125.841 215.119C125.61 215.119 125.392 215.175 125.186 215.287C124.98 215.393 124.815 215.552 124.69 215.764C124.572 215.97 124.513 216.225 124.513 216.531V219.421H123.69ZM130.923 219.533C130.437 219.533 130.025 219.443 129.689 219.262C129.358 219.075 129.106 218.791 128.931 218.411C128.763 218.03 128.679 217.547 128.679 216.961C128.679 216.369 128.763 215.886 128.931 215.512C129.106 215.131 129.361 214.851 129.698 214.67C130.035 214.483 130.456 214.389 130.961 214.389C131.422 214.389 131.809 214.48 132.12 214.66C132.432 214.835 132.666 215.1 132.822 215.455C132.984 215.805 133.065 216.244 133.065 216.774V217.167H129.53C129.542 217.56 129.598 217.884 129.698 218.14C129.804 218.389 129.96 218.573 130.166 218.691C130.371 218.804 130.63 218.86 130.942 218.86C131.154 218.86 131.338 218.835 131.494 218.785C131.656 218.729 131.79 218.651 131.896 218.551C132.008 218.451 132.092 218.333 132.148 218.196C132.205 218.058 132.236 217.909 132.242 217.747H133.046C133.04 218.009 132.99 218.252 132.897 218.476C132.803 218.694 132.666 218.881 132.485 219.037C132.304 219.193 132.083 219.315 131.821 219.402C131.559 219.489 131.26 219.533 130.923 219.533ZM129.548 216.55H132.214C132.214 216.275 132.183 216.045 132.12 215.858C132.058 215.671 131.968 215.518 131.849 215.399C131.737 215.281 131.603 215.197 131.447 215.147C131.297 215.091 131.126 215.063 130.933 215.063C130.646 215.063 130.403 215.116 130.203 215.222C130.004 215.328 129.851 215.49 129.745 215.708C129.639 215.926 129.573 216.207 129.548 216.55Z" fill="white"/>
<path d="M68.039 237.079L71.6335 227.844H73.8413L77.4492 237.079H75.551L74.8106 235.114H70.5834L69.843 237.079H68.039ZM71.1353 233.633H74.2452L73.3163 231.129C73.2804 231.039 73.2355 230.927 73.1816 230.792C73.1368 230.649 73.0874 230.496 73.0335 230.335C72.9797 230.164 72.9259 229.994 72.872 229.823C72.8182 229.653 72.7688 229.5 72.7239 229.365H72.6566C72.6028 229.545 72.5354 229.751 72.4547 229.985C72.3829 230.218 72.3111 230.438 72.2393 230.644C72.1675 230.851 72.1091 231.012 72.0643 231.129L71.1353 233.633ZM78.5395 237.079V227.844H83.1705C83.8526 227.844 84.4136 227.965 84.8533 228.208C85.3021 228.45 85.6387 228.791 85.863 229.231C86.0874 229.671 86.1996 230.196 86.1996 230.806C86.1996 231.407 86.0829 231.932 85.8496 232.381C85.6162 232.83 85.2662 233.18 84.7995 233.431C84.3418 233.673 83.7674 233.795 83.0763 233.795H80.2896V237.079H78.5395ZM80.2896 232.3H83.0225C83.4712 232.3 83.8167 232.17 84.0591 231.91C84.3104 231.641 84.436 231.273 84.436 230.806C84.436 230.492 84.3822 230.227 84.2745 230.012C84.1668 229.796 84.0097 229.63 83.8033 229.513C83.5969 229.397 83.3366 229.338 83.0225 229.338H80.2896V232.3ZM87.5582 237.079V227.844H92.1893C92.8714 227.844 93.4323 227.965 93.8721 228.208C94.3209 228.45 94.6574 228.791 94.8818 229.231C95.1062 229.671 95.2184 230.196 95.2184 230.806C95.2184 231.407 95.1017 231.932 94.8683 232.381C94.635 232.83 94.285 233.18 93.8183 233.431C93.3605 233.673 92.7861 233.795 92.0951 233.795H89.3084V237.079H87.5582ZM89.3084 232.3H92.0412C92.49 232.3 92.8355 232.17 93.0778 231.91C93.3291 231.641 93.4548 231.273 93.4548 230.806C93.4548 230.492 93.4009 230.227 93.2932 230.012C93.1855 229.796 93.0285 229.63 92.822 229.513C92.6156 229.397 92.3553 229.338 92.0412 229.338H89.3084V232.3ZM104.743 237.241C104.232 237.241 103.742 237.187 103.276 237.079C102.809 236.963 102.396 236.788 102.037 236.554C101.678 236.312 101.395 236.016 101.189 235.666C100.983 235.307 100.879 234.885 100.879 234.4C100.879 234.346 100.879 234.293 100.879 234.239C100.888 234.185 100.893 234.145 100.893 234.118H102.656C102.656 234.136 102.652 234.171 102.643 234.225C102.643 234.27 102.643 234.311 102.643 234.346C102.643 234.643 102.728 234.898 102.899 235.114C103.069 235.32 103.316 235.482 103.639 235.598C103.962 235.706 104.344 235.76 104.784 235.76C105.08 235.76 105.34 235.742 105.564 235.706C105.798 235.67 105.995 235.621 106.157 235.558C106.327 235.486 106.466 235.406 106.574 235.316C106.682 235.217 106.758 235.109 106.803 234.993C106.857 234.876 106.884 234.75 106.884 234.616C106.884 234.355 106.803 234.14 106.641 233.97C106.48 233.799 106.26 233.655 105.982 233.539C105.712 233.422 105.403 233.319 105.053 233.229C104.712 233.13 104.357 233.032 103.989 232.933C103.63 232.834 103.276 232.718 102.926 232.583C102.585 232.439 102.275 232.269 101.997 232.071C101.728 231.874 101.512 231.627 101.351 231.331C101.189 231.026 101.108 230.662 101.108 230.24C101.108 229.81 101.198 229.433 101.378 229.11C101.566 228.786 101.826 228.522 102.158 228.315C102.499 228.1 102.894 227.943 103.343 227.844C103.792 227.736 104.281 227.683 104.81 227.683C105.304 227.683 105.766 227.736 106.197 227.844C106.637 227.943 107.023 228.104 107.355 228.329C107.687 228.544 107.947 228.822 108.136 229.163C108.324 229.496 108.418 229.895 108.418 230.362V230.523H106.682V230.389C106.682 230.128 106.601 229.908 106.439 229.729C106.287 229.549 106.067 229.41 105.78 229.312C105.502 229.213 105.174 229.163 104.797 229.163C104.393 229.163 104.048 229.204 103.76 229.285C103.473 229.356 103.253 229.469 103.101 229.621C102.948 229.765 102.872 229.944 102.872 230.16C102.872 230.384 102.953 230.573 103.114 230.725C103.276 230.878 103.491 231.008 103.76 231.115C104.039 231.223 104.348 231.322 104.689 231.412C105.039 231.501 105.394 231.6 105.753 231.708C106.121 231.807 106.475 231.923 106.816 232.058C107.166 232.192 107.476 232.363 107.745 232.569C108.023 232.767 108.243 233.014 108.405 233.31C108.566 233.606 108.647 233.961 108.647 234.373C108.647 235.064 108.477 235.621 108.136 236.043C107.804 236.465 107.341 236.77 106.749 236.958C106.166 237.147 105.497 237.241 104.743 237.241ZM112.538 237.079V229.352H109.589V227.844H117.25V229.352H114.288V237.079H112.538ZM122.51 237.241C121.55 237.241 120.72 237.07 120.019 236.729C119.319 236.379 118.781 235.85 118.404 235.141C118.036 234.432 117.852 233.539 117.852 232.462C117.852 231.376 118.036 230.483 118.404 229.783C118.781 229.074 119.319 228.549 120.019 228.208C120.72 227.858 121.55 227.683 122.51 227.683C123.479 227.683 124.31 227.858 125.001 228.208C125.701 228.549 126.235 229.074 126.603 229.783C126.98 230.483 127.168 231.376 127.168 232.462C127.168 233.539 126.98 234.432 126.603 235.141C126.235 235.85 125.701 236.379 125.001 236.729C124.31 237.07 123.479 237.241 122.51 237.241ZM122.51 235.76C122.977 235.76 123.385 235.693 123.735 235.558C124.094 235.423 124.395 235.226 124.637 234.966C124.879 234.696 125.063 234.369 125.189 233.983C125.315 233.588 125.378 233.135 125.378 232.623V232.327C125.378 231.807 125.315 231.349 125.189 230.954C125.063 230.559 124.879 230.231 124.637 229.971C124.395 229.702 124.094 229.5 123.735 229.365C123.385 229.231 122.977 229.163 122.51 229.163C122.043 229.163 121.631 229.231 121.272 229.365C120.921 229.5 120.625 229.702 120.383 229.971C120.141 230.231 119.957 230.559 119.831 230.954C119.714 231.349 119.656 231.807 119.656 232.327V232.623C119.656 233.135 119.714 233.588 119.831 233.983C119.957 234.369 120.141 234.696 120.383 234.966C120.625 235.226 120.921 235.423 121.272 235.558C121.631 235.693 122.043 235.76 122.51 235.76ZM128.8 237.079V227.844H133.66C134.342 227.844 134.907 227.961 135.356 228.194C135.805 228.427 136.142 228.76 136.366 229.19C136.59 229.621 136.702 230.128 136.702 230.712C136.702 231.313 136.568 231.847 136.299 232.314C136.029 232.771 135.634 233.117 135.114 233.35L137.026 237.079H135.114L133.418 233.646H130.55V237.079H128.8ZM130.55 232.179H133.525C133.974 232.179 134.32 232.049 134.562 231.789C134.804 231.528 134.925 231.169 134.925 230.712C134.925 230.415 134.872 230.169 134.764 229.971C134.656 229.765 134.499 229.608 134.293 229.5C134.086 229.392 133.831 229.338 133.525 229.338H130.55V232.179ZM138.45 237.079V227.844H145.652V229.338H140.2V231.614H145.06V233.108H140.2V235.585H145.733V237.079H138.45Z" fill="white"/>
<path d="M53.366 210.626C53.3103 210.564 51.3033 210.651 49.5567 212.539C47.8101 214.425 48.0788 216.589 48.1182 216.644C48.1575 216.7 50.6086 216.786 52.1733 214.591C53.738 212.397 53.4217 210.69 53.366 210.626ZM58.7958 229.772C58.7171 229.615 54.9864 227.759 55.3338 224.188C55.6811 220.616 58.0782 219.637 58.1158 219.531C58.1535 219.425 57.1377 218.242 56.0613 217.643C55.2709 217.221 54.3962 216.979 53.5004 216.935C53.3234 216.93 52.709 216.78 51.4458 217.124C50.6135 217.351 48.7375 218.085 48.2214 218.115C47.7036 218.144 46.1635 217.263 44.5071 217.029C43.447 216.825 42.3231 217.243 41.5186 217.565C40.7158 217.884 39.1887 218.795 38.1205 221.215C37.0522 223.633 37.6109 227.465 38.0107 228.656C38.4105 229.846 39.0347 231.796 40.0964 233.219C41.0402 234.824 42.2919 235.939 42.8146 236.317C43.3372 236.696 44.8118 236.947 45.8342 236.427C46.6567 235.924 48.1411 235.635 48.7277 235.656C49.3126 235.678 50.466 235.908 51.6473 236.536C52.5829 236.857 53.4676 236.724 54.354 236.365C55.2404 236.004 56.5233 234.637 58.0208 231.864C58.5893 230.575 58.8482 229.878 58.7958 229.772Z" fill="white"/>
<path d="M53.366 210.626C53.3103 210.564 51.3033 210.651 49.5567 212.539C47.8101 214.425 48.0788 216.589 48.1182 216.644C48.1575 216.7 50.6086 216.786 52.1733 214.591C53.738 212.397 53.4217 210.69 53.366 210.626ZM58.7958 229.772C58.7171 229.615 54.9864 227.759 55.3338 224.188C55.6811 220.616 58.0782 219.637 58.1158 219.531C58.1535 219.425 57.1377 218.242 56.0613 217.643C55.2709 217.221 54.3962 216.979 53.5004 216.935C53.3234 216.93 52.709 216.78 51.4458 217.124C50.6135 217.351 48.7375 218.085 48.2214 218.115C47.7036 218.144 46.1635 217.263 44.5071 217.029C43.447 216.825 42.3231 217.243 41.5186 217.565C40.7158 217.884 39.1887 218.795 38.1205 221.215C37.0522 223.633 37.6109 227.465 38.0107 228.656C38.4105 229.846 39.0347 231.796 40.0964 233.219C41.0402 234.824 42.2919 235.939 42.8146 236.317C43.3372 236.696 44.8118 236.947 45.8342 236.427C46.6567 235.924 48.1411 235.635 48.7277 235.656C49.3126 235.678 50.466 235.908 51.6473 236.536C52.5829 236.857 53.4676 236.724 54.354 236.365C55.2404 236.004 56.5233 234.637 58.0208 231.864C58.5893 230.575 58.8482 229.878 58.7958 229.772Z" fill="white"/>
<rect x="1.63574" y="0.4823" width="181.256" height="181.256" rx="9.71013" fill="white"/>
<path d="M16.3122 10.667H11.4512V25.2715H16.3122V10.667Z" fill="black"/>
<path d="M16.3122 25.2715H11.4512V44.737H16.3122V25.2715Z" fill="black"/>
<path d="M16.3122 49.6195H11.4512V69.085H16.3122V49.6195Z" fill="black"/>
<path d="M16.3122 73.9675H11.4512V78.8285H16.3122V73.9675Z" fill="black"/>
<path d="M16.3122 83.7111H11.4512V98.3156H16.3122V83.7111Z" fill="black"/>
<path d="M16.3122 103.177H11.4512V117.781H16.3122V103.177Z" fill="black"/>
<path d="M16.3122 117.781H11.4512V132.386H16.3122V117.781Z" fill="black"/>
<path d="M16.3122 137.247H11.4512V161.595H16.3122V137.247Z" fill="black"/>
<path d="M16.3122 161.595H11.4512V171.338H16.3122V161.595Z" fill="black"/>
<path d="M21.194 10.6671H16.333V15.5281H21.194V10.6671Z" fill="black"/>
<path d="M21.194 39.8761H16.333V44.7371H21.194V39.8761Z" fill="black"/>
<path d="M21.194 54.4805H16.333V69.085H21.194V54.4805Z" fill="black"/>
<path d="M21.194 73.9675H16.333V78.8285H21.194V73.9675Z" fill="black"/>
<path d="M21.194 88.572H16.333V93.433H21.194V88.572Z" fill="black"/>
<path d="M21.194 98.3156H16.333V112.92H21.194V98.3156Z" fill="black"/>
<path d="M21.194 137.247H16.333V142.108H21.194V137.247Z" fill="black"/>
<path d="M21.194 166.456H16.333V171.317H21.194V166.456Z" fill="black"/>
<path d="M26.0563 10.6671H21.1953V15.5281H26.0563V10.6671Z" fill="black"/>
<path d="M26.0563 20.4106H21.1953V25.2716H26.0563V20.4106Z" fill="black"/>
<path d="M26.0563 25.2715H21.1953V35.015H26.0563V25.2715Z" fill="black"/>
<path d="M26.0563 39.8759H21.1953V44.7369H26.0563V39.8759Z" fill="black"/>
<path d="M26.0563 49.6195H21.1953V54.4805H26.0563V49.6195Z" fill="black"/>
<path d="M26.0563 64.224H21.1953V69.085H26.0563V64.224Z" fill="black"/>
<path d="M26.0563 78.8286H21.1953V93.4331H26.0563V78.8286Z" fill="black"/>
<path d="M26.0563 103.177H21.1953V112.92H26.0563V103.177Z" fill="black"/>
<path d="M26.0563 117.781H21.1953V127.525H26.0563V117.781Z" fill="black"/>
<path d="M26.0563 137.246H21.1953V142.107H26.0563V137.246Z" fill="black"/>
<path d="M26.0563 146.99H21.1953V161.594H26.0563V146.99Z" fill="black"/>
<path d="M26.0563 166.456H21.1953V171.317H26.0563V166.456Z" fill="black"/>
<path d="M30.9167 10.6671H26.0557V15.5281H30.9167V10.6671Z" fill="black"/>
<path d="M30.9167 20.4106H26.0557V25.2716H30.9167V20.4106Z" fill="black"/>
<path d="M30.9167 25.2715H26.0557V35.015H30.9167V25.2715Z" fill="black"/>
<path d="M30.9167 39.8759H26.0557V44.7369H30.9167V39.8759Z" fill="black"/>
<path d="M30.9167 49.6195H26.0557V54.4805H30.9167V49.6195Z" fill="black"/>
<path d="M30.9167 69.0851H26.0557V78.8286H30.9167V69.0851Z" fill="black"/>
<path d="M30.9167 93.4331H26.0557V98.2941H30.9167V93.4331Z" fill="black"/>
<path d="M30.9167 108.038H26.0557V117.781H30.9167V108.038Z" fill="black"/>
<path d="M30.9167 117.781H26.0557V132.386H30.9167V117.781Z" fill="black"/>
<path d="M30.9167 137.246H26.0557V142.107H30.9167V137.246Z" fill="black"/>
<path d="M30.9167 146.99H26.0557V161.594H30.9167V146.99Z" fill="black"/>
<path d="M30.9167 166.456H26.0557V171.317H30.9167V166.456Z" fill="black"/>
<path d="M35.7985 10.6671H30.9375V15.528H35.7985V10.6671Z" fill="black"/>
<path d="M35.7985 20.4106H30.9375V25.2716H35.7985V20.4106Z" fill="black"/>
<path d="M35.7985 25.2715H30.9375V35.015H35.7985V25.2715Z" fill="black"/>
<path d="M35.7985 39.8759H30.9375V44.7369H35.7985V39.8759Z" fill="black"/>
<path d="M35.7985 49.6195H30.9375V54.4805H35.7985V49.6195Z" fill="black"/>
<path d="M35.7985 64.224H30.9375V73.9675H35.7985V64.224Z" fill="black"/>
<path d="M35.7985 78.8287H30.9375V83.6897H35.7985V78.8287Z" fill="black"/>
<path d="M35.7985 88.572H30.9375V93.433H35.7985V88.572Z" fill="black"/>
<path d="M35.7985 103.177H30.9375V112.92H35.7985V103.177Z" fill="black"/>
<path d="M35.7985 122.642H30.9375V127.503H35.7985V122.642Z" fill="black"/>
<path d="M35.7985 137.246H30.9375V142.107H35.7985V137.246Z" fill="black"/>
<path d="M35.7985 146.99H30.9375V161.594H35.7985V146.99Z" fill="black"/>
<path d="M35.7985 166.456H30.9375V171.317H35.7985V166.456Z" fill="black"/>
<path d="M40.6598 10.6671H35.7988V15.528H40.6598V10.6671Z" fill="black"/>
<path d="M40.6598 39.8761H35.7988V44.7371H40.6598V39.8761Z" fill="black"/>
<path d="M40.6598 49.6195H35.7988V59.363H40.6598V49.6195Z" fill="black"/>
<path d="M40.6598 64.2241H35.7988V69.0851H40.6598V64.2241Z" fill="black"/>
<path d="M40.6598 78.8286H35.7988V98.294H40.6598V78.8286Z" fill="black"/>
<path d="M40.6598 108.038H35.7988V117.781H40.6598V108.038Z" fill="black"/>
<path d="M40.6598 117.781H35.7988V127.525H40.6598V117.781Z" fill="black"/>
<path d="M40.6598 137.247H35.7988V142.108H40.6598V137.247Z" fill="black"/>
<path d="M40.6598 166.456H35.7988V171.317H40.6598V166.456Z" fill="black"/>
<path d="M45.5212 10.6671H40.6602V25.2716H45.5212V10.6671Z" fill="black"/>
<path d="M45.5212 25.2715H40.6602V44.737H45.5212V25.2715Z" fill="black"/>
<path d="M45.5212 49.6195H40.6602V54.4805H45.5212V49.6195Z" fill="black"/>
<path d="M45.5212 59.3631H40.6602V64.2241H45.5212V59.3631Z" fill="black"/>
<path d="M45.5212 69.0851H40.6602V73.9461H45.5212V69.0851Z" fill="black"/>
<path d="M45.5212 78.8286H40.6602V83.6896H45.5212V78.8286Z" fill="black"/>
<path d="M45.5212 88.572H40.6602V93.433H45.5212V88.572Z" fill="black"/>
<path d="M45.5212 98.3156H40.6602V103.177H45.5212V98.3156Z" fill="black"/>
<path d="M45.5212 108.038H40.6602V112.899H45.5212V108.038Z" fill="black"/>
<path d="M45.5212 117.781H40.6602V122.642H45.5212V117.781Z" fill="black"/>
<path d="M45.5212 127.525H40.6602V132.386H45.5212V127.525Z" fill="black"/>
<path d="M45.5212 137.246H40.6602V161.594H45.5212V137.246Z" fill="black"/>
<path d="M45.5212 161.594H40.6602V171.338H45.5212V161.594Z" fill="black"/>
<path d="M50.404 54.4807H45.543V64.2242H50.404V54.4807Z" fill="black"/>
<path d="M50.404 69.0851H45.543V73.9461H50.404V69.0851Z" fill="black"/>
<path d="M50.404 78.8287H45.543V108.038H50.404V78.8287Z" fill="black"/>
<path d="M50.404 112.92H45.543V117.781H50.404V112.92Z" fill="black"/>
<path d="M50.404 122.642H45.543V127.503H50.404V122.642Z" fill="black"/>
<path d="M55.2643 20.4105H50.4033V25.2715H55.2643V20.4105Z" fill="black"/>
<path d="M55.2643 25.2715H50.4033V49.6195H55.2643V25.2715Z" fill="black"/>
<path d="M55.2643 54.4805H50.4033V59.3415H55.2643V54.4805Z" fill="black"/>
<path d="M55.2643 69.0851H50.4033V73.9461H55.2643V69.0851Z" fill="black"/>
<path d="M55.2643 83.7111H50.4033V108.059H55.2643V83.7111Z" fill="black"/>
<path d="M55.2643 112.92H50.4033V117.781H55.2643V112.92Z" fill="black"/>
<path d="M55.2643 117.781H50.4033V137.247H55.2643V117.781Z" fill="black"/>
<path d="M55.2643 142.129H50.4033V161.595H55.2643V142.129Z" fill="black"/>
<path d="M55.2643 166.456H50.4033V171.317H55.2643V166.456Z" fill="black"/>
<path d="M60.1256 10.6671H55.2646V20.4106H60.1256V10.6671Z" fill="black"/>
<path d="M60.1256 44.7585H55.2646V49.6195H60.1256V44.7585Z" fill="black"/>
<path d="M60.1256 64.2241H55.2646V69.0851H60.1256V64.2241Z" fill="black"/>
<path d="M60.1256 73.9675H55.2646V88.572H60.1256V73.9675Z" fill="black"/>
<path d="M60.1256 93.4331H55.2646V98.2941H60.1256V93.4331Z" fill="black"/>
<path d="M60.1256 108.038H55.2646V117.781H60.1256V108.038Z" fill="black"/>
<path d="M60.1256 117.781H55.2646V122.642H60.1256V117.781Z" fill="black"/>
<path d="M60.1256 127.525H55.2646V132.386H60.1256V127.525Z" fill="black"/>
<path d="M60.1256 166.456H55.2646V171.317H60.1256V166.456Z" fill="black"/>
<path d="M65.0085 20.4105H60.1475V25.2715H65.0085V20.4105Z" fill="black"/>
<path d="M65.0085 30.1541H60.1475V35.0151H65.0085V30.1541Z" fill="black"/>
<path d="M65.0085 39.8761H60.1475V44.7371H65.0085V39.8761Z" fill="black"/>
<path d="M65.0085 59.3631H60.1475V73.9676H65.0085V59.3631Z" fill="black"/>
<path d="M65.0085 98.3156H60.1475V108.059H65.0085V98.3156Z" fill="black"/>
<path d="M65.0085 112.92H60.1475V117.781H65.0085V112.92Z" fill="black"/>
<path d="M65.0085 117.781H60.1475V127.525H65.0085V117.781Z" fill="black"/>
<path d="M65.0085 142.129H60.1475V161.595H65.0085V142.129Z" fill="black"/>
<path d="M65.0085 166.456H60.1475V171.317H65.0085V166.456Z" fill="black"/>
<path d="M69.8698 10.6671H65.0088V15.5281H69.8698V10.6671Z" fill="black"/>
<path d="M69.8698 20.4106H65.0088V25.2716H69.8698V20.4106Z" fill="black"/>
<path d="M69.8698 25.2715H65.0088V30.1325H69.8698V25.2715Z" fill="black"/>
<path d="M69.8698 35.0151H65.0088V39.8761H69.8698V35.0151Z" fill="black"/>
<path d="M69.8698 44.7586H65.0088V64.2241H69.8698V44.7586Z" fill="black"/>
<path d="M69.8698 78.8286H65.0088V88.5721H69.8698V78.8286Z" fill="black"/>
<path d="M69.8698 93.4331H65.0088V112.899H69.8698V93.4331Z" fill="black"/>
<path d="M69.8698 132.386H65.0088V137.247H69.8698V132.386Z" fill="black"/>
<path d="M69.8698 137.246H65.0088V151.851H69.8698V137.246Z" fill="black"/>
<path d="M69.8698 156.734H65.0088V161.595H69.8698V156.734Z" fill="black"/>
<path d="M69.8698 166.456H65.0088V171.317H69.8698V166.456Z" fill="black"/>
<path d="M74.7301 10.6671H69.8691V15.5281H74.7301V10.6671Z" fill="black"/>
<path d="M74.7301 25.2715H69.8691V30.1325H74.7301V25.2715Z" fill="black"/>
<path d="M74.7301 39.8761H69.8691V44.7371H74.7301V39.8761Z" fill="black"/>
<path d="M74.7301 78.8285H69.8691V93.433H74.7301V78.8285Z" fill="black"/>
<path d="M74.7301 108.038H69.8691V112.899H74.7301V108.038Z" fill="black"/>
<path d="M74.7301 122.642H69.8691V137.247H74.7301V122.642Z" fill="black"/>
<path d="M74.7301 137.247H69.8691V151.851H74.7301V137.247Z" fill="black"/>
<path d="M74.7301 166.456H69.8691V171.317H74.7301V166.456Z" fill="black"/>
<path d="M79.612 10.6671H74.751V25.2716H79.612V10.6671Z" fill="black"/>
<path d="M79.612 30.1541H74.751V39.8976H79.612V30.1541Z" fill="black"/>
<path d="M79.612 49.6195H74.751V54.4805H79.612V49.6195Z" fill="black"/>
<path d="M79.612 88.572H74.751V103.177H79.612V88.572Z" fill="black"/>
<path d="M79.612 112.92H74.751V117.781H79.612V112.92Z" fill="black"/>
<path d="M79.612 142.129H74.751V161.595H79.612V142.129Z" fill="black"/>
<path d="M84.4733 15.5495H79.6123V20.4105H84.4733V15.5495Z" fill="black"/>
<path d="M84.4733 25.2715H79.6123V30.1325H84.4733V25.2715Z" fill="black"/>
<path d="M84.4733 35.0151H79.6123V59.3631H84.4733V35.0151Z" fill="black"/>
<path d="M84.4733 64.2241H79.6123V69.0851H84.4733V64.2241Z" fill="black"/>
<path d="M84.4733 73.9675H79.6123V78.8285H84.4733V73.9675Z" fill="black"/>
<path d="M84.4733 88.572H79.6123V103.177H84.4733V88.572Z" fill="black"/>
<path d="M84.4733 127.525H79.6123V137.268H84.4733V127.525Z" fill="black"/>
<path d="M84.4733 146.99H79.6123V151.851H84.4733V146.99Z" fill="black"/>
<path d="M84.4733 156.734H79.6123V161.595H84.4733V156.734Z" fill="black"/>
<path d="M84.4733 161.595H79.6123V171.338H84.4733V161.595Z" fill="black"/>
<path d="M89.3346 15.5495H84.4736V25.293H89.3346V15.5495Z" fill="black"/>
<path d="M89.3346 25.2715H84.4736V39.876H89.3346V25.2715Z" fill="black"/>
<path d="M89.3346 44.7586H84.4736V54.5021H89.3346V44.7586Z" fill="black"/>
<path d="M89.3346 59.3631H84.4736V78.8286H89.3346V59.3631Z" fill="black"/>
<path d="M89.3346 98.3156H84.4736V117.781H89.3346V98.3156Z" fill="black"/>
<path d="M89.3346 117.781H84.4736V132.386H89.3346V117.781Z" fill="black"/>
<path d="M89.3346 137.246H84.4736V142.107H89.3346V137.246Z" fill="black"/>
<path d="M89.3346 151.851H84.4736V156.712H89.3346V151.851Z" fill="black"/>
<path d="M94.2174 25.2715H89.3564V30.1325H94.2174V25.2715Z" fill="black"/>
<path d="M94.2174 35.0151H89.3564V44.7586H94.2174V35.0151Z" fill="black"/>
<path d="M94.2174 49.6195H89.3564V59.363H94.2174V49.6195Z" fill="black"/>
<path d="M94.2174 73.9675H89.3564V78.8285H94.2174V73.9675Z" fill="black"/>
<path d="M94.2174 83.7111H89.3564V103.177H94.2174V83.7111Z" fill="black"/>
<path d="M94.2174 108.038H89.3564V112.899H94.2174V108.038Z" fill="black"/>
<path d="M94.2174 117.781H89.3564V122.642H94.2174V117.781Z" fill="black"/>
<path d="M94.2174 132.386H89.3564V137.247H94.2174V132.386Z" fill="black"/>
<path d="M94.2174 137.246H89.3564V146.99H94.2174V137.246Z" fill="black"/>
<path d="M94.2174 151.851H89.3564V156.712H94.2174V151.851Z" fill="black"/>
<path d="M94.2174 161.594H89.3564V166.455H94.2174V161.594Z" fill="black"/>
<path d="M99.0778 10.6671H94.2168V25.2716H99.0778V10.6671Z" fill="black"/>
<path d="M99.0778 30.1541H94.2168V35.0151H99.0778V30.1541Z" fill="black"/>
<path d="M99.0778 49.6195H94.2168V54.4805H99.0778V49.6195Z" fill="black"/>
<path d="M99.0778 73.9675H94.2168V83.711H99.0778V73.9675Z" fill="black"/>
<path d="M99.0778 88.572H94.2168V108.037H99.0778V88.572Z" fill="black"/>
<path d="M99.0778 127.525H94.2168V132.386H99.0778V127.525Z" fill="black"/>
<path d="M99.0778 156.734H94.2168V161.595H99.0778V156.734Z" fill="black"/>
<path d="M99.0778 166.456H94.2168V171.317H99.0778V166.456Z" fill="black"/>
<path d="M103.939 10.6671H99.0781V15.528H103.939V10.6671Z" fill="black"/>
<path d="M103.939 20.4105H99.0781V25.2715H103.939V20.4105Z" fill="black"/>
<path d="M103.939 30.1541H99.0781V35.0151H103.939V30.1541Z" fill="black"/>
<path d="M103.939 39.8761H99.0781V44.7371H103.939V39.8761Z" fill="black"/>
<path d="M103.939 49.6195H99.0781V64.224H103.939V49.6195Z" fill="black"/>
<path d="M103.939 69.0851H99.0781V73.9461H103.939V69.0851Z" fill="black"/>
<path d="M103.939 103.177H99.0781V108.038H103.939V103.177Z" fill="black"/>
<path d="M103.939 112.92H99.0781V117.781H103.939V112.92Z" fill="black"/>
<path d="M103.939 137.247H99.0781V142.108H103.939V137.247Z" fill="black"/>
<path d="M103.939 146.99H99.0781V151.851H103.939V146.99Z" fill="black"/>
<path d="M103.939 156.734H99.0781V161.595H103.939V156.734Z" fill="black"/>
<path d="M103.939 166.456H99.0781V171.317H103.939V166.456Z" fill="black"/>
<path d="M108.822 10.6671H103.961V15.5281H108.822V10.6671Z" fill="black"/>
<path d="M108.822 20.4105H103.961V25.2715H108.822V20.4105Z" fill="black"/>
<path d="M108.822 25.2715H103.961V30.1325H108.822V25.2715Z" fill="black"/>
<path d="M108.822 54.4805H103.961V59.3415H108.822V54.4805Z" fill="black"/>
<path d="M108.822 64.2241H103.961V69.0851H108.822V64.2241Z" fill="black"/>
<path d="M108.822 78.8285H103.961V98.294H108.822V78.8285Z" fill="black"/>
<path d="M108.822 103.177H103.961V112.92H108.822V103.177Z" fill="black"/>
<path d="M108.822 132.386H103.961V137.247H108.822V132.386Z" fill="black"/>
<path d="M108.822 156.734H103.961V161.595H108.822V156.734Z" fill="black"/>
<path d="M108.822 161.595H103.961V171.338H108.822V161.595Z" fill="black"/>
<path d="M113.683 10.6671H108.822V25.2716H113.683V10.6671Z" fill="black"/>
<path d="M113.683 25.2715H108.822V30.1325H113.683V25.2715Z" fill="black"/>
<path d="M113.683 35.0151H108.822V44.7586H113.683V35.0151Z" fill="black"/>
<path d="M113.683 54.4806H108.822V64.2241H113.683V54.4806Z" fill="black"/>
<path d="M113.683 73.9675H108.822V78.8285H113.683V73.9675Z" fill="black"/>
<path d="M113.683 83.7112H108.822V88.5722H113.683V83.7112Z" fill="black"/>
<path d="M113.683 93.4331H108.822V98.2941H113.683V93.4331Z" fill="black"/>
<path d="M113.683 103.177H108.822V112.92H113.683V103.177Z" fill="black"/>
<path d="M113.683 117.781H108.822V122.642H113.683V117.781Z" fill="black"/>
<path d="M113.683 137.246H108.822V146.99H113.683V137.246Z" fill="black"/>
<path d="M113.683 151.851H108.822V156.712H113.683V151.851Z" fill="black"/>
<path d="M113.683 161.594H108.822V166.455H113.683V161.594Z" fill="black"/>
<path d="M118.544 15.5495H113.683V20.4105H118.544V15.5495Z" fill="black"/>
<path d="M118.544 30.1541H113.683V39.8976H118.544V30.1541Z" fill="black"/>
<path d="M118.544 44.7585H113.683V49.6195H118.544V44.7585Z" fill="black"/>
<path d="M118.544 54.4805H113.683V88.5505H118.544V54.4805Z" fill="black"/>
<path d="M118.544 108.038H113.683V117.781H118.544V108.038Z" fill="black"/>
<path d="M118.544 117.781H113.683V127.525H118.544V117.781Z" fill="black"/>
<path d="M118.544 132.386H113.683V137.247H118.544V132.386Z" fill="black"/>
<path d="M118.544 137.247H113.683V151.851H118.544V137.247Z" fill="black"/>
<path d="M118.544 156.734H113.683V161.595H118.544V156.734Z" fill="black"/>
<path d="M118.544 161.595H113.683V166.456H118.544V161.595Z" fill="black"/>
<path d="M123.425 20.4105H118.564V25.2715H123.425V20.4105Z" fill="black"/>
<path d="M123.425 30.1541H118.564V35.0151H123.425V30.1541Z" fill="black"/>
<path d="M123.425 39.8761H118.564V59.3416H123.425V39.8761Z" fill="black"/>
<path d="M123.425 88.572H118.564V103.177H123.425V88.572Z" fill="black"/>
<path d="M123.425 108.038H118.564V112.899H123.425V108.038Z" fill="black"/>
<path d="M123.425 127.525H118.564V132.386H123.425V127.525Z" fill="black"/>
<path d="M123.425 142.129H118.564V146.99H123.425V142.129Z" fill="black"/>
<path d="M123.425 151.851H118.564V161.594H123.425V151.851Z" fill="black"/>
<path d="M123.425 166.456H118.564V171.317H123.425V166.456Z" fill="black"/>
<path d="M128.287 10.6671H123.426V15.5281H128.287V10.6671Z" fill="black"/>
<path d="M128.287 20.4106H123.426V25.2716H128.287V20.4106Z" fill="black"/>
<path d="M128.287 25.2715H123.426V30.1325H128.287V25.2715Z" fill="black"/>
<path d="M128.287 44.7586H123.426V49.6196H128.287V44.7586Z" fill="black"/>
<path d="M128.287 54.4806H123.426V59.3416H128.287V54.4806Z" fill="black"/>
<path d="M128.287 64.224H123.426V69.085H128.287V64.224Z" fill="black"/>
<path d="M128.287 73.9675H123.426V78.8285H128.287V73.9675Z" fill="black"/>
<path d="M128.287 93.4331H123.426V98.2941H128.287V93.4331Z" fill="black"/>
<path d="M128.287 117.781H123.426V137.247H128.287V117.781Z" fill="black"/>
<path d="M128.287 137.246H123.426V146.99H128.287V137.246Z" fill="black"/>
<path d="M133.147 15.5495H128.286V20.4105H133.147V15.5495Z" fill="black"/>
<path d="M133.147 25.2715H128.286V30.1325H133.147V25.2715Z" fill="black"/>
<path d="M133.147 35.0151H128.286V59.3631H133.147V35.0151Z" fill="black"/>
<path d="M133.147 64.224H128.286V73.9675H133.147V64.224Z" fill="black"/>
<path d="M133.147 78.8286H128.286V83.6896H133.147V78.8286Z" fill="black"/>
<path d="M133.147 98.3156H128.286V117.781H133.147V98.3156Z" fill="black"/>
<path d="M133.147 117.781H128.286V137.247H133.147V117.781Z" fill="black"/>
<path d="M133.147 137.246H128.286V161.594H133.147V137.246Z" fill="black"/>
<path d="M133.147 166.456H128.286V171.317H133.147V166.456Z" fill="black"/>
<path d="M138.031 64.224H133.17V73.9675H138.031V64.224Z" fill="black"/>
<path d="M138.031 78.8287H133.17V93.4332H138.031V78.8287Z" fill="black"/>
<path d="M138.031 98.3156H133.17V103.177H138.031V98.3156Z" fill="black"/>
<path d="M138.031 112.92H133.17V117.781H138.031V112.92Z" fill="black"/>
<path d="M138.031 122.642H133.17V132.385H138.031V122.642Z" fill="black"/>
<path d="M138.031 146.99H133.17V161.594H138.031V146.99Z" fill="black"/>
<path d="M142.891 10.6671H138.03V25.2716H142.891V10.6671Z" fill="black"/>
<path d="M142.891 25.2715H138.03V44.737H142.891V25.2715Z" fill="black"/>
<path d="M142.891 49.6195H138.03V64.224H142.891V49.6195Z" fill="black"/>
<path d="M142.891 73.9675H138.03V88.572H142.891V73.9675Z" fill="black"/>
<path d="M142.891 93.4331H138.03V98.2941H142.891V93.4331Z" fill="black"/>
<path d="M142.891 127.525H138.03V132.386H142.891V127.525Z" fill="black"/>
<path d="M142.891 137.247H138.03V142.108H142.891V137.247Z" fill="black"/>
<path d="M142.891 146.99H138.03V151.851H142.891V146.99Z" fill="black"/>
<path d="M142.891 156.734H138.03V161.595H142.891V156.734Z" fill="black"/>
<path d="M147.753 10.6671H142.892V15.528H147.753V10.6671Z" fill="black"/>
<path d="M147.753 39.8759H142.892V44.7369H147.753V39.8759Z" fill="black"/>
<path d="M147.753 49.6195H142.892V59.363H147.753V49.6195Z" fill="black"/>
<path d="M147.753 69.0851H142.892V73.9461H147.753V69.0851Z" fill="black"/>
<path d="M147.753 88.572H142.892V117.781H147.753V88.572Z" fill="black"/>
<path d="M147.753 122.642H142.892V132.385H147.753V122.642Z" fill="black"/>
<path d="M147.753 146.99H142.892V151.851H147.753V146.99Z" fill="black"/>
<path d="M147.753 156.734H142.892V161.595H147.753V156.734Z" fill="black"/>
<path d="M147.753 166.456H142.892V171.317H147.753V166.456Z" fill="black"/>
<path d="M152.635 10.6671H147.774V15.528H152.635V10.6671Z" fill="black"/>
<path d="M152.635 20.4105H147.774V25.2715H152.635V20.4105Z" fill="black"/>
<path d="M152.635 25.2715H147.774V35.015H152.635V25.2715Z" fill="black"/>
<path d="M152.635 39.8761H147.774V44.7371H152.635V39.8761Z" fill="black"/>
<path d="M152.635 49.6195H147.774V54.4805H152.635V49.6195Z" fill="black"/>
<path d="M152.635 59.3631H147.774V73.9676H152.635V59.3631Z" fill="black"/>
<path d="M152.635 78.8286H147.774V93.4331H152.635V78.8286Z" fill="black"/>
<path d="M152.635 98.3156H147.774V112.92H152.635V98.3156Z" fill="black"/>
<path d="M152.635 117.781H147.774V122.642H152.635V117.781Z" fill="black"/>
<path d="M152.635 127.525H147.774V137.268H152.635V127.525Z" fill="black"/>
<path d="M152.635 137.247H147.774V156.712H152.635V137.247Z" fill="black"/>
<path d="M152.635 161.595H147.774V166.456H152.635V161.595Z" fill="black"/>
<path d="M157.497 10.6671H152.636V15.528H157.497V10.6671Z" fill="black"/>
<path d="M157.497 20.4106H152.636V25.2716H157.497V20.4106Z" fill="black"/>
<path d="M157.497 25.2715H152.636V35.015H157.497V25.2715Z" fill="black"/>
<path d="M157.497 39.8759H152.636V44.7369H157.497V39.8759Z" fill="black"/>
<path d="M157.497 49.6195H152.636V59.363H157.497V49.6195Z" fill="black"/>
<path d="M157.497 64.224H152.636V98.294H157.497V64.224Z" fill="black"/>
<path d="M157.497 103.177H152.636V112.92H157.497V103.177Z" fill="black"/>
<path d="M157.497 122.642H152.636V132.385H157.497V122.642Z" fill="black"/>
<path d="M157.497 142.129H152.636V156.734H157.497V142.129Z" fill="black"/>
<path d="M157.497 161.594H152.636V171.338H157.497V161.594Z" fill="black"/>
<path d="M162.357 10.6671H157.496V15.528H162.357V10.6671Z" fill="black"/>
<path d="M162.357 20.4105H157.496V25.2715H162.357V20.4105Z" fill="black"/>
<path d="M162.357 25.2715H157.496V35.015H162.357V25.2715Z" fill="black"/>
<path d="M162.357 39.8761H157.496V44.7371H162.357V39.8761Z" fill="black"/>
<path d="M162.357 49.6195H157.496V69.085H162.357V49.6195Z" fill="black"/>
<path d="M162.357 83.7111H157.496V88.5721H162.357V83.7111Z" fill="black"/>
<path d="M162.357 93.4331H157.496V108.038H162.357V93.4331Z" fill="black"/>
<path d="M162.357 112.92H157.496V117.781H162.357V112.92Z" fill="black"/>
<path d="M162.357 122.642H157.496V127.503H162.357V122.642Z" fill="black"/>
<path d="M162.357 132.386H157.496V137.247H162.357V132.386Z" fill="black"/>
<path d="M162.357 137.247H157.496V146.99H162.357V137.247Z" fill="black"/>
<path d="M162.357 151.851H157.496V161.594H162.357V151.851Z" fill="black"/>
<path d="M162.357 161.595H157.496V166.456H162.357V161.595Z" fill="black"/>
<path d="M167.239 10.6671H162.378V15.5281H167.239V10.6671Z" fill="black"/>
<path d="M167.239 39.8761H162.378V44.7371H167.239V39.8761Z" fill="black"/>
<path d="M167.239 59.3631H162.378V64.2241H167.239V59.3631Z" fill="black"/>
<path d="M167.239 73.9675H162.378V83.711H167.239V73.9675Z" fill="black"/>
<path d="M167.239 93.4331H162.378V108.038H167.239V93.4331Z" fill="black"/>
<path d="M167.239 117.781H162.378V122.642H167.239V117.781Z" fill="black"/>
<path d="M167.239 132.386H162.378V137.247H167.239V132.386Z" fill="black"/>
<path d="M167.239 137.247H162.378V142.108H167.239V137.247Z" fill="black"/>
<path d="M167.239 146.99H162.378V151.851H167.239V146.99Z" fill="black"/>
<path d="M167.239 166.456H162.378V171.317H167.239V166.456Z" fill="black"/>
<path d="M172.101 10.6671H167.24V25.2716H172.101V10.6671Z" fill="black"/>
<path d="M172.101 25.2715H167.24V44.737H172.101V25.2715Z" fill="black"/>
<path d="M172.101 54.4806H167.24V59.3416H172.101V54.4806Z" fill="black"/>
<path d="M172.101 73.9675H167.24V78.8285H172.101V73.9675Z" fill="black"/>
<path d="M172.101 88.572H167.24V98.3155H172.101V88.572Z" fill="black"/>
<path d="M172.101 103.177H167.24V108.038H172.101V103.177Z" fill="black"/>
<path d="M172.101 112.92H167.24V117.781H172.101V112.92Z" fill="black"/>
<path d="M172.101 127.525H167.24V137.268H172.101V127.525Z" fill="black"/>
<path d="M172.101 151.851H167.24V156.712H172.101V151.851Z" fill="black"/>
</svg>
