<svg width="406" height="81" viewBox="0 0 406 81" fill="none" xmlns="http://www.w3.org/2000/svg">
<rect x="1.67615" y="1.88392" width="77.873" height="77.873" rx="8.52299" fill="#222222" stroke="white" stroke-width="1.88402"/>
<mask id="mask0_362_951" style="mask-type:alpha" maskUnits="userSpaceOnUse" x="2" y="2" width="77" height="77">
<rect x="2.93217" y="3.13993" width="75.3609" height="75.3609" rx="7.26697" fill="#222222" stroke="white" stroke-width="0.628008"/>
</mask>
<g mask="url(#mask0_362_951)">
<mask id="path-3-inside-1_362_951" fill="white">
<path fill-rule="evenodd" clip-rule="evenodd" d="M61.7217 23.6854L18.0156 32.8735L44.7998 56.3731L34.6201 58.5131L106.973 121.993L130.611 94.8658L108.47 75.5803L114.006 69.2262L61.7217 23.6854Z"/>
</mask>
<path fill-rule="evenodd" clip-rule="evenodd" d="M61.7217 23.6854L18.0156 32.8735L44.7998 56.3731L34.6201 58.5131L106.973 121.993L130.611 94.8658L108.47 75.5803L114.006 69.2262L61.7217 23.6854Z" fill="black"/>
<path d="M18.0156 32.8735L17.8864 32.2589L16.6574 32.5173L17.6014 33.3456L18.0156 32.8735ZM61.7217 23.6854L62.1342 23.2118L61.8984 23.0065L61.5925 23.0708L61.7217 23.6854ZM44.7998 56.3731L44.929 56.9877L46.158 56.7293L45.214 55.901L44.7998 56.3731ZM34.6201 58.5131L34.4909 57.8985L33.2619 58.1569L34.2059 58.9852L34.6201 58.5131ZM106.973 121.993L106.558 122.465L107.032 122.881L107.446 122.406L106.973 121.993ZM130.611 94.8658L131.084 95.2784L131.497 94.8048L131.023 94.3923L130.611 94.8658ZM108.47 75.5803L107.996 75.1677L107.583 75.6413L108.057 76.0539L108.47 75.5803ZM114.006 69.2262L114.48 69.6388L114.893 69.1652L114.419 68.7526L114.006 69.2262ZM18.1448 33.4881L61.8509 24.3L61.5925 23.0708L17.8864 32.2589L18.1448 33.4881ZM45.214 55.901L18.4298 32.4014L17.6014 33.3456L44.3856 56.8452L45.214 55.901ZM34.7493 59.1277L44.929 56.9877L44.6706 55.7585L34.4909 57.8985L34.7493 59.1277ZM107.387 121.521L35.0343 58.041L34.2059 58.9852L106.558 122.465L107.387 121.521ZM130.137 94.4532L106.499 121.58L107.446 122.406L131.084 95.2784L130.137 94.4532ZM108.057 76.0539L130.198 95.3394L131.023 94.3923L108.882 75.1068L108.057 76.0539ZM113.533 68.8136L107.996 75.1677L108.943 75.9929L114.48 69.6388L113.533 68.8136ZM61.3092 24.159L113.594 69.6998L114.419 68.7526L62.1342 23.2118L61.3092 24.159Z" fill="black" mask="url(#path-3-inside-1_362_951)"/>
</g>
<path d="M61.7207 23.6934H54.6113V23.6855H47.9437H45.6633H34.577H25.1399V23.6934L18.0146 33.0054H25.1399H34.577V52.1729V58.4517H45.6633V52.1729V33.0054H54.6113V32.9975L61.7207 23.6934Z" fill="#D00234"/>
<path d="M111.968 35.85H105.344V8.25153H111.968C116.265 8.25153 118.434 10.5383 118.434 15.0723V29.0292C118.434 33.5632 116.265 35.85 111.968 35.85ZM109.681 12.1942V31.9073H111.889C113.348 31.9073 114.097 31.0005 114.097 29.2263V14.8752C114.097 13.101 113.348 12.1942 111.889 12.1942H109.681ZM121.046 29.3052V14.7963C121.046 10.3806 123.372 7.85727 127.63 7.85727C131.888 7.85727 134.214 10.3806 134.214 14.7963V29.3052C134.214 33.721 131.888 36.2442 127.63 36.2442C123.372 36.2442 121.046 33.721 121.046 29.3052ZM129.877 29.5812V14.5203C129.877 12.7067 129.128 11.7999 127.63 11.7999C126.132 11.7999 125.382 12.7067 125.382 14.5203V29.5812C125.382 31.3948 126.132 32.3016 127.63 32.3016C129.128 32.3016 129.877 31.3948 129.877 29.5812ZM144.677 35.85H138.921L136.122 8.25153H140.301L142.272 29.8572L144.362 8.25153H149.093L151.183 29.8572L153.154 8.25153H156.9L154.1 35.85H148.699L146.688 16.8859L144.677 35.85ZM162.957 35.85H159.093V8.25153H164.455L168.832 24.7712V8.25153H172.695V35.85H168.319L162.957 15.7031V35.85ZM187.392 35.85H175.919V8.25153H180.256V31.9073H187.392V35.85ZM189.002 29.3052V14.7963C189.002 10.3806 191.328 7.85727 195.586 7.85727C199.844 7.85727 202.171 10.3806 202.171 14.7963V29.3052C202.171 33.721 199.844 36.2442 195.586 36.2442C191.328 36.2442 189.002 33.721 189.002 29.3052ZM197.834 29.5812V14.5203C197.834 12.7067 197.085 11.7999 195.586 11.7999C194.088 11.7999 193.339 12.7067 193.339 14.5203V29.5812C193.339 31.3948 194.088 32.3016 195.586 32.3016C197.085 32.3016 197.834 31.3948 197.834 29.5812ZM218.707 35.85H214.371L213.621 30.4486H208.614L207.865 35.85H203.844L208.338 8.25153H214.213L218.707 35.85ZM211.098 12.7856L209.166 26.7031H213.069L211.098 12.7856ZM227.398 35.85H220.774V8.25153H227.398C231.695 8.25153 233.863 10.5383 233.863 15.0723V29.0292C233.863 33.5632 231.695 35.85 227.398 35.85ZM225.111 12.1942V31.9073H227.319C228.777 31.9073 229.527 31.0005 229.527 29.2263V14.8752C229.527 13.101 228.777 12.1942 227.319 12.1942H225.111ZM250.833 35.85H246.496V12.1942H241.962V8.25153H255.367V12.1942H250.833V35.85ZM269.419 36.2442C265.2 36.2442 263.032 33.7604 263.032 29.3052V27.7281H267.132V29.6206C267.132 31.3948 267.881 32.3016 269.379 32.3016C270.917 32.3016 271.666 31.3948 271.666 29.5418C271.666 28.3984 271.39 27.4127 270.838 26.5454C270.326 25.678 269.34 24.6135 267.881 23.3518C266.107 21.7748 264.845 20.3554 264.096 19.0543C263.387 17.7533 263.032 16.3339 263.032 14.7175C263.032 10.3411 265.279 7.85727 269.498 7.85727C273.638 7.85727 275.806 10.3411 275.806 14.7963V15.9397H271.706V14.5203C271.706 12.7067 270.996 11.7999 269.537 11.7999C268.078 11.7999 267.329 12.6673 267.329 14.4415C267.329 15.4271 267.605 16.3734 268.157 17.2013C268.709 18.0293 269.695 19.0938 271.154 20.3554C272.967 21.9325 274.229 23.3912 274.899 24.6923C275.609 25.9934 275.964 27.4916 275.964 29.2263C275.964 33.7604 273.677 36.2442 269.419 36.2442ZM282.749 35.85H278.412V8.25153H284.799C289.096 8.25153 291.265 10.5383 291.265 15.0723V17.7927C291.265 22.3267 289.096 24.6135 284.799 24.6135H282.749V35.85ZM282.749 12.1942V20.6708H284.799C286.218 20.6708 286.928 19.9612 286.928 18.0687V14.7963C286.928 12.9038 286.218 12.1942 284.799 12.1942H282.749ZM293.266 29.3052V14.7963C293.266 10.3806 295.592 7.85727 299.851 7.85727C304.109 7.85727 306.435 10.3806 306.435 14.7963V29.3052C306.435 33.721 304.109 36.2442 299.851 36.2442C295.592 36.2442 293.266 33.721 293.266 29.3052ZM302.098 29.5812V14.5203C302.098 12.7067 301.349 11.7999 299.851 11.7999C298.352 11.7999 297.603 12.7067 297.603 14.5203V29.5812C297.603 31.3948 298.352 32.3016 299.851 32.3016C301.349 32.3016 302.098 31.3948 302.098 29.5812ZM313.705 35.85H309.368V8.25153H315.794C320.249 8.25153 322.221 10.3017 322.221 14.5992V16.2945C322.221 19.1726 321.274 20.9862 319.382 21.7353V21.8142C321.314 22.4056 322.26 24.3769 322.26 27.6493V32.4987C322.26 33.9969 322.418 35.1009 322.733 35.85H318.317C318.041 35.0614 317.923 33.9181 317.923 32.4593V27.4127C317.923 24.8894 317.214 24.0221 315.203 24.0221H313.705V35.85ZM313.705 12.1942V20.0794H315.282C317.016 20.0794 317.884 19.2515 317.884 17.1619V15.0329C317.884 13.1404 317.135 12.1942 315.676 12.1942H313.705ZM332.881 35.85H328.544V12.1942H324.01V8.25153H337.415V12.1942H332.881V35.85ZM345.153 36.2442C340.934 36.2442 338.766 33.7604 338.766 29.3052V27.7281H342.866V29.6206C342.866 31.3948 343.615 32.3016 345.114 32.3016C346.651 32.3016 347.4 31.3948 347.4 29.5418C347.4 28.3984 347.124 27.4127 346.572 26.5454C346.06 25.678 345.074 24.6135 343.615 23.3518C341.841 21.7748 340.579 20.3554 339.83 19.0543C339.121 17.7533 338.766 16.3339 338.766 14.7175C338.766 10.3411 341.013 7.85727 345.232 7.85727C349.372 7.85727 351.54 10.3411 351.54 14.7963V15.9397H347.44V14.5203C347.44 12.7067 346.73 11.7999 345.271 11.7999C343.812 11.7999 343.063 12.6673 343.063 14.4415C343.063 15.4271 343.339 16.3734 343.891 17.2013C344.443 18.0293 345.429 19.0938 346.888 20.3554C348.701 21.9325 349.963 23.3912 350.633 24.6923C351.343 25.9934 351.698 27.4916 351.698 29.2263C351.698 33.7604 349.411 36.2442 345.153 36.2442ZM374.141 35.85H369.804L369.055 30.4486H364.048L363.299 35.85H359.277L363.772 8.25153H369.647L374.141 35.85ZM366.532 12.7856L364.6 26.7031H368.503L366.532 12.7856ZM380.545 35.85H376.208V8.25153H382.595C386.892 8.25153 389.061 10.5383 389.061 15.0723V17.7927C389.061 22.3267 386.892 24.6135 382.595 24.6135H380.545V35.85ZM380.545 12.1942V20.6708H382.595C384.014 20.6708 384.724 19.9612 384.724 18.0687V14.7963C384.724 12.9038 384.014 12.1942 382.595 12.1942H380.545ZM395.714 35.85H391.378V8.25153H397.765C402.062 8.25153 404.231 10.5383 404.231 15.0723V17.7927C404.231 22.3267 402.062 24.6135 397.765 24.6135H395.714V35.85ZM395.714 12.1942V20.6708H397.765C399.184 20.6708 399.894 19.9612 399.894 18.0687V14.7963C399.894 12.9038 399.184 12.1942 397.765 12.1942H395.714ZM119.262 58.8429V62.7067H118.039V69.0543C118.039 71.4987 118.236 73.4306 118.591 74.85H114.727C114.53 74.574 114.412 73.746 114.373 72.445C113.505 74.298 112.007 75.2442 109.839 75.2442C106.606 75.2442 104.989 73.2729 104.989 69.3697V66.2945C104.989 63.2981 106.054 61.4056 108.183 60.6171V60.5382C106.133 59.7891 105.107 57.9361 105.107 54.9791V53.678C105.107 49.2623 107.315 46.8573 111.573 46.8573C115.831 46.8573 118.039 49.3017 118.039 53.7175V54.7425H114.018V53.3626C114.018 51.5884 113.269 50.721 111.731 50.721C110.154 50.721 109.366 51.6673 109.366 53.5597V55.8859C109.366 57.8966 110.193 58.8429 112.204 58.8429H119.262ZM113.86 68.3052V62.7067H112.125C110.272 62.7067 109.247 63.5346 109.247 66.255V69.0937C109.247 70.7102 109.917 71.4987 111.297 71.4987C112.993 71.4987 113.86 70.4342 113.86 68.3052ZM139.811 74.85H127.983V47.2515H139.811V51.1942H132.32V58.488H138.274V62.4307H132.32V70.9073H139.811V74.85ZM146.016 74.85H142.152V47.2515H147.514L151.891 63.7712V47.2515H155.754V74.85H151.378L146.016 54.7031V74.85ZM159.806 75.0077C159.017 75.0077 158.347 74.9683 157.795 74.85V70.9073C158.229 71.0256 158.702 71.065 159.214 71.065C160.91 71.065 161.777 70.1977 161.777 68.4235V47.2515H166.114V68.3052C166.114 72.7604 164.024 75.0077 159.806 75.0077ZM168.865 68.3052V53.7963C168.865 49.3806 171.192 46.8573 175.45 46.8573C179.708 46.8573 182.034 49.3806 182.034 53.7963V68.3052C182.034 72.721 179.708 75.2442 175.45 75.2442C171.192 75.2442 168.865 72.721 168.865 68.3052ZM177.697 68.5812V53.5203C177.697 51.7067 176.948 50.7999 175.45 50.7999C173.951 50.7999 173.202 51.7067 173.202 53.5203V68.5812C173.202 70.3948 173.951 71.3016 175.45 71.3016C176.948 71.3016 177.697 70.3948 177.697 68.5812ZM192.515 74.85H188.178V63.1009L182.934 47.2515H187.547L190.543 57.5418L193.54 47.2515H197.758L192.515 63.1009V74.85ZM217.817 74.85H205.989V47.2515H217.817V51.1942H210.326V58.488H216.279V62.4307H210.326V70.9073H217.817V74.85ZM223.19 74.85H219.09L224.097 60.7353L219.326 47.2515H223.9L226.857 56.2802L229.892 47.2515H233.993L229.222 60.7353L234.229 74.85H229.656L226.462 65.1117L223.19 74.85ZM235.359 68.4629V53.6386C235.359 49.3411 237.606 46.8573 241.746 46.8573C245.886 46.8573 248.133 49.3411 248.133 53.6386V56.5561H244.033V53.3626C244.033 51.6673 243.323 50.7999 241.864 50.7999C240.405 50.7999 239.696 51.6673 239.696 53.3626V68.7783C239.696 70.4737 240.405 71.3016 241.864 71.3016C243.323 71.3016 244.033 70.4737 244.033 68.7783V64.7568H248.133V68.4629C248.133 72.7604 245.886 75.2442 241.746 75.2442C237.606 75.2442 235.359 72.7604 235.359 68.4629ZM255.027 74.85H250.69V47.2515H255.027V74.85ZM266.003 74.85H261.666V51.1942H257.132V47.2515H270.537V51.1942H266.003V74.85ZM276.973 74.85H272.636V47.2515H276.973V74.85ZM284.085 74.85H280.221V47.2515H285.583L289.96 63.7712V47.2515H293.824V74.85H289.447L284.085 54.7031V74.85ZM296.732 68.3052V53.7963C296.732 49.3411 298.979 46.8573 303.197 46.8573C307.416 46.8573 309.663 49.3411 309.663 53.7963V56.1619H305.563V53.5203C305.563 51.7067 304.814 50.7999 303.316 50.7999C301.818 50.7999 301.068 51.7067 301.068 53.5203V68.6206C301.068 70.3948 301.818 71.3016 303.316 71.3016C304.814 71.3016 305.563 70.3948 305.563 68.6206V63.2192H303.395V59.2766H309.663V68.3052C309.663 72.7604 307.416 75.2442 303.197 75.2442C298.979 75.2442 296.732 72.7604 296.732 68.3052ZM318.485 68.3052V53.7963C318.485 49.3411 320.733 46.8573 324.951 46.8573C329.17 46.8573 331.417 49.3411 331.417 53.7963V56.1619H327.317V53.5203C327.317 51.7067 326.568 50.7999 325.07 50.7999C323.571 50.7999 322.822 51.7067 322.822 53.5203V68.6206C322.822 70.3948 323.571 71.3016 325.07 71.3016C326.568 71.3016 327.317 70.3948 327.317 68.6206V63.2192H325.148V59.2766H331.417V68.3052C331.417 72.7604 329.17 75.2442 324.951 75.2442C320.733 75.2442 318.485 72.7604 318.485 68.3052ZM347.921 74.85H343.584L342.835 69.4486H337.828L337.079 74.85H333.057L337.552 47.2515H343.426L347.921 74.85ZM340.312 51.7856L338.38 65.7031H342.283L340.312 51.7856ZM353.773 74.85H349.988V47.2515H356.099L358.977 67.2801L361.855 47.2515H367.966V74.85H363.866V53.954L360.633 74.85H357.005L353.773 53.954V74.85ZM383.03 74.85H371.202V47.2515H383.03V51.1942H375.539V58.488H381.493V62.4307H375.539V70.9073H383.03V74.85ZM391.086 75.2442C386.868 75.2442 384.699 72.7604 384.699 68.3052V66.7281H388.799V68.6206C388.799 70.3948 389.549 71.3016 391.047 71.3016C392.584 71.3016 393.333 70.3948 393.333 68.5418C393.333 67.3984 393.057 66.4127 392.506 65.5454C391.993 64.678 391.007 63.6135 389.549 62.3518C387.774 60.7748 386.513 59.3554 385.764 58.0543C385.054 56.7533 384.699 55.3339 384.699 53.7175C384.699 49.3411 386.946 46.8573 391.165 46.8573C395.305 46.8573 397.473 49.3411 397.473 53.7963V54.9397H393.373V53.5203C393.373 51.7067 392.663 50.7999 391.204 50.7999C389.746 50.7999 388.997 51.6673 388.997 53.4415C388.997 54.4271 389.273 55.3734 389.825 56.2013C390.377 57.0293 391.362 58.0938 392.821 59.3554C394.635 60.9325 395.896 62.3912 396.566 63.6923C397.276 64.9934 397.631 66.4916 397.631 68.2263C397.631 72.7604 395.344 75.2442 391.086 75.2442Z" fill="white"/>
</svg>
