<svg width="568" height="258" viewBox="0 0 568 258" fill="none" xmlns="http://www.w3.org/2000/svg">
<path d="M130.209 258V107.212L132.132 46.8192H127.324L59.8155 170.296V191.068L40.5823 173.374H207.334V214.918H10.5784V167.412L97.5126 12.1994H178.1V258H130.209Z" fill="#333333"/>
<path d="M484.047 258V107.212L485.97 46.8192H481.162L413.653 170.296V191.068L394.42 173.374H561.172V214.918H364.416V167.412L451.35 12.1994H531.937V258H484.047Z" fill="#333333"/>
<path d="M282 245C348.249 245 402 191.523 402 125.5C402 59.4771 348.249 6 282 6C215.751 6 162 59.4771 162 125.5C162 191.523 215.751 245 282 245Z" fill="url(#paint0_linear_43_10)" stroke="white" stroke-width="12"/>
<path d="M351 67.0265H327.088V67H304.663H296.993H259.706H227.965V67.0265L204 98.3644H227.965H259.706V162.869V184H296.993V162.869V98.3644H327.088V98.3379L351 67.0265Z" fill="white"/>
<defs>
<linearGradient id="paint0_linear_43_10" x1="281.384" y1="41.6751" x2="281.384" y2="356.973" gradientUnits="userSpaceOnUse">
<stop offset="0.242072" stop-color="#D00234"/>
<stop offset="0.834484" stop-color="#6A011B"/>
</linearGradient>
</defs>
</svg>
