<svg width="25" height="26" viewBox="0 0 25 26" fill="none" xmlns="http://www.w3.org/2000/svg">
<path d="M17.3828 16.8918H14.4531V25.6157C17.5601 25.1242 20.3676 23.4793 22.3154 21.0093C24.2631 18.5393 25.208 15.4256 24.9615 12.2897C24.715 9.15374 23.2952 6.22601 20.9854 4.09065C18.6756 1.95528 15.6456 0.769287 12.5 0.769287C9.35437 0.769287 6.32438 1.95528 4.01458 4.09065C1.70477 6.22601 0.284975 9.15374 0.0384648 12.2897C-0.208046 15.4256 0.736854 18.5393 2.68464 21.0093C4.63243 23.4793 7.43989 25.1242 10.5469 25.6157V16.8918H7.35678V13.2459H10.5469V10.3163C10.7205 6.45342 13.2378 4.97773 18.0989 5.88918V8.94907H16.4062C15.1476 8.99248 14.4965 9.64352 14.4531 10.9022V13.2459H17.9362" fill="#1877F2"/>
</svg>
