<svg width="183" height="250" viewBox="0 0 183 250" fill="none" xmlns="http://www.w3.org/2000/svg">
<rect x="1.91904" y="200.09" width="179.076" height="48.8198" rx="2.54319" fill="white" stroke="white" stroke-width="2.17988"/>
<path d="M28.5062 210.369C28.2398 210.703 28.04 211.238 28.04 211.907V235.641C28.04 236.31 28.2398 236.844 28.5062 237.179L28.5728 237.246L41.8244 223.941V223.674L28.6394 210.302L28.5062 210.369Z" fill="#5BC9F4"/>
<path d="M41.891 223.941V223.807V223.674L46.286 219.261L46.3526 219.328L51.6133 222.337C53.0783 223.206 53.0783 224.61 51.6133 225.412L46.3526 228.42L41.891 223.941Z" fill="url(#paint0_linear_1047_3102)"/>
<path d="M46.4192 228.354L41.891 223.807L28.5728 237.179C29.0389 237.714 29.9046 237.78 30.7703 237.246L46.4192 228.354Z" fill="url(#paint1_linear_1047_3102)"/>
<path d="M46.4192 219.261L30.7703 210.302C29.838 209.834 29.0389 209.901 28.5062 210.369L41.8244 223.741L46.4192 219.261Z" fill="url(#paint2_linear_1047_3102)"/>
<path d="M63.5904 220.825C62.3842 220.825 61.465 220.509 60.8329 219.877C60.208 219.245 59.8955 218.271 59.8955 216.956C59.8955 216.099 60.0408 215.383 60.3315 214.809C60.6221 214.235 61.0509 213.806 61.6176 213.523C62.1844 213.232 62.8747 213.087 63.6885 213.087C64.1971 213.087 64.6586 213.141 65.0727 213.25C65.4869 213.359 65.843 213.526 66.1409 213.752C66.4461 213.97 66.6786 214.246 66.8384 214.58C67.0056 214.914 67.0891 215.31 67.0891 215.768H66.0319C66.0319 215.448 65.9737 215.176 65.8575 214.951C65.7412 214.718 65.5741 214.529 65.3561 214.384C65.1454 214.239 64.8983 214.137 64.615 214.079C64.3316 214.013 64.03 213.981 63.7103 213.981C63.2743 213.981 62.8856 214.035 62.5441 214.144C62.2026 214.253 61.9155 214.424 61.683 214.656C61.4505 214.889 61.2725 215.187 61.149 215.55C61.0254 215.913 60.9637 216.346 60.9637 216.847V217.076C60.9637 217.752 61.0654 218.3 61.2688 218.722C61.4796 219.143 61.7811 219.452 62.1735 219.648C62.5659 219.837 63.0382 219.932 63.5904 219.932C64.1499 219.932 64.6113 219.855 64.9746 219.703C65.3379 219.543 65.6068 219.303 65.7812 218.983C65.9628 218.664 66.0537 218.26 66.0537 217.774V217.643H63.416V216.76H67.1V220.695H66.3153L66.2063 219.746C66.0101 220.001 65.7776 220.208 65.5087 220.368C65.2399 220.527 64.9419 220.644 64.615 220.716C64.2952 220.789 63.9537 220.825 63.5904 220.825ZM68.8973 220.695V213.218H74.6522V214.111H69.9327V216.422H74.1726V217.316H69.9327V219.801H74.7176V220.695H68.8973ZM78.1046 220.695V214.122H75.5433V213.218H81.7232V214.122H79.1401V220.695H78.1046ZM85.1612 220.695V213.218H86.1967V220.695H85.1612ZM89.8981 220.695V214.122H87.3368V213.218H93.5167V214.122H90.9336V220.695H89.8981ZM100.312 220.825C99.5342 220.825 98.8657 220.684 98.3062 220.4C97.754 220.117 97.3253 219.688 97.0201 219.114C96.7222 218.54 96.5732 217.821 96.5732 216.956C96.5732 216.084 96.7222 215.365 97.0201 214.798C97.3253 214.224 97.754 213.795 98.3062 213.512C98.8657 213.229 99.5342 213.087 100.312 213.087C101.089 213.087 101.754 213.229 102.306 213.512C102.866 213.795 103.295 214.224 103.592 214.798C103.898 215.365 104.05 216.084 104.05 216.956C104.05 217.821 103.898 218.54 103.592 219.114C103.295 219.688 102.866 220.117 102.306 220.4C101.754 220.684 101.089 220.825 100.312 220.825ZM100.312 219.932C100.719 219.932 101.086 219.877 101.413 219.768C101.747 219.659 102.027 219.488 102.252 219.256C102.484 219.016 102.662 218.718 102.786 218.362C102.909 217.999 102.971 217.57 102.971 217.076V216.847C102.971 216.346 102.909 215.917 102.786 215.561C102.662 215.198 102.484 214.9 102.252 214.667C102.027 214.427 101.747 214.253 101.413 214.144C101.086 214.035 100.719 213.981 100.312 213.981C99.8975 213.981 99.527 214.035 99.2 214.144C98.873 214.253 98.5933 214.427 98.3607 214.667C98.1282 214.9 97.9502 215.198 97.8267 215.561C97.7104 215.917 97.6523 216.346 97.6523 216.847V217.076C97.6523 217.57 97.7104 217.999 97.8267 218.362C97.9502 218.718 98.1282 219.016 98.3607 219.256C98.5933 219.488 98.873 219.659 99.2 219.768C99.527 219.877 99.8975 219.932 100.312 219.932ZM105.544 220.695V213.218H106.547L110.177 218.144C110.213 218.188 110.26 218.253 110.318 218.34C110.376 218.428 110.435 218.515 110.493 218.602C110.551 218.682 110.598 218.754 110.634 218.82H110.678C110.678 218.704 110.678 218.591 110.678 218.482C110.678 218.366 110.678 218.253 110.678 218.144V213.218H111.692V220.695H110.743L107.07 215.681C107.019 215.601 106.943 215.488 106.841 215.343C106.747 215.198 106.667 215.081 106.602 214.994H106.547C106.547 215.11 106.547 215.227 106.547 215.343C106.547 215.452 106.547 215.565 106.547 215.681V220.695H105.544Z" fill="black"/>
<path d="M63.4706 236.222C61.9302 236.222 60.7337 235.81 59.8811 234.986C59.0285 234.153 58.6023 232.845 58.6023 231.063C58.6023 229.89 58.8009 228.926 59.1981 228.171C59.605 227.405 60.1863 226.839 60.942 226.47C61.7074 226.093 62.6229 225.904 63.6886 225.904C64.3281 225.904 64.9287 225.976 65.4907 226.122C66.0526 226.267 66.5467 226.49 66.973 226.79C67.409 227.081 67.7481 227.449 67.9903 227.895C68.2325 228.34 68.3536 228.868 68.3536 229.479H66.4062C66.4062 229.159 66.3336 228.878 66.1882 228.636C66.0526 228.384 65.8588 228.176 65.6069 228.011C65.3647 227.836 65.0838 227.71 64.764 227.633C64.4443 227.546 64.1052 227.502 63.7468 227.502C63.2139 227.502 62.744 227.575 62.3371 227.72C61.9399 227.856 61.6056 228.069 61.3344 228.36C61.0728 228.641 60.8742 228.994 60.7385 229.42C60.6126 229.847 60.5496 230.346 60.5496 230.917V231.223C60.5496 232.007 60.661 232.652 60.8839 233.155C61.1067 233.659 61.4409 234.032 61.8866 234.274C62.342 234.507 62.9039 234.623 63.5724 234.623C64.144 234.623 64.6429 234.536 65.0692 234.362C65.5052 234.187 65.8443 233.935 66.0865 233.606C66.3384 233.267 66.4643 232.855 66.4643 232.371V232.269H63.2817V230.699H68.3536V236.047H67.002L66.8422 234.943C66.5515 235.233 66.2415 235.476 65.9121 235.669C65.5827 235.854 65.2194 235.989 64.8222 236.076C64.4249 236.173 63.9744 236.222 63.4706 236.222ZM75.0523 236.222C74.0156 236.222 73.1194 236.038 72.3638 235.669C71.6081 235.292 71.0268 234.72 70.6198 233.955C70.2226 233.189 70.024 232.225 70.024 231.063C70.024 229.89 70.2226 228.926 70.6198 228.171C71.0268 227.405 71.6081 226.839 72.3638 226.47C73.1194 226.093 74.0156 225.904 75.0523 225.904C76.0986 225.904 76.9948 226.093 77.7408 226.47C78.4965 226.839 79.0729 227.405 79.4702 228.171C79.8771 228.926 80.0805 229.89 80.0805 231.063C80.0805 232.225 79.8771 233.189 79.4702 233.955C79.0729 234.72 78.4965 235.292 77.7408 235.669C76.9948 236.038 76.0986 236.222 75.0523 236.222ZM75.0523 234.623C75.5561 234.623 75.9969 234.55 76.3747 234.405C76.7623 234.26 77.0868 234.047 77.3484 233.766C77.61 233.475 77.8086 233.121 77.9442 232.705C78.0799 232.279 78.1477 231.789 78.1477 231.237V230.917C78.1477 230.355 78.0799 229.861 77.9442 229.435C77.8086 229.009 77.61 228.655 77.3484 228.374C77.0868 228.083 76.7623 227.865 76.3747 227.72C75.9969 227.575 75.5561 227.502 75.0523 227.502C74.5485 227.502 74.1028 227.575 73.7153 227.72C73.3374 227.865 73.0177 228.083 72.7561 228.374C72.4945 228.655 72.2959 229.009 72.1603 229.435C72.0343 229.861 71.9714 230.355 71.9714 230.917V231.237C71.9714 231.789 72.0343 232.279 72.1603 232.705C72.2959 233.121 72.4945 233.475 72.7561 233.766C73.0177 234.047 73.3374 234.26 73.7153 234.405C74.1028 234.55 74.5485 234.623 75.0523 234.623ZM86.42 236.222C85.3833 236.222 84.4872 236.038 83.7315 235.669C82.9758 235.292 82.3945 234.72 81.9876 233.955C81.5903 233.189 81.3917 232.225 81.3917 231.063C81.3917 229.89 81.5903 228.926 81.9876 228.171C82.3945 227.405 82.9758 226.839 83.7315 226.47C84.4872 226.093 85.3833 225.904 86.42 225.904C87.4663 225.904 88.3625 226.093 89.1085 226.47C89.8642 226.839 90.4406 227.405 90.8379 228.171C91.2448 228.926 91.4482 229.89 91.4482 231.063C91.4482 232.225 91.2448 233.189 90.8379 233.955C90.4406 234.72 89.8642 235.292 89.1085 235.669C88.3625 236.038 87.4663 236.222 86.42 236.222ZM86.42 234.623C86.9238 234.623 87.3646 234.55 87.7424 234.405C88.13 234.26 88.4545 234.047 88.7161 233.766C88.9777 233.475 89.1763 233.121 89.312 232.705C89.4476 232.279 89.5154 231.789 89.5154 231.237V230.917C89.5154 230.355 89.4476 229.861 89.312 229.435C89.1763 229.009 88.9777 228.655 88.7161 228.374C88.4545 228.083 88.13 227.865 87.7424 227.72C87.3646 227.575 86.9238 227.502 86.42 227.502C85.9162 227.502 85.4705 227.575 85.083 227.72C84.7051 227.865 84.3854 228.083 84.1238 228.374C83.8623 228.655 83.6636 229.009 83.528 229.435C83.4021 229.861 83.3391 230.355 83.3391 230.917V231.237C83.3391 231.789 83.4021 232.279 83.528 232.705C83.6636 233.121 83.8623 233.475 84.1238 233.766C84.3854 234.047 84.7051 234.26 85.083 234.405C85.4705 234.55 85.9162 234.623 86.42 234.623ZM97.7441 236.222C96.2037 236.222 95.0071 235.81 94.1546 234.986C93.302 234.153 92.8757 232.845 92.8757 231.063C92.8757 229.89 93.0743 228.926 93.4715 228.171C93.8785 227.405 94.4598 226.839 95.2154 226.47C95.9808 226.093 96.8964 225.904 97.9621 225.904C98.6015 225.904 99.2022 225.976 99.7641 226.122C100.326 226.267 100.82 226.49 101.246 226.79C101.682 227.081 102.022 227.449 102.264 227.895C102.506 228.34 102.627 228.868 102.627 229.479H100.68C100.68 229.159 100.607 228.878 100.462 228.636C100.326 228.384 100.132 228.176 99.8804 228.011C99.6382 227.836 99.3572 227.71 99.0375 227.633C98.7178 227.546 98.3787 227.502 98.0202 227.502C97.4874 227.502 97.0175 227.575 96.6106 227.72C96.2133 227.856 95.8791 228.069 95.6078 228.36C95.3462 228.641 95.1476 228.994 95.012 229.42C94.886 229.847 94.8231 230.346 94.8231 230.917V231.223C94.8231 232.007 94.9345 232.652 95.1573 233.155C95.3801 233.659 95.7144 234.032 96.1601 234.274C96.6154 234.507 97.1773 234.623 97.8458 234.623C98.4174 234.623 98.9164 234.536 99.3427 234.362C99.7787 234.187 100.118 233.935 100.36 233.606C100.612 233.267 100.738 232.855 100.738 232.371V232.269H97.5552V230.699H102.627V236.047H101.276L101.116 234.943C100.825 235.233 100.515 235.476 100.186 235.669C99.8562 235.854 99.4928 235.989 99.0956 236.076C98.6984 236.173 98.2479 236.222 97.7441 236.222ZM104.748 236.047V226.078H106.637V234.405H111.636V236.047H104.748ZM113.036 236.047V226.078H120.811V227.691H114.925V230.147H120.172V231.76H114.925V234.434H120.898V236.047H113.036ZM125.709 236.047V226.078H130.709C131.445 226.078 132.05 226.209 132.525 226.47C133.01 226.732 133.373 227.1 133.615 227.575C133.857 228.05 133.978 228.616 133.978 229.275C133.978 229.924 133.852 230.491 133.601 230.975C133.349 231.46 132.971 231.838 132.467 232.109C131.973 232.371 131.353 232.501 130.607 232.501H127.599V236.047H125.709ZM127.599 230.888H130.549C131.033 230.888 131.406 230.748 131.668 230.467C131.939 230.176 132.075 229.779 132.075 229.275C132.075 228.936 132.017 228.65 131.9 228.418C131.784 228.185 131.614 228.006 131.392 227.88C131.169 227.754 130.888 227.691 130.549 227.691H127.599V230.888ZM135.445 236.047V226.078H137.334V234.405H142.333V236.047H135.445ZM142.701 236.047L146.582 226.078H148.965L152.86 236.047H150.81L150.011 233.926H145.448L144.649 236.047H142.701ZM146.044 232.327H149.401L148.398 229.624C148.359 229.527 148.311 229.406 148.253 229.261C148.204 229.106 148.151 228.941 148.093 228.767C148.035 228.582 147.977 228.398 147.919 228.214C147.86 228.03 147.807 227.865 147.759 227.72H147.686C147.628 227.914 147.555 228.137 147.468 228.389C147.39 228.641 147.313 228.878 147.235 229.101C147.158 229.324 147.095 229.498 147.047 229.624L146.044 232.327ZM155.75 236.047V231.993L151.914 226.078H154.093L156.724 230.292H156.797L159.398 226.078H161.461L157.639 231.993V236.047H155.75Z" fill="black"/>
<rect x="0.829102" y="0.482178" width="181.256" height="181.256" rx="9.71013" fill="white"/>
<path d="M16.4498 11.2714H11.6182V25.7875H16.4498V11.2714Z" fill="black"/>
<path d="M16.4498 25.7879H11.6182V45.1356H16.4498V25.7879Z" fill="black"/>
<path d="M16.4498 49.9882H11.6182V69.3359H16.4498V49.9882Z" fill="black"/>
<path d="M16.4498 74.1678H11.6182V78.9994H16.4498V74.1678Z" fill="black"/>
<path d="M16.4498 83.8522H11.6182V88.6838H16.4498V83.8522Z" fill="black"/>
<path d="M16.4498 93.5367H11.6182V98.3683H16.4498V93.5367Z" fill="black"/>
<path d="M16.4498 103.2H11.6182V108.032H16.4498V103.2Z" fill="black"/>
<path d="M16.4498 112.884H11.6182V117.716H16.4498V112.884Z" fill="black"/>
<path d="M16.4498 117.716H11.6182V132.232H16.4498V117.716Z" fill="black"/>
<path d="M16.4498 137.085H11.6182V161.286H16.4498V137.085Z" fill="black"/>
<path d="M16.4498 161.265H11.6182V170.949H16.4498V161.265Z" fill="black"/>
<path d="M21.2818 11.2714H16.4502V16.103H21.2818V11.2714Z" fill="black"/>
<path d="M21.2818 40.3038H16.4502V45.1354H21.2818V40.3038Z" fill="black"/>
<path d="M21.2818 54.82H16.4502V59.6516H21.2818V54.82Z" fill="black"/>
<path d="M21.2818 74.1678H16.4502V83.8524H21.2818V74.1678Z" fill="black"/>
<path d="M21.2818 88.6838H16.4502V108.032H21.2818V88.6838Z" fill="black"/>
<path d="M21.2818 112.884H16.4502V117.716H21.2818V112.884Z" fill="black"/>
<path d="M21.2818 137.085H16.4502V141.917H21.2818V137.085Z" fill="black"/>
<path d="M21.2818 166.118H16.4502V170.949H21.2818V166.118Z" fill="black"/>
<path d="M26.1138 11.2715H21.2822V16.103H26.1138V11.2715Z" fill="black"/>
<path d="M26.1138 20.956H21.2822V25.7876H26.1138V20.956Z" fill="black"/>
<path d="M26.1138 25.7879H21.2822V35.4724H26.1138V25.7879Z" fill="black"/>
<path d="M26.1138 40.3038H21.2822V45.1354H26.1138V40.3038Z" fill="black"/>
<path d="M26.1138 49.9881H21.2822V83.852H26.1138V49.9881Z" fill="black"/>
<path d="M26.1138 93.5367H21.2822V98.3683H26.1138V93.5367Z" fill="black"/>
<path d="M26.1138 103.2H21.2822V108.032H26.1138V103.2Z" fill="black"/>
<path d="M26.1138 117.716H21.2822V127.401H26.1138V117.716Z" fill="black"/>
<path d="M26.1138 137.085H21.2822V141.917H26.1138V137.085Z" fill="black"/>
<path d="M26.1138 146.749H21.2822V161.265H26.1138V146.749Z" fill="black"/>
<path d="M26.1138 166.118H21.2822V170.949H26.1138V166.118Z" fill="black"/>
<path d="M30.9664 11.2714H26.1348V16.103H30.9664V11.2714Z" fill="black"/>
<path d="M30.9664 20.956H26.1348V25.7876H30.9664V20.956Z" fill="black"/>
<path d="M30.9664 25.7879H26.1348V35.4725H30.9664V25.7879Z" fill="black"/>
<path d="M30.9664 40.3038H26.1348V45.1354H30.9664V40.3038Z" fill="black"/>
<path d="M30.9664 49.9882H26.1348V64.5043H30.9664V49.9882Z" fill="black"/>
<path d="M30.9664 69.3362H26.1348V74.1678H30.9664V69.3362Z" fill="black"/>
<path d="M30.9664 83.8522H26.1348V88.6838H30.9664V83.8522Z" fill="black"/>
<path d="M30.9664 112.884H26.1348V117.716H30.9664V112.884Z" fill="black"/>
<path d="M30.9664 122.569H26.1348V127.401H30.9664V122.569Z" fill="black"/>
<path d="M30.9664 137.085H26.1348V141.917H30.9664V137.085Z" fill="black"/>
<path d="M30.9664 146.749H26.1348V161.265H30.9664V146.749Z" fill="black"/>
<path d="M30.9664 166.118H26.1348V170.949H30.9664V166.118Z" fill="black"/>
<path d="M35.7984 11.2714H30.9668V16.103H35.7984V11.2714Z" fill="black"/>
<path d="M35.7984 20.956H30.9668V25.7876H35.7984V20.956Z" fill="black"/>
<path d="M35.7984 25.7879H30.9668V35.4725H35.7984V25.7879Z" fill="black"/>
<path d="M35.7984 40.3038H30.9668V45.1354H35.7984V40.3038Z" fill="black"/>
<path d="M35.7984 49.9882H30.9668V54.8198H35.7984V49.9882Z" fill="black"/>
<path d="M35.7984 69.3362H30.9668V74.1678H35.7984V69.3362Z" fill="black"/>
<path d="M35.7984 79.0205H30.9668V108.053H35.7984V79.0205Z" fill="black"/>
<path d="M35.7984 112.884H30.9668V117.716H35.7984V112.884Z" fill="black"/>
<path d="M35.7984 122.569H30.9668V132.254H35.7984V122.569Z" fill="black"/>
<path d="M35.7984 137.085H30.9668V141.917H35.7984V137.085Z" fill="black"/>
<path d="M35.7984 146.749H30.9668V161.265H35.7984V146.749Z" fill="black"/>
<path d="M35.7984 166.118H30.9668V170.949H35.7984V166.118Z" fill="black"/>
<path d="M40.6304 11.2714H35.7988V16.103H40.6304V11.2714Z" fill="black"/>
<path d="M40.6304 40.3038H35.7988V45.1354H40.6304V40.3038Z" fill="black"/>
<path d="M40.6304 49.9882H35.7988V54.8198H40.6304V49.9882Z" fill="black"/>
<path d="M40.6304 64.5043H35.7988V69.3359H40.6304V64.5043Z" fill="black"/>
<path d="M40.6304 83.8522H35.7988V93.5367H40.6304V83.8522Z" fill="black"/>
<path d="M40.6304 103.2H35.7988V108.032H40.6304V103.2Z" fill="black"/>
<path d="M40.6304 112.884H35.7988V117.716H40.6304V112.884Z" fill="black"/>
<path d="M40.6304 117.716H35.7988V122.548H40.6304V117.716Z" fill="black"/>
<path d="M40.6304 137.085H35.7988V141.917H40.6304V137.085Z" fill="black"/>
<path d="M40.6304 166.118H35.7988V170.949H40.6304V166.118Z" fill="black"/>
<path d="M45.482 11.2714H40.6504V25.7876H45.482V11.2714Z" fill="black"/>
<path d="M45.482 25.7879H40.6504V45.1356H45.482V25.7879Z" fill="black"/>
<path d="M45.482 49.9882H40.6504V54.8198H45.482V49.9882Z" fill="black"/>
<path d="M45.482 59.6516H40.6504V64.4832H45.482V59.6516Z" fill="black"/>
<path d="M45.482 69.3362H40.6504V74.1678H45.482V69.3362Z" fill="black"/>
<path d="M45.482 79.0205H40.6504V83.8521H45.482V79.0205Z" fill="black"/>
<path d="M45.482 88.6838H40.6504V93.5154H45.482V88.6838Z" fill="black"/>
<path d="M45.482 98.3683H40.6504V103.2H45.482V98.3683Z" fill="black"/>
<path d="M45.482 108.053H40.6504V112.885H45.482V108.053Z" fill="black"/>
<path d="M45.482 117.716H40.6504V122.548H45.482V117.716Z" fill="black"/>
<path d="M45.482 127.401H40.6504V132.232H45.482V127.401Z" fill="black"/>
<path d="M45.482 137.085H40.6504V161.286H45.482V137.085Z" fill="black"/>
<path d="M45.482 161.265H40.6504V170.949H45.482V161.265Z" fill="black"/>
<path d="M50.313 54.82H45.4814V59.6516H50.313V54.82Z" fill="black"/>
<path d="M50.313 64.5043H45.4814V74.1889H50.313V64.5043Z" fill="black"/>
<path d="M50.313 79.0205H45.4814V83.8521H50.313V79.0205Z" fill="black"/>
<path d="M50.313 88.6838H45.4814V108.032H50.313V88.6838Z" fill="black"/>
<path d="M50.313 112.884H45.4814V117.716H50.313V112.884Z" fill="black"/>
<path d="M50.313 117.716H45.4814V122.548H50.313V117.716Z" fill="black"/>
<path d="M55.1451 20.956H50.3135V25.7876H55.1451V20.956Z" fill="black"/>
<path d="M55.1451 25.7879H50.3135V49.9886H55.1451V25.7879Z" fill="black"/>
<path d="M55.1451 64.5043H50.3135V69.3359H55.1451V64.5043Z" fill="black"/>
<path d="M55.1451 83.8522H50.3135V88.6838H55.1451V83.8522Z" fill="black"/>
<path d="M55.1451 93.5367H50.3135V98.3683H55.1451V93.5367Z" fill="black"/>
<path d="M55.1451 103.2H50.3135V108.032H55.1451V103.2Z" fill="black"/>
<path d="M55.1451 117.716H50.3135V122.548H55.1451V117.716Z" fill="black"/>
<path d="M55.1451 127.401H50.3135V137.085H55.1451V127.401Z" fill="black"/>
<path d="M55.1451 141.917H50.3135V161.265H55.1451V141.917Z" fill="black"/>
<path d="M55.1451 166.118H50.3135V170.949H55.1451V166.118Z" fill="black"/>
<path d="M59.9976 25.7879H55.166V40.304H59.9976V25.7879Z" fill="black"/>
<path d="M59.9976 45.1352H55.166V49.9668H59.9976V45.1352Z" fill="black"/>
<path d="M59.9976 54.82H55.166V69.3362H59.9976V54.82Z" fill="black"/>
<path d="M59.9976 79.0205H55.166V93.5367H59.9976V79.0205Z" fill="black"/>
<path d="M59.9976 103.2H55.166V117.716H59.9976V103.2Z" fill="black"/>
<path d="M59.9976 132.232H55.166V137.064H59.9976V132.232Z" fill="black"/>
<path d="M59.9976 137.085H55.166V146.77H59.9976V137.085Z" fill="black"/>
<path d="M59.9976 166.118H55.166V170.949H59.9976V166.118Z" fill="black"/>
<path d="M64.8296 11.2714H59.998V16.103H64.8296V11.2714Z" fill="black"/>
<path d="M64.8296 35.472H59.998V45.1565H64.8296V35.472Z" fill="black"/>
<path d="M64.8296 49.9882H59.998V64.5043H64.8296V49.9882Z" fill="black"/>
<path d="M64.8296 98.3683H59.998V112.885H64.8296V98.3683Z" fill="black"/>
<path d="M64.8296 127.401H59.998V137.085H64.8296V127.401Z" fill="black"/>
<path d="M64.8296 141.917H59.998V161.265H64.8296V141.917Z" fill="black"/>
<path d="M64.8296 161.265H59.998V170.949H64.8296V161.265Z" fill="black"/>
<path d="M69.6617 30.6193H64.8301V35.4509H69.6617V30.6193Z" fill="black"/>
<path d="M69.6617 45.1352H64.8301V49.9668H69.6617V45.1352Z" fill="black"/>
<path d="M69.6617 54.82H64.8301V59.6516H69.6617V54.82Z" fill="black"/>
<path d="M69.6617 69.3362H64.8301V103.2H69.6617V69.3362Z" fill="black"/>
<path d="M69.6617 117.716H64.8301V122.548H69.6617V117.716Z" fill="black"/>
<path d="M69.6617 146.749H64.8301V161.265H69.6617V146.749Z" fill="black"/>
<path d="M69.6617 161.265H64.8301V170.949H69.6617V161.265Z" fill="black"/>
<path d="M74.5142 16.1028H69.6826V20.9344H74.5142V16.1028Z" fill="black"/>
<path d="M74.5142 30.6192H69.6826V35.4508H74.5142V30.6192Z" fill="black"/>
<path d="M74.5142 40.3038H69.6826V45.1354H74.5142V40.3038Z" fill="black"/>
<path d="M74.5142 49.9881H69.6826V59.6727H74.5142V49.9881Z" fill="black"/>
<path d="M74.5142 64.5044H69.6826V83.8521H74.5142V64.5044Z" fill="black"/>
<path d="M74.5142 88.6838H69.6826V93.5154H74.5142V88.6838Z" fill="black"/>
<path d="M74.5142 103.2H69.6826V108.032H74.5142V103.2Z" fill="black"/>
<path d="M74.5142 117.716H69.6826V137.064H74.5142V117.716Z" fill="black"/>
<path d="M74.5142 156.433H69.6826V161.264H74.5142V156.433Z" fill="black"/>
<path d="M74.5142 161.265H69.6826V166.096H74.5142V161.265Z" fill="black"/>
<path d="M79.3462 16.1028H74.5146V20.9344H79.3462V16.1028Z" fill="black"/>
<path d="M79.3462 30.6193H74.5146V40.3038H79.3462V30.6193Z" fill="black"/>
<path d="M79.3462 49.9882H74.5146V69.3359H79.3462V49.9882Z" fill="black"/>
<path d="M79.3462 88.6838H74.5146V103.2H79.3462V88.6838Z" fill="black"/>
<path d="M79.3462 108.053H74.5146V112.885H79.3462V108.053Z" fill="black"/>
<path d="M79.3462 122.569H74.5146V127.401H79.3462V122.569Z" fill="black"/>
<path d="M79.3462 132.232H74.5146V137.064H79.3462V132.232Z" fill="black"/>
<path d="M79.3462 137.085H74.5146V141.917H79.3462V137.085Z" fill="black"/>
<path d="M79.3462 146.749H74.5146V151.58H79.3462V146.749Z" fill="black"/>
<path d="M79.3462 156.433H74.5146V161.264H79.3462V156.433Z" fill="black"/>
<path d="M84.1783 20.956H79.3467V25.7876H84.1783V20.956Z" fill="black"/>
<path d="M84.1783 35.472H79.3467V54.8197H84.1783V35.472Z" fill="black"/>
<path d="M84.1783 59.6516H79.3467V64.4832H84.1783V59.6516Z" fill="black"/>
<path d="M84.1783 69.3362H79.3467V74.1678H84.1783V69.3362Z" fill="black"/>
<path d="M84.1783 83.8522H79.3467V88.6838H84.1783V83.8522Z" fill="black"/>
<path d="M84.1783 146.749H79.3467V151.58H84.1783V146.749Z" fill="black"/>
<path d="M84.1783 166.118H79.3467V170.949H84.1783V166.118Z" fill="black"/>
<path d="M89.0318 16.1028H84.2002V25.7874H89.0318V16.1028Z" fill="black"/>
<path d="M89.0318 25.7879H84.2002V30.6195H89.0318V25.7879Z" fill="black"/>
<path d="M89.0318 35.472H84.2002V40.3035H89.0318V35.472Z" fill="black"/>
<path d="M89.0318 45.1352H84.2002V54.8197H89.0318V45.1352Z" fill="black"/>
<path d="M89.0318 59.6516H84.2002V64.4832H89.0318V59.6516Z" fill="black"/>
<path d="M89.0318 69.3362H84.2002V74.1678H89.0318V69.3362Z" fill="black"/>
<path d="M89.0318 79.0205H84.2002V83.8521H89.0318V79.0205Z" fill="black"/>
<path d="M89.0318 88.6838H84.2002V93.5154H89.0318V88.6838Z" fill="black"/>
<path d="M89.0318 98.3684H84.2002V103.2H89.0318V98.3684Z" fill="black"/>
<path d="M89.0318 117.716H84.2002V122.548H89.0318V117.716Z" fill="black"/>
<path d="M89.0318 137.085H84.2002V151.601H89.0318V137.085Z" fill="black"/>
<path d="M89.0318 156.433H84.2002V161.264H89.0318V156.433Z" fill="black"/>
<path d="M89.0318 161.265H84.2002V170.949H89.0318V161.265Z" fill="black"/>
<path d="M93.8628 16.1028H89.0312V25.7874H93.8628V16.1028Z" fill="black"/>
<path d="M93.8628 25.7879H89.0312V35.4724H93.8628V25.7879Z" fill="black"/>
<path d="M93.8628 40.3038H89.0312V49.9884H93.8628V40.3038Z" fill="black"/>
<path d="M93.8628 54.82H89.0312V59.6516H93.8628V54.82Z" fill="black"/>
<path d="M93.8628 69.3362H89.0312V79.0207H93.8628V69.3362Z" fill="black"/>
<path d="M93.8628 88.6838H89.0312V117.716H93.8628V88.6838Z" fill="black"/>
<path d="M93.8628 117.716H89.0312V127.401H93.8628V117.716Z" fill="black"/>
<path d="M93.8628 132.232H89.0312V137.064H93.8628V132.232Z" fill="black"/>
<path d="M93.8628 141.917H89.0312V146.749H93.8628V141.917Z" fill="black"/>
<path d="M93.8628 151.602H89.0312V156.433H93.8628V151.602Z" fill="black"/>
<path d="M93.8628 166.118H89.0312V170.949H93.8628V166.118Z" fill="black"/>
<path d="M98.6939 11.2714H93.8623V16.103H98.6939V11.2714Z" fill="black"/>
<path d="M98.6939 25.7879H93.8623V40.3041H98.6939V25.7879Z" fill="black"/>
<path d="M98.6939 49.9882H93.8623V64.5043H98.6939V49.9882Z" fill="black"/>
<path d="M98.6939 69.3362H93.8623V79.0208H98.6939V69.3362Z" fill="black"/>
<path d="M98.6939 88.6838H93.8623V93.5154H98.6939V88.6838Z" fill="black"/>
<path d="M98.6939 108.053H93.8623V117.737H98.6939V108.053Z" fill="black"/>
<path d="M98.6939 117.716H93.8623V122.548H98.6939V117.716Z" fill="black"/>
<path d="M98.6939 127.401H93.8623V132.232H98.6939V127.401Z" fill="black"/>
<path d="M98.6939 137.085H93.8623V141.917H98.6939V137.085Z" fill="black"/>
<path d="M98.6939 146.749H93.8623V151.58H98.6939V146.749Z" fill="black"/>
<path d="M98.6939 156.433H93.8623V161.264H98.6939V156.433Z" fill="black"/>
<path d="M98.6939 166.118H93.8623V170.949H98.6939V166.118Z" fill="black"/>
<path d="M103.545 11.2715H98.7139V25.7876H103.545V11.2715Z" fill="black"/>
<path d="M103.545 25.7879H98.7139V35.4724H103.545V25.7879Z" fill="black"/>
<path d="M103.545 40.3038H98.7139V45.1354H103.545V40.3038Z" fill="black"/>
<path d="M103.545 54.82H98.7139V59.6516H103.545V54.82Z" fill="black"/>
<path d="M103.545 64.5044H98.7139V69.336H103.545V64.5044Z" fill="black"/>
<path d="M103.545 88.6838H98.7139V98.3684H103.545V88.6838Z" fill="black"/>
<path d="M103.545 103.2H98.7139V108.032H103.545V103.2Z" fill="black"/>
<path d="M103.545 137.085H98.7139V141.917H103.545V137.085Z" fill="black"/>
<path d="M103.545 156.433H98.7139V161.264H103.545V156.433Z" fill="black"/>
<path d="M108.377 11.2715H103.546V16.103H108.377V11.2715Z" fill="black"/>
<path d="M108.377 20.956H103.546V25.7876H108.377V20.956Z" fill="black"/>
<path d="M108.377 30.6192H103.546V35.4508H108.377V30.6192Z" fill="black"/>
<path d="M108.377 54.82H103.546V59.6516H108.377V54.82Z" fill="black"/>
<path d="M108.377 64.5044H103.546V79.0205H108.377V64.5044Z" fill="black"/>
<path d="M108.377 83.8522H103.546V98.3683H108.377V83.8522Z" fill="black"/>
<path d="M108.377 112.884H103.546V117.716H108.377V112.884Z" fill="black"/>
<path d="M108.377 122.569H103.546V137.085H108.377V122.569Z" fill="black"/>
<path d="M108.377 146.749H103.546V156.433H108.377V146.749Z" fill="black"/>
<path d="M108.377 166.118H103.546V170.949H108.377V166.118Z" fill="black"/>
<path d="M113.21 11.2714H108.378V20.956H113.21V11.2714Z" fill="black"/>
<path d="M113.21 25.7879H108.378V49.9886H113.21V25.7879Z" fill="black"/>
<path d="M113.21 54.82H108.378V59.6516H113.21V54.82Z" fill="black"/>
<path d="M113.21 64.5043H108.378V69.3359H113.21V64.5043Z" fill="black"/>
<path d="M113.21 74.1678H108.378V78.9994H113.21V74.1678Z" fill="black"/>
<path d="M113.21 83.8522H108.378V88.6838H113.21V83.8522Z" fill="black"/>
<path d="M113.21 98.3683H108.378V108.053H113.21V98.3683Z" fill="black"/>
<path d="M113.21 112.884H108.378V117.716H113.21V112.884Z" fill="black"/>
<path d="M113.21 122.569H108.378V127.401H113.21V122.569Z" fill="black"/>
<path d="M113.21 132.232H108.378V137.064H113.21V132.232Z" fill="black"/>
<path d="M113.21 141.917H108.378V146.749H113.21V141.917Z" fill="black"/>
<path d="M113.21 156.433H108.378V161.264H113.21V156.433Z" fill="black"/>
<path d="M113.21 161.265H108.378V166.096H113.21V161.265Z" fill="black"/>
<path d="M118.063 11.2715H113.231V25.7876H118.063V11.2715Z" fill="black"/>
<path d="M118.063 30.6192H113.231V35.4508H118.063V30.6192Z" fill="black"/>
<path d="M118.063 45.1352H113.231V49.9668H118.063V45.1352Z" fill="black"/>
<path d="M118.063 59.6516H113.231V69.3362H118.063V59.6516Z" fill="black"/>
<path d="M118.063 83.8522H113.231V88.6838H118.063V83.8522Z" fill="black"/>
<path d="M118.063 93.5367H113.231V98.3683H118.063V93.5367Z" fill="black"/>
<path d="M118.063 103.2H113.231V108.032H118.063V103.2Z" fill="black"/>
<path d="M118.063 122.569H113.231V127.401H118.063V122.569Z" fill="black"/>
<path d="M118.063 141.917H113.231V146.749H118.063V141.917Z" fill="black"/>
<path d="M118.063 151.602H113.231V156.433H118.063V151.602Z" fill="black"/>
<path d="M118.063 161.265H113.231V166.096H118.063V161.265Z" fill="black"/>
<path d="M122.894 16.1028H118.062V20.9344H122.894V16.1028Z" fill="black"/>
<path d="M122.894 30.6192H118.062V54.8199H122.894V30.6192Z" fill="black"/>
<path d="M122.894 59.6516H118.062V74.1678H122.894V59.6516Z" fill="black"/>
<path d="M122.894 79.0205H118.062V93.5367H122.894V79.0205Z" fill="black"/>
<path d="M122.894 103.2H118.062V112.885H122.894V103.2Z" fill="black"/>
<path d="M122.894 117.716H118.062V132.232H122.894V117.716Z" fill="black"/>
<path d="M122.894 137.085H118.062V151.601H122.894V137.085Z" fill="black"/>
<path d="M122.894 156.433H118.062V161.264H122.894V156.433Z" fill="black"/>
<path d="M122.894 161.265H118.062V170.949H122.894V161.265Z" fill="black"/>
<path d="M127.748 11.2714H122.916V16.103H127.748V11.2714Z" fill="black"/>
<path d="M127.748 20.956H122.916V25.7876H127.748V20.956Z" fill="black"/>
<path d="M127.748 25.7879H122.916V35.4725H127.748V25.7879Z" fill="black"/>
<path d="M127.748 49.9882H122.916V59.6727H127.748V49.9882Z" fill="black"/>
<path d="M127.748 69.3362H122.916V79.0208H127.748V69.3362Z" fill="black"/>
<path d="M127.748 83.8522H122.916V98.3683H127.748V83.8522Z" fill="black"/>
<path d="M127.748 112.884H122.916V117.716H127.748V112.884Z" fill="black"/>
<path d="M127.748 122.569H122.916V127.401H127.748V122.569Z" fill="black"/>
<path d="M127.748 137.085H122.916V146.77H127.748V137.085Z" fill="black"/>
<path d="M127.748 156.433H122.916V161.264H127.748V156.433Z" fill="black"/>
<path d="M127.748 161.265H122.916V170.949H127.748V161.265Z" fill="black"/>
<path d="M132.58 16.1028H127.748V20.9344H132.58V16.1028Z" fill="black"/>
<path d="M132.58 25.7879H127.748V30.6195H132.58V25.7879Z" fill="black"/>
<path d="M132.58 40.3038H127.748V59.6515H132.58V40.3038Z" fill="black"/>
<path d="M132.58 64.5044H127.748V74.1889H132.58V64.5044Z" fill="black"/>
<path d="M132.58 103.2H127.748V108.032H132.58V103.2Z" fill="black"/>
<path d="M132.58 112.884H127.748V117.716H132.58V112.884Z" fill="black"/>
<path d="M132.58 122.569H127.748V137.085H132.58V122.569Z" fill="black"/>
<path d="M132.58 137.085H127.748V156.433H132.58V137.085Z" fill="black"/>
<path d="M132.58 166.118H127.748V170.949H132.58V166.118Z" fill="black"/>
<path d="M137.411 64.5044H132.579V74.1889H137.411V64.5044Z" fill="black"/>
<path d="M137.411 79.0205H132.579V98.3682H137.411V79.0205Z" fill="black"/>
<path d="M137.411 103.2H132.579V112.885H137.411V103.2Z" fill="black"/>
<path d="M137.411 127.401H132.579V132.232H137.411V127.401Z" fill="black"/>
<path d="M137.411 146.749H132.579V156.433H137.411V146.749Z" fill="black"/>
<path d="M137.411 161.265H132.579V166.096H137.411V161.265Z" fill="black"/>
<path d="M142.264 11.2714H137.433V25.7876H142.264V11.2714Z" fill="black"/>
<path d="M142.264 25.7879H137.433V45.1356H142.264V25.7879Z" fill="black"/>
<path d="M142.264 49.9882H137.433V59.6727H142.264V49.9882Z" fill="black"/>
<path d="M142.264 74.1678H137.433V88.684H142.264V74.1678Z" fill="black"/>
<path d="M142.264 93.5367H137.433V103.221H142.264V93.5367Z" fill="black"/>
<path d="M142.264 112.884H137.433V117.716H142.264V112.884Z" fill="black"/>
<path d="M142.264 127.401H137.433V132.232H142.264V127.401Z" fill="black"/>
<path d="M142.264 137.085H137.433V141.917H142.264V137.085Z" fill="black"/>
<path d="M142.264 146.749H137.433V151.58H142.264V146.749Z" fill="black"/>
<path d="M142.264 156.433H137.433V161.264H142.264V156.433Z" fill="black"/>
<path d="M142.264 161.265H137.433V166.096H142.264V161.265Z" fill="black"/>
<path d="M147.095 11.2714H142.264V16.103H147.095V11.2714Z" fill="black"/>
<path d="M147.095 40.3038H142.264V45.1354H147.095V40.3038Z" fill="black"/>
<path d="M147.095 49.9882H142.264V59.6727H147.095V49.9882Z" fill="black"/>
<path d="M147.095 69.3362H142.264V74.1678H147.095V69.3362Z" fill="black"/>
<path d="M147.095 79.0205H142.264V83.8521H147.095V79.0205Z" fill="black"/>
<path d="M147.095 88.6838H142.264V108.032H147.095V88.6838Z" fill="black"/>
<path d="M147.095 127.401H142.264V132.232H147.095V127.401Z" fill="black"/>
<path d="M147.095 146.749H142.264V151.58H147.095V146.749Z" fill="black"/>
<path d="M147.095 156.433H142.264V161.264H147.095V156.433Z" fill="black"/>
<path d="M147.095 166.118H142.264V170.949H147.095V166.118Z" fill="black"/>
<path d="M151.926 11.2715H147.095V16.103H151.926V11.2715Z" fill="black"/>
<path d="M151.926 20.956H147.095V25.7876H151.926V20.956Z" fill="black"/>
<path d="M151.926 25.7879H147.095V35.4724H151.926V25.7879Z" fill="black"/>
<path d="M151.926 40.3038H147.095V45.1354H151.926V40.3038Z" fill="black"/>
<path d="M151.926 49.9881H147.095V54.8197H151.926V49.9881Z" fill="black"/>
<path d="M151.926 59.6516H147.095V74.1678H151.926V59.6516Z" fill="black"/>
<path d="M151.926 88.6838H147.095V93.5154H151.926V88.6838Z" fill="black"/>
<path d="M151.926 98.3684H147.095V112.885H151.926V98.3684Z" fill="black"/>
<path d="M151.926 127.401H147.095V137.085H151.926V127.401Z" fill="black"/>
<path d="M151.926 137.085H147.095V156.433H151.926V137.085Z" fill="black"/>
<path d="M151.926 161.265H147.095V166.096H151.926V161.265Z" fill="black"/>
<path d="M156.779 11.2714H151.947V16.103H156.779V11.2714Z" fill="black"/>
<path d="M156.779 20.956H151.947V25.7876H156.779V20.956Z" fill="black"/>
<path d="M156.779 25.7879H151.947V35.4725H156.779V25.7879Z" fill="black"/>
<path d="M156.779 40.3038H151.947V45.1354H156.779V40.3038Z" fill="black"/>
<path d="M156.779 49.9882H151.947V59.6727H156.779V49.9882Z" fill="black"/>
<path d="M156.779 64.5043H151.947V74.1889H156.779V64.5043Z" fill="black"/>
<path d="M156.779 79.0205H151.947V83.8521H156.779V79.0205Z" fill="black"/>
<path d="M156.779 93.5367H151.947V98.3683H156.779V93.5367Z" fill="black"/>
<path d="M156.779 103.2H151.947V117.716H156.779V103.2Z" fill="black"/>
<path d="M156.779 117.716H151.947V127.401H156.779V117.716Z" fill="black"/>
<path d="M156.779 141.917H151.947V156.433H156.779V141.917Z" fill="black"/>
<path d="M156.779 161.265H151.947V166.096H156.779V161.265Z" fill="black"/>
<path d="M161.611 11.2714H156.779V16.103H161.611V11.2714Z" fill="black"/>
<path d="M161.611 20.956H156.779V25.7876H161.611V20.956Z" fill="black"/>
<path d="M161.611 25.7879H156.779V35.4725H161.611V25.7879Z" fill="black"/>
<path d="M161.611 40.3038H156.779V45.1354H161.611V40.3038Z" fill="black"/>
<path d="M161.611 49.9882H156.779V69.3359H161.611V49.9882Z" fill="black"/>
<path d="M161.611 74.1678H156.779V78.9994H161.611V74.1678Z" fill="black"/>
<path d="M161.611 83.8522H156.779V88.6838H161.611V83.8522Z" fill="black"/>
<path d="M161.611 93.5367H156.779V108.053H161.611V93.5367Z" fill="black"/>
<path d="M161.611 122.569H156.779V127.401H161.611V122.569Z" fill="black"/>
<path d="M161.611 132.232H156.779V137.064H161.611V132.232Z" fill="black"/>
<path d="M161.611 137.085H156.779V146.77H161.611V137.085Z" fill="black"/>
<path d="M161.611 151.602H156.779V161.286H161.611V151.602Z" fill="black"/>
<path d="M161.611 161.265H156.779V166.096H161.611V161.265Z" fill="black"/>
<path d="M166.443 11.2715H161.611V16.103H166.443V11.2715Z" fill="black"/>
<path d="M166.443 40.3038H161.611V45.1354H166.443V40.3038Z" fill="black"/>
<path d="M166.443 54.82H161.611V64.5046H166.443V54.82Z" fill="black"/>
<path d="M166.443 74.1678H161.611V83.8524H166.443V74.1678Z" fill="black"/>
<path d="M166.443 93.5367H161.611V103.221H166.443V93.5367Z" fill="black"/>
<path d="M166.443 117.716H161.611V137.064H166.443V117.716Z" fill="black"/>
<path d="M166.443 137.085H161.611V146.77H166.443V137.085Z" fill="black"/>
<path d="M166.443 151.602H161.611V156.433H166.443V151.602Z" fill="black"/>
<path d="M166.443 166.118H161.611V170.949H166.443V166.118Z" fill="black"/>
<path d="M171.295 11.2714H166.464V25.7876H171.295V11.2714Z" fill="black"/>
<path d="M171.295 25.7879H166.464V45.1356H171.295V25.7879Z" fill="black"/>
<path d="M171.295 54.82H166.464V59.6516H171.295V54.82Z" fill="black"/>
<path d="M171.295 74.1678H166.464V78.9994H171.295V74.1678Z" fill="black"/>
<path d="M171.295 88.6838H166.464V98.3683H171.295V88.6838Z" fill="black"/>
<path d="M171.295 112.884H166.464V117.716H171.295V112.884Z" fill="black"/>
<path d="M171.295 127.401H166.464V137.085H171.295V127.401Z" fill="black"/>
<path d="M171.295 151.602H166.464V156.433H171.295V151.602Z" fill="black"/>
<defs>
<linearGradient id="paint0_linear_1047_3102" x1="48.0248" y1="223.633" x2="-11.0143" y2="223.633" gradientUnits="userSpaceOnUse">
<stop stop-color="#FEE000"/>
<stop offset="0.1941" stop-color="#FCCF0B"/>
<stop offset="0.5469" stop-color="#FAB318"/>
<stop offset="0.8279" stop-color="#F9A21B"/>
<stop offset="1" stop-color="#F99B1C"/>
</linearGradient>
<linearGradient id="paint1_linear_1047_3102" x1="49.2796" y1="214.874" x2="3.57739" y2="246.32" gradientUnits="userSpaceOnUse">
<stop stop-color="#EF4547"/>
<stop offset="1" stop-color="#C6186D"/>
</linearGradient>
<linearGradient id="paint2_linear_1047_3102" x1="19.473" y1="196.759" x2="39.4372" y2="216.644" gradientUnits="userSpaceOnUse">
<stop stop-color="#279E6F"/>
<stop offset="0.3168" stop-color="#4DAB6D"/>
<stop offset="0.7398" stop-color="#6ABA6A"/>
<stop offset="1" stop-color="#74C169"/>
</linearGradient>
</defs>
</svg>
