<svg width="19" height="32" viewBox="0 0 19 32" fill="none" xmlns="http://www.w3.org/2000/svg">
<path d="M14.9483 0H4.316C2.10669 0 0.326172 1.67143 0.326172 3.74286V5.71429H11.3727V8.35714H0.326172V11.4286H11.3727V14.0714H0.326172V17.1429H11.3727V19.7857H0.326172V22.7714C0.326172 24.8429 2.10669 26.5 4.316 26.5H6.5035V32H12.7535V26.5H14.9483C17.1503 26.5 18.9308 24.8429 18.9308 22.7714V19.7857H14.643V17.1429H18.9308V14.0714H14.643V11.4286H18.9308V8.35714H14.643V5.71429H18.9308V3.74286C18.9308 1.67143 17.1503 0 14.9483 0Z" fill="#333333"/>
</svg>
