<svg width="287" height="98" viewBox="0 0 287 98" fill="none" xmlns="http://www.w3.org/2000/svg">
<path d="M39.5682 78.9278C61.399 78.9278 79.0964 61.2593 79.0964 39.4639C79.0964 17.6686 61.399 0 39.5682 0C17.7374 0 0.0400391 17.6686 0.0400391 39.4639C0.0400391 61.2593 17.7374 78.9278 39.5682 78.9278Z" fill="#D00234"/>
<path d="M116.838 42.6906C116.553 42.8284 116.249 42.9204 115.927 42.9663C116.175 42.7457 116.479 42.6538 116.838 42.6906Z" fill="#8E000F"/>
<path d="M190.287 37.3956H52.1366V57.601H190.287V37.3956Z" fill="#040001"/>
<path d="M190.287 37.3956V57.601L52.2747 57.6012V37.3958L190.287 37.3956ZM192.433 35.2447H50.1201V59.7431H192.433V35.2447Z" fill="white"/>
<path d="M69.677 46.055C73.1667 46.055 75.0543 47.3603 75.0543 49.971C75.0543 52.9035 73.2772 54.6593 68.9036 54.6593H55.5618L58.4069 50.9822H69.2443C70.2939 50.9822 70.7635 50.6789 70.7635 49.9343C70.7635 49.2081 70.2939 48.9047 69.2443 48.9047H61.4546C57.7716 48.9047 56.0774 47.2592 56.0774 44.7956C56.0774 42.1022 57.8729 40.3464 62.2281 40.3464H74.6767L71.8316 44.0694H61.8874C60.8562 44.0694 60.3681 44.3268 60.3681 45.053C60.3681 45.7792 60.8654 46.055 61.8874 46.055H69.677Z" fill="white"/>
<path d="M90.1639 50.9916H82.6689V54.6503H78.2585V47.3329H90.5967C91.9686 47.3329 92.7605 46.6711 92.7605 45.6875C92.7605 44.6855 91.9686 44.0604 90.5967 44.0604H78.2585L81.1957 40.3374H90.1823C94.6204 40.3374 97.2077 42.516 97.2077 45.7058C97.2077 48.8773 94.6204 50.9916 90.1639 50.9916Z" fill="white"/>
<path d="M121.221 47.4891C121.221 52.6002 117.704 54.8892 110.743 54.8892C103.754 54.8892 100.265 52.6002 100.265 47.4891C100.265 42.378 103.754 40.1075 110.743 40.1075C117.713 40.1075 121.221 42.378 121.221 47.4891ZM116.811 47.4891C116.811 44.4096 115.199 43.8305 110.752 43.8305C106.296 43.8305 104.694 44.4096 104.694 47.4891C104.694 50.5687 106.305 51.1662 110.752 51.1662C115.199 51.1662 116.811 50.5687 116.811 47.4891Z" fill="white"/>
<path d="M145.069 54.6503H139.139L135.944 50.8629H129.131V54.6503H124.692V47.3329H137.16C138.531 47.3329 139.6 46.717 139.6 45.7242C139.6 44.6119 138.679 44.0604 137.16 44.0604H124.692L127.584 40.3374H136.8C140.06 40.3374 144.167 41.3669 144.167 45.4485C144.167 47.6731 142.776 49.5116 140.419 49.9804C140.916 50.3481 141.45 50.8537 142.435 51.8649L145.069 54.6503Z" fill="white"/>
<path d="M165.721 40.3374L162.849 44.0604H157.729V54.6503H153.291V44.0604H146.56L149.433 40.3374H165.721Z" fill="white"/>
<path d="M181.614 46.055C185.103 46.055 186.991 47.3603 186.991 49.971C186.991 52.9035 185.214 54.6593 180.84 54.6593H167.489L170.334 50.9822H181.172C182.221 50.9822 182.691 50.6789 182.691 49.9343C182.691 49.2081 182.221 48.9047 181.172 48.9047H173.373C169.69 48.9047 167.996 47.2592 167.996 44.7956C167.996 42.1022 169.791 40.3464 174.146 40.3464H186.595L183.75 44.0694H173.806C172.774 44.0694 172.286 44.3268 172.286 45.053C172.286 45.7792 172.784 46.055 173.806 46.055H181.614Z" fill="white"/>
<path d="M63.6277 19.1856H55.3316V19.1764H20.9413V19.1856L12.6268 30.0513H31.9535V59.7434H44.8902V30.0513H55.3316V30.0421L63.6277 19.1856Z" fill="white"/>
<path d="M86.148 97.6347L89.8296 76.7214H95.276L92.3855 93.1598H102.852L102.061 97.6347H86.148Z" fill="white"/>
<path d="M105.988 97.6347L109.7 76.7214H115.146L111.465 97.6347H105.988Z" fill="white"/>
<path d="M122.604 97.6347L118.77 76.7214H124.399L126.012 87.4368C126.073 87.8833 126.144 88.3805 126.225 88.9285C126.306 89.4764 126.377 90.0041 126.438 90.5114C126.519 91.0188 126.58 91.4652 126.62 91.8508H126.803C127.026 91.3841 127.269 90.8868 127.533 90.3592C127.797 89.8113 128.061 89.2735 128.324 88.7458C128.588 88.2182 128.821 87.7412 129.024 87.3151L134.318 76.7214H140.099L128.933 97.6347H122.604Z" fill="white"/>
<path d="M139.993 97.6347L143.705 76.7214H160.988L160.227 80.9832H148.422L147.722 84.9102H158.037L157.306 89.0807H146.992L146.231 93.3729H158.25L157.489 97.6347H139.993Z" fill="white"/>
<path d="M168.859 97.6347L172.571 76.7214H180.208L181.121 86.0365C181.161 86.3815 181.202 86.8381 181.242 87.4064C181.283 87.9746 181.323 88.5632 181.364 89.172C181.405 89.7605 181.435 90.2983 181.455 90.7854H181.668C181.871 90.278 182.074 89.7605 182.277 89.2329C182.5 88.6849 182.723 88.137 182.946 87.589C183.169 87.0208 183.392 86.4931 183.616 86.0061L187.845 76.7214H195.817L192.105 97.6347H186.81L188.636 87.4064C188.737 86.8178 188.859 86.1786 189.001 85.4886C189.143 84.7986 189.285 84.139 189.427 83.5099C189.569 82.8808 189.691 82.3835 189.792 82.0182H189.579C189.498 82.2415 189.387 82.5155 189.245 82.8402C189.123 83.1649 189.001 83.4794 188.879 83.7839C188.758 84.0883 188.646 84.3521 188.545 84.5753L182.52 97.6347H177.926L176.678 84.7275C176.658 84.3014 176.628 83.8447 176.587 83.3577C176.546 82.8503 176.516 82.414 176.496 82.0487H176.283C176.242 82.5763 176.191 83.175 176.131 83.8447C176.09 84.4941 176.029 85.1334 175.948 85.7625C175.887 86.3917 175.816 86.9396 175.735 87.4064L173.94 97.6347H168.859Z" fill="white"/>
<path d="M195.575 97.6347L207.107 76.7214H213.649L217.787 97.6347H212.188L211.58 94.0122H203.182L201.296 97.6347H195.575ZM205.251 89.933H210.941L210.211 85.5799C210.17 85.2146 210.119 84.8594 210.058 84.5144C209.998 84.1491 209.937 83.794 209.876 83.449C209.815 83.0837 209.764 82.7387 209.724 82.414C209.683 82.0893 209.643 81.7747 209.602 81.4703H209.48C209.278 81.8965 209.054 82.3632 208.811 82.8706C208.568 83.3577 208.324 83.8346 208.081 84.3014C207.858 84.7681 207.645 85.2044 207.442 85.6103L205.251 89.933Z" fill="white"/>
<path d="M223.965 97.6347L226.886 81.1963H220.101L220.892 76.7214H239.909L239.118 81.1963H232.333L229.442 97.6347H223.965Z" fill="white"/>
<path d="M249.174 98C246.172 98 243.879 97.3303 242.297 95.9909C240.735 94.6515 239.954 92.6017 239.954 89.8417C239.954 89.3343 239.975 88.827 240.015 88.3196C240.076 87.792 240.147 87.2643 240.228 86.7367C240.634 84.5246 241.354 82.6474 242.389 81.105C243.423 79.5423 244.762 78.3653 246.405 77.5738C248.048 76.762 249.965 76.3561 252.156 76.3561C253.941 76.3561 255.492 76.6098 256.811 77.1172C258.15 77.6245 259.184 78.3754 259.914 79.3698C260.645 80.3643 261.01 81.6022 261.01 83.0837C261.01 83.3678 260.99 83.6722 260.949 83.9969C260.929 84.3014 260.898 84.6058 260.858 84.9102H255.503C255.543 84.7275 255.563 84.555 255.563 84.3927C255.584 84.21 255.594 84.0477 255.594 83.9056C255.594 83.1953 255.452 82.5966 255.168 82.1096C254.884 81.6225 254.468 81.2572 253.92 81.0137C253.393 80.7498 252.744 80.6179 251.973 80.6179C251.101 80.6179 250.33 80.76 249.661 81.0441C248.991 81.3079 248.413 81.6935 247.926 82.2009C247.439 82.688 247.034 83.2866 246.709 83.9969C246.385 84.7072 246.141 85.4886 245.979 86.3409C245.877 86.8686 245.796 87.3049 245.736 87.6499C245.675 87.9949 245.624 88.2892 245.583 88.5327C245.563 88.7762 245.543 88.9893 245.522 89.172C245.522 89.3546 245.522 89.5271 245.522 89.6895C245.522 90.5419 245.665 91.2724 245.948 91.8813C246.232 92.4901 246.669 92.9569 247.257 93.2816C247.845 93.586 248.585 93.7382 249.478 93.7382C250.472 93.7382 251.334 93.5758 252.064 93.2511C252.815 92.9061 253.433 92.4191 253.92 91.7899C254.407 91.1608 254.732 90.3998 254.894 89.5068H260.036C259.732 91.3942 259.093 92.967 258.119 94.2253C257.166 95.4835 255.928 96.4272 254.407 97.0563C252.906 97.6854 251.162 98 249.174 98Z" fill="white"/>
<path d="M263.077 97.6347L266.789 76.7214H272.236L270.836 84.758H279.295L280.725 76.7214H286.171L282.49 97.6347H277.013L278.504 89.2024H270.045L268.554 97.6347H263.077Z" fill="white"/>
<path d="M78.5147 87.3003C78.5147 90.66 75.7924 93.3835 72.4344 93.3835C69.0763 93.3835 66.354 90.66 66.354 87.3003C66.354 83.9406 69.0763 81.217 72.4344 81.217C75.7924 81.217 78.5147 83.9406 78.5147 87.3003Z" fill="#D00234"/>
</svg>
