<svg width="229" height="94" viewBox="0 0 229 94" fill="none" xmlns="http://www.w3.org/2000/svg">
<path d="M46.9494 93.4909C72.8206 93.4909 93.7933 72.5622 93.7933 46.7454C93.7933 20.9286 72.8206 0 46.9494 0C21.0782 0 0.105469 20.9286 0.105469 46.7454C0.105469 72.5622 21.0782 93.4909 46.9494 93.4909Z" fill="#D00234"/>
<path d="M138.521 50.5674C138.182 50.7308 137.822 50.8397 137.44 50.8941C137.735 50.6328 138.095 50.5239 138.521 50.5674Z" fill="#8E000F"/>
<path d="M225.913 44.0532H62.1943V67.9867H225.913V44.0532Z" fill="#040001"/>
<path d="M225.563 44.2955V68.229H62.0074V44.2955H225.563ZM228.105 41.7476H59.4541V70.7661H228.105V41.7476Z" fill="white"/>
<path d="M82.631 54.5529C86.7665 54.5529 89.0034 56.0991 89.0034 59.1915C89.0034 62.6651 86.8974 64.7448 81.7144 64.7448H65.9033L69.275 60.3893H82.1181C83.362 60.3893 83.9185 60.03 83.9185 59.148C83.9185 58.2878 83.362 57.9285 82.1181 57.9285H72.8868C68.5221 57.9285 66.5144 55.9794 66.5144 53.0612C66.5144 49.8708 68.6422 47.791 73.8034 47.791H88.556L85.1843 52.201H73.3997C72.1775 52.201 71.5992 52.5059 71.5992 53.3661C71.5992 54.2263 72.1885 54.5529 73.3997 54.5529H82.631Z" fill="white"/>
<path d="M106.91 60.4001H98.0275V64.7338H92.8008V56.0664H107.422C109.048 56.0664 109.987 55.2824 109.987 54.1173C109.987 52.9304 109.048 52.19 107.422 52.19H92.8008L96.2816 47.78H106.931C112.191 47.78 115.257 50.3607 115.257 54.1391C115.257 57.8957 112.191 60.4001 106.91 60.4001Z" fill="white"/>
<path d="M143.715 56.2515C143.715 62.3056 139.547 65.0169 131.297 65.0169C123.015 65.0169 118.88 62.3056 118.88 56.2515C118.88 50.1973 123.015 47.5078 131.297 47.5078C139.558 47.5078 143.715 50.1973 143.715 56.2515ZM138.488 56.2515C138.488 52.6038 136.579 51.9178 131.308 51.9178C126.027 51.9178 124.128 52.6038 124.128 56.2515C124.128 59.8992 126.038 60.607 131.308 60.607C136.579 60.607 138.488 59.8992 138.488 56.2515Z" fill="white"/>
<path d="M171.976 64.7338H164.949L161.162 60.2477H153.088V64.7338H147.828V56.0664H162.603C164.228 56.0664 165.494 55.3368 165.494 54.1608C165.494 52.8433 164.403 52.19 162.603 52.19H147.828L151.254 47.78H162.177C166.04 47.78 170.906 48.9996 170.906 53.8342C170.906 56.4693 169.259 58.647 166.465 59.2023C167.055 59.6379 167.687 60.2368 168.855 61.4345L171.976 64.7338Z" fill="white"/>
<path d="M196.451 47.78L193.047 52.19H186.98V64.7338H181.721V52.19H173.744L177.149 47.78H196.451Z" fill="white"/>
<path d="M215.284 54.5529C219.42 54.5529 221.657 56.0991 221.657 59.1915C221.657 62.6651 219.551 64.7448 214.368 64.7448H198.546L201.918 60.3893H214.761C216.005 60.3893 216.561 60.03 216.561 59.148C216.561 58.2878 216.005 57.9285 214.761 57.9285H205.518C201.154 57.9285 199.146 55.9794 199.146 53.0612C199.146 49.8708 201.274 47.791 206.435 47.791H221.188L217.816 52.201H206.031C204.809 52.201 204.231 52.5059 204.231 53.3661C204.231 54.2263 204.82 54.5529 206.031 54.5529H215.284Z" fill="white"/>
<path d="M75.4614 22.7248H65.63V22.7139H56.4096H53.2561H37.9251H24.8748V22.7248L15.0215 35.5953H24.8748H37.9251V62.0876V70.766H53.2561V62.0876V35.5953H65.63V35.5844L75.4614 22.7248Z" fill="white"/>
</svg>
