<svg width="32" height="32" viewBox="0 0 32 32" fill="none" xmlns="http://www.w3.org/2000/svg">
<path d="M0.668331 25.144L20.5709 5.24138C21.0063 4.82581 21.5851 4.59395 22.187 4.59395C22.7889 4.59395 23.3677 4.82581 23.8031 5.24138L26.7586 8.19694C27.1866 8.62589 27.427 9.20708 27.427 9.81301C27.427 10.4189 27.1866 11.0001 26.7586 11.4291L6.85718 31.3317C6.42823 31.7597 5.84704 32 5.24111 32C4.63517 32 4.05399 31.7597 3.62504 31.3317L0.668331 28.3761C0.239807 27.9475 -0.000926971 27.3662 -0.000926971 26.7601C-0.000926971 26.1539 0.239807 25.5726 0.668331 25.144ZM22.187 6.85745L16.4725 12.572L19.4292 15.5287L25.1437 9.81415L22.187 6.85745Z" fill="#333333"/>
<path d="M32 16.0007L29.7142 13.7149L27.4284 16.0007L29.7142 18.2865L32 16.0007Z" fill="#333333"/>
<path d="M18.2851 2.28582L15.9993 0L13.7135 2.28582L15.9993 4.57163L18.2851 2.28582Z" fill="#333333"/>
<path d="M32 2.28582L29.7142 0L27.4284 2.28582L29.7142 4.57163L32 2.28582Z" fill="#333333"/>
</svg>
