<svg width="250" height="71" viewBox="0 0 250 71" fill="none" xmlns="http://www.w3.org/2000/svg">
<rect x="1.60547" y="1.5" width="246.448" height="67.187" rx="3.5" stroke="white" stroke-width="3"/>
<path d="M38.1952 15.6455C37.8286 16.1056 37.5537 16.8417 37.5537 17.7617V50.4252C37.5537 51.3453 37.8286 52.0814 38.1952 52.5414L38.2869 52.6334L56.5241 34.3235V33.9555L38.3785 15.5535L38.1952 15.6455Z" fill="#5BC9F4"/>
<path d="M56.6157 34.3235V34.1395V33.9555L62.6642 27.8828L62.7559 27.9748L69.9958 32.1153C72.0119 33.3114 72.0119 35.2436 69.9958 36.3477L62.7559 40.4881L56.6157 34.3235Z" fill="url(#paint0_linear_362_102)"/>
<path d="M62.8475 40.3961L56.6157 34.1395L38.2869 52.5414C38.9284 53.2775 40.1197 53.3695 41.3111 52.6334L62.8475 40.3961Z" fill="url(#paint1_linear_362_102)"/>
<path d="M62.8475 27.8828L41.3111 15.5535C40.0281 14.9094 38.9284 15.0015 38.1952 15.6455L56.5241 34.0475L62.8475 27.8828Z" fill="url(#paint2_linear_362_102)"/>
<path d="M86.4787 29.2735C84.8187 29.2735 83.5537 28.8385 82.6837 27.9685C81.8237 27.0985 81.3937 25.7585 81.3937 23.9485C81.3937 22.7685 81.5937 21.7835 81.9937 20.9935C82.3937 20.2035 82.9837 19.6135 83.7637 19.2235C84.5437 18.8235 85.4937 18.6235 86.6137 18.6235C87.3137 18.6235 87.9487 18.6985 88.5187 18.8485C89.0887 18.9985 89.5787 19.2285 89.9887 19.5385C90.4087 19.8385 90.7287 20.2185 90.9487 20.6785C91.1787 21.1385 91.2937 21.6835 91.2937 22.3135H89.8387C89.8387 21.8735 89.7587 21.4985 89.5987 21.1885C89.4387 20.8685 89.2087 20.6085 88.9087 20.4085C88.6187 20.2085 88.2787 20.0685 87.8887 19.9885C87.4987 19.8985 87.0837 19.8535 86.6437 19.8535C86.0437 19.8535 85.5087 19.9285 85.0387 20.0785C84.5687 20.2285 84.1737 20.4635 83.8537 20.7835C83.5337 21.1035 83.2887 21.5135 83.1187 22.0135C82.9487 22.5135 82.8637 23.1085 82.8637 23.7985V24.1135C82.8637 25.0435 83.0037 25.7985 83.2837 26.3785C83.5737 26.9585 83.9887 27.3835 84.5287 27.6535C85.0687 27.9135 85.7187 28.0435 86.4787 28.0435C87.2487 28.0435 87.8837 27.9385 88.3837 27.7285C88.8837 27.5085 89.2537 27.1785 89.4937 26.7385C89.7437 26.2985 89.8687 25.7435 89.8687 25.0735V24.8935H86.2387V23.6785H91.3087V29.0935H90.2287L90.0787 27.7885C89.8087 28.1385 89.4887 28.4235 89.1187 28.6435C88.7487 28.8635 88.3387 29.0235 87.8887 29.1235C87.4487 29.2235 86.9787 29.2735 86.4787 29.2735ZM93.7822 29.0935V18.8035H101.702V20.0335H95.2072V23.2135H101.042V24.4435H95.2072V27.8635H101.792V29.0935H93.7822ZM106.454 29.0935V20.0485H102.929V18.8035H111.434V20.0485H107.879V29.0935H106.454ZM116.165 29.0935V18.8035H117.59V29.0935H116.165ZM122.684 29.0935V20.0485H119.159V18.8035H127.664V20.0485H124.109V29.0935H122.684ZM137.015 29.2735C135.945 29.2735 135.025 29.0785 134.255 28.6885C133.495 28.2985 132.905 27.7085 132.485 26.9185C132.075 26.1285 131.87 25.1385 131.87 23.9485C131.87 22.7485 132.075 21.7585 132.485 20.9785C132.905 20.1885 133.495 19.5985 134.255 19.2085C135.025 18.8185 135.945 18.6235 137.015 18.6235C138.085 18.6235 139 18.8185 139.76 19.2085C140.53 19.5985 141.12 20.1885 141.53 20.9785C141.95 21.7585 142.16 22.7485 142.16 23.9485C142.16 25.1385 141.95 26.1285 141.53 26.9185C141.12 27.7085 140.53 28.2985 139.76 28.6885C139 29.0785 138.085 29.2735 137.015 29.2735ZM137.015 28.0435C137.575 28.0435 138.08 27.9685 138.53 27.8185C138.99 27.6685 139.375 27.4335 139.685 27.1135C140.005 26.7835 140.25 26.3735 140.42 25.8835C140.59 25.3835 140.675 24.7935 140.675 24.1135V23.7985C140.675 23.1085 140.59 22.5185 140.42 22.0285C140.25 21.5285 140.005 21.1185 139.685 20.7985C139.375 20.4685 138.99 20.2285 138.53 20.0785C138.08 19.9285 137.575 19.8535 137.015 19.8535C136.445 19.8535 135.935 19.9285 135.485 20.0785C135.035 20.2285 134.65 20.4685 134.33 20.7985C134.01 21.1185 133.765 21.5285 133.595 22.0285C133.435 22.5185 133.355 23.1085 133.355 23.7985V24.1135C133.355 24.7935 133.435 25.3835 133.595 25.8835C133.765 26.3735 134.01 26.7835 134.33 27.1135C134.65 27.4335 135.035 27.6685 135.485 27.8185C135.935 27.9685 136.445 28.0435 137.015 28.0435ZM144.217 29.0935V18.8035H145.597L150.592 25.5835C150.642 25.6435 150.707 25.7335 150.787 25.8535C150.867 25.9735 150.947 26.0935 151.027 26.2135C151.107 26.3235 151.172 26.4235 151.222 26.5135H151.282C151.282 26.3535 151.282 26.1985 151.282 26.0485C151.282 25.8885 151.282 25.7335 151.282 25.5835V18.8035H152.677V29.0935H151.372L146.317 22.1935C146.247 22.0835 146.142 21.9285 146.002 21.7285C145.872 21.5285 145.762 21.3685 145.672 21.2485H145.597C145.597 21.4085 145.597 21.5685 145.597 21.7285C145.597 21.8785 145.597 22.0335 145.597 22.1935V29.0935H144.217Z" fill="white"/>
<path d="M86.3137 51.3335C84.1937 51.3335 82.547 50.7668 81.3737 49.6335C80.2004 48.4868 79.6137 46.6868 79.6137 44.2335C79.6137 42.6202 79.887 41.2935 80.4337 40.2535C80.9937 39.2002 81.7937 38.4202 82.8337 37.9135C83.887 37.3935 85.147 37.1335 86.6137 37.1335C87.4937 37.1335 88.3204 37.2335 89.0937 37.4335C89.867 37.6335 90.547 37.9402 91.1337 38.3535C91.7337 38.7535 92.2004 39.2602 92.5337 39.8735C92.867 40.4868 93.0337 41.2135 93.0337 42.0535H90.3537C90.3537 41.6135 90.2537 41.2268 90.0537 40.8935C89.867 40.5468 89.6004 40.2602 89.2537 40.0335C88.9204 39.7935 88.5337 39.6202 88.0937 39.5135C87.6537 39.3935 87.187 39.3335 86.6937 39.3335C85.9604 39.3335 85.3137 39.4335 84.7537 39.6335C84.207 39.8202 83.747 40.1135 83.3737 40.5135C83.0137 40.9002 82.7404 41.3868 82.5537 41.9735C82.3804 42.5602 82.2937 43.2468 82.2937 44.0335V44.4535C82.2937 45.5335 82.447 46.4202 82.7537 47.1135C83.0604 47.8068 83.5204 48.3202 84.1337 48.6535C84.7604 48.9735 85.5337 49.1335 86.4537 49.1335C87.2404 49.1335 87.927 49.0135 88.5137 48.7735C89.1137 48.5335 89.5804 48.1868 89.9137 47.7335C90.2604 47.2668 90.4337 46.7002 90.4337 46.0335V45.8935H86.0537V43.7335H93.0337V51.0935H91.1737L90.9537 49.5735C90.5537 49.9735 90.127 50.3068 89.6737 50.5735C89.2204 50.8268 88.7204 51.0135 88.1737 51.1335C87.627 51.2668 87.007 51.3335 86.3137 51.3335ZM102.253 51.3335C100.826 51.3335 99.5926 51.0802 98.5526 50.5735C97.5126 50.0535 96.7126 49.2668 96.1526 48.2135C95.606 47.1602 95.3326 45.8335 95.3326 44.2335C95.3326 42.6202 95.606 41.2935 96.1526 40.2535C96.7126 39.2002 97.5126 38.4202 98.5526 37.9135C99.5926 37.3935 100.826 37.1335 102.253 37.1335C103.693 37.1335 104.926 37.3935 105.953 37.9135C106.993 38.4202 107.786 39.2002 108.333 40.2535C108.893 41.2935 109.173 42.6202 109.173 44.2335C109.173 45.8335 108.893 47.1602 108.333 48.2135C107.786 49.2668 106.993 50.0535 105.953 50.5735C104.926 51.0802 103.693 51.3335 102.253 51.3335ZM102.253 49.1335C102.946 49.1335 103.553 49.0335 104.073 48.8335C104.606 48.6335 105.053 48.3402 105.413 47.9535C105.773 47.5535 106.046 47.0668 106.233 46.4935C106.419 45.9068 106.513 45.2335 106.513 44.4735V44.0335C106.513 43.2602 106.419 42.5802 106.233 41.9935C106.046 41.4068 105.773 40.9202 105.413 40.5335C105.053 40.1335 104.606 39.8335 104.073 39.6335C103.553 39.4335 102.946 39.3335 102.253 39.3335C101.559 39.3335 100.946 39.4335 100.413 39.6335C99.8926 39.8335 99.4526 40.1335 99.0926 40.5335C98.7326 40.9202 98.4593 41.4068 98.2726 41.9935C98.0993 42.5802 98.0126 43.2602 98.0126 44.0335V44.4735C98.0126 45.2335 98.0993 45.9068 98.2726 46.4935C98.4593 47.0668 98.7326 47.5535 99.0926 47.9535C99.4526 48.3402 99.8926 48.6335 100.413 48.8335C100.946 49.0335 101.559 49.1335 102.253 49.1335ZM117.897 51.3335C116.47 51.3335 115.237 51.0802 114.197 50.5735C113.157 50.0535 112.357 49.2668 111.797 48.2135C111.25 47.1602 110.977 45.8335 110.977 44.2335C110.977 42.6202 111.25 41.2935 111.797 40.2535C112.357 39.2002 113.157 38.4202 114.197 37.9135C115.237 37.3935 116.47 37.1335 117.897 37.1335C119.337 37.1335 120.57 37.3935 121.597 37.9135C122.637 38.4202 123.43 39.2002 123.977 40.2535C124.537 41.2935 124.817 42.6202 124.817 44.2335C124.817 45.8335 124.537 47.1602 123.977 48.2135C123.43 49.2668 122.637 50.0535 121.597 50.5735C120.57 51.0802 119.337 51.3335 117.897 51.3335ZM117.897 49.1335C118.59 49.1335 119.197 49.0335 119.717 48.8335C120.25 48.6335 120.697 48.3402 121.057 47.9535C121.417 47.5535 121.69 47.0668 121.877 46.4935C122.064 45.9068 122.157 45.2335 122.157 44.4735V44.0335C122.157 43.2602 122.064 42.5802 121.877 41.9935C121.69 41.4068 121.417 40.9202 121.057 40.5335C120.697 40.1335 120.25 39.8335 119.717 39.6335C119.197 39.4335 118.59 39.3335 117.897 39.3335C117.204 39.3335 116.59 39.4335 116.057 39.6335C115.537 39.8335 115.097 40.1335 114.737 40.5335C114.377 40.9202 114.104 41.4068 113.917 41.9935C113.744 42.5802 113.657 43.2602 113.657 44.0335V44.4735C113.657 45.2335 113.744 45.9068 113.917 46.4935C114.104 47.0668 114.377 47.5535 114.737 47.9535C115.097 48.3402 115.537 48.6335 116.057 48.8335C116.59 49.0335 117.204 49.1335 117.897 49.1335ZM133.482 51.3335C131.362 51.3335 129.715 50.7668 128.542 49.6335C127.368 48.4868 126.782 46.6868 126.782 44.2335C126.782 42.6202 127.055 41.2935 127.602 40.2535C128.162 39.2002 128.962 38.4202 130.002 37.9135C131.055 37.3935 132.315 37.1335 133.782 37.1335C134.662 37.1335 135.488 37.2335 136.262 37.4335C137.035 37.6335 137.715 37.9402 138.302 38.3535C138.902 38.7535 139.368 39.2602 139.702 39.8735C140.035 40.4868 140.202 41.2135 140.202 42.0535H137.522C137.522 41.6135 137.422 41.2268 137.222 40.8935C137.035 40.5468 136.768 40.2602 136.422 40.0335C136.088 39.7935 135.702 39.6202 135.262 39.5135C134.822 39.3935 134.355 39.3335 133.862 39.3335C133.128 39.3335 132.482 39.4335 131.922 39.6335C131.375 39.8202 130.915 40.1135 130.542 40.5135C130.182 40.9002 129.908 41.3868 129.722 41.9735C129.548 42.5602 129.462 43.2468 129.462 44.0335V44.4535C129.462 45.5335 129.615 46.4202 129.922 47.1135C130.228 47.8068 130.688 48.3202 131.302 48.6535C131.928 48.9735 132.702 49.1335 133.622 49.1335C134.408 49.1335 135.095 49.0135 135.682 48.7735C136.282 48.5335 136.748 48.1868 137.082 47.7335C137.428 47.2668 137.602 46.7002 137.602 46.0335V45.8935H133.222V43.7335H140.202V51.0935H138.342L138.122 49.5735C137.722 49.9735 137.295 50.3068 136.842 50.5735C136.388 50.8268 135.888 51.0135 135.342 51.1335C134.795 51.2668 134.175 51.3335 133.482 51.3335ZM143.121 51.0935V37.3735H145.721V48.8335H152.601V51.0935H143.121ZM154.527 51.0935V37.3735H165.227V39.5935H157.127V42.9735H164.347V45.1935H157.127V48.8735H165.347V51.0935H154.527ZM171.968 51.0935V37.3735H178.848C179.862 37.3735 180.695 37.5535 181.348 37.9135C182.015 38.2735 182.515 38.7802 182.848 39.4335C183.182 40.0868 183.348 40.8668 183.348 41.7735C183.348 42.6668 183.175 43.4468 182.828 44.1135C182.482 44.7802 181.962 45.3002 181.268 45.6735C180.588 46.0335 179.735 46.2135 178.708 46.2135H174.568V51.0935H171.968ZM174.568 43.9935H178.628C179.295 43.9935 179.808 43.8002 180.168 43.4135C180.542 43.0135 180.728 42.4668 180.728 41.7735C180.728 41.3068 180.648 40.9135 180.488 40.5935C180.328 40.2735 180.095 40.0268 179.788 39.8535C179.482 39.6802 179.095 39.5935 178.628 39.5935H174.568V43.9935ZM185.367 51.0935V37.3735H187.967V48.8335H194.847V51.0935H185.367ZM195.353 51.0935L200.693 37.3735H203.973L209.333 51.0935H206.513L205.413 48.1735H199.133L198.033 51.0935H195.353ZM199.953 45.9735H204.573L203.193 42.2535C203.14 42.1202 203.073 41.9535 202.993 41.7535C202.926 41.5402 202.853 41.3135 202.773 41.0735C202.693 40.8202 202.613 40.5668 202.533 40.3135C202.453 40.0602 202.38 39.8335 202.313 39.6335H202.213C202.133 39.9002 202.033 40.2068 201.913 40.5535C201.806 40.9002 201.7 41.2268 201.593 41.5335C201.486 41.8402 201.4 42.0802 201.333 42.2535L199.953 45.9735ZM213.311 51.0935V45.5135L208.031 37.3735H211.031L214.651 43.1735H214.751L218.331 37.3735H221.171L215.911 45.5135V51.0935H213.311Z" fill="white"/>
<defs>
<linearGradient id="paint0_linear_362_102" x1="65.0572" y1="33.8999" x2="-16.1938" y2="33.8999" gradientUnits="userSpaceOnUse">
<stop stop-color="#FEE000"/>
<stop offset="0.1941" stop-color="#FCCF0B"/>
<stop offset="0.5469" stop-color="#FAB318"/>
<stop offset="0.8279" stop-color="#F9A21B"/>
<stop offset="1" stop-color="#F99B1C"/>
</linearGradient>
<linearGradient id="paint1_linear_362_102" x1="66.7841" y1="21.8452" x2="3.88762" y2="65.1219" gradientUnits="userSpaceOnUse">
<stop stop-color="#EF4547"/>
<stop offset="1" stop-color="#C6186D"/>
</linearGradient>
<linearGradient id="paint2_linear_362_102" x1="25.7636" y1="-3.08553" x2="53.2388" y2="24.2805" gradientUnits="userSpaceOnUse">
<stop stop-color="#279E6F"/>
<stop offset="0.3168" stop-color="#4DAB6D"/>
<stop offset="0.7398" stop-color="#6ABA6A"/>
<stop offset="1" stop-color="#74C169"/>
</linearGradient>
</defs>
</svg>
