<svg width="20" height="22" viewBox="0 0 20 22" fill="none" xmlns="http://www.w3.org/2000/svg">
<path d="M16.5276 15.0526C16.0947 15.0542 15.6666 15.143 15.2689 15.3136C14.8713 15.4843 14.5124 15.7332 14.2137 16.0456L6.37864 12.1376C6.57138 11.5551 6.57138 10.9263 6.37864 10.3438L14.2265 6.36537C14.7887 6.95581 15.551 7.31683 16.3653 7.37827C17.1796 7.43971 17.9877 7.19717 18.6326 6.6978C19.2775 6.19843 19.7131 5.4779 19.8547 4.67626C19.9963 3.87461 19.8338 3.04913 19.3988 2.36026C18.9638 1.67138 18.2873 1.16832 17.5009 0.948865C16.7145 0.729406 15.8744 0.809223 15.1437 1.1728C14.4131 1.53638 13.8442 2.15775 13.5476 2.91613C13.2509 3.67451 13.2478 4.51573 13.5388 5.27627L5.76803 9.21626C5.34835 8.70466 4.7802 8.33497 4.14145 8.15786C3.5027 7.98074 2.82463 8.00487 2.20018 8.22694C1.57573 8.44901 1.03548 8.85815 0.653471 9.39828C0.271464 9.9384 0.0664062 10.5831 0.0664062 11.2439C0.0664063 11.9047 0.271464 12.5494 0.653471 13.0895C1.03548 13.6297 1.57573 14.0388 2.20018 14.2609C2.82463 14.4829 3.5027 14.5071 4.14145 14.33C4.7802 14.1528 5.34835 13.7831 5.76803 13.2716L13.5195 17.1603C13.3886 17.5108 13.3211 17.8817 13.3203 18.2558C13.3203 18.8893 13.5088 19.5086 13.8619 20.0354C14.215 20.5622 14.7169 20.9728 15.3042 21.2152C15.8914 21.4576 16.5376 21.5211 17.161 21.3975C17.7844 21.2739 18.357 20.9688 18.8064 20.5208C19.2559 20.0728 19.562 19.5021 19.686 18.8807C19.81 18.2593 19.7463 17.6153 19.5031 17.03C19.2598 16.4447 18.8479 15.9444 18.3194 15.5924C17.791 15.2404 17.1696 15.0526 16.534 15.0526H16.5276ZM16.5276 2.2396C16.9089 2.2396 17.2817 2.35232 17.5988 2.56351C17.9159 2.77469 18.1631 3.07486 18.309 3.42605C18.455 3.77724 18.4932 4.16368 18.4188 4.5365C18.3443 4.90932 18.1607 5.25178 17.891 5.52056C17.6214 5.78935 17.2778 5.9724 16.9037 6.04656C16.5297 6.12072 16.142 6.08266 15.7897 5.93719C15.4373 5.79172 15.1362 5.54538 14.9243 5.22932C14.7124 4.91326 14.5993 4.54167 14.5993 4.16154C14.5993 3.65181 14.8025 3.16296 15.1641 2.80253C15.5257 2.44209 16.0162 2.2396 16.5276 2.2396ZM3.33203 13.1306C2.95067 13.1306 2.57786 13.0179 2.26077 12.8067C1.94367 12.5955 1.69652 12.2954 1.55058 11.9442C1.40464 11.593 1.36645 11.2065 1.44085 10.8337C1.51525 10.4609 1.6989 10.1184 1.96857 9.84965C2.23824 9.58086 2.58181 9.39781 2.95585 9.32366C3.3299 9.2495 3.7176 9.28756 4.06994 9.43303C4.42228 9.57849 4.72342 9.82483 4.9353 10.1409C5.14718 10.457 5.26027 10.8285 5.26027 11.2087C5.26027 11.7184 5.05711 12.2073 4.6955 12.5677C4.33389 12.9281 3.84343 13.1306 3.33203 13.1306ZM16.5276 20.1777C16.1462 20.1777 15.7734 20.065 15.4563 19.8538C15.1392 19.6426 14.8921 19.3425 14.7461 18.9913C14.6002 18.6401 14.562 18.2537 14.6364 17.8808C14.7108 17.508 14.8944 17.1656 15.1641 16.8968C15.4338 16.628 15.7773 16.4449 16.1514 16.3708C16.5254 16.2966 16.9131 16.3347 17.2655 16.4802C17.6178 16.6256 17.919 16.872 18.1308 17.188C18.3427 17.5041 18.4558 17.8757 18.4558 18.2558C18.4558 18.7655 18.2526 19.2544 17.891 19.6148C17.5294 19.9752 17.039 20.1777 16.5276 20.1777Z" fill="#808080"/>
</svg>
